<?xml version="1.0" encoding="UTF-8" standalone="no"?>
<!-- Created with Inkscape (http://www.inkscape.org/) -->

<svg
   width="210mm"
   height="297mm"
   viewBox="0 0 210 297"
   version="1.1"
   id="svg1"
   inkscape:version="1.3.2 (091e20e, 2023-11-25)"
   sodipodi:docname="CharacterSprite.svg"
   xmlns:inkscape="http://www.inkscape.org/namespaces/inkscape"
   xmlns:sodipodi="http://sodipodi.sourceforge.net/DTD/sodipodi-0.dtd"
   xmlns="http://www.w3.org/2000/svg"
   xmlns:svg="http://www.w3.org/2000/svg">
  <sodipodi:namedview
     id="namedview1"
     pagecolor="#ffffff"
     bordercolor="#666666"
     borderopacity="1.0"
     inkscape:showpageshadow="2"
     inkscape:pageopacity="0.0"
     inkscape:pagecheckerboard="0"
     inkscape:deskcolor="#d1d1d1"
     inkscape:document-units="mm"
     inkscape:zoom="0.4204826"
     inkscape:cx="262.79327"
     inkscape:cy="879.94128"
     inkscape:window-width="1920"
     inkscape:window-height="977"
     inkscape:window-x="1512"
     inkscape:window-y="25"
     inkscape:window-maximized="1"
     inkscape:current-layer="layer1" />
  <defs
     id="defs1" />
  <g
     inkscape:label="Layer 1"
     inkscape:groupmode="layer"
     id="layer1">
    <g
       id="g27"
       transform="translate(-21.913195,-44.938733)">
      <g
         id="g25"
         transform="rotate(2.7385254,653.71284,-408.35217)">
        <g
           id="g26">
          <path
             style="fill:#000000;fill-opacity:1;stroke:#000000;stroke-width:0.264583px;stroke-linecap:butt;stroke-linejoin:miter;stroke-opacity:1"
             d="m 95.651483,102.99776 c 0,0 -2.543837,-11.013958 -0.0774,-15.586928 1.814296,-3.363849 5.856437,-5.542529 9.612207,-6.250585 3.95028,-0.744725 8.95824,-0.391503 11.80978,2.441871 1.62583,1.615472 1.43526,6.724411 1.43526,6.724411 0,0 -0.45549,-1.291224 -0.94732,-1.179668 -0.26325,0.05971 0.0703,0.700727 -0.18501,0.788382 -0.42228,0.144984 -0.61484,-0.712712 -1.04248,-0.841028 -3.69772,-1.109512 -11.52861,1.108253 -11.52861,1.108253 l -0.91493,1.82555 -2.86803,-1.755961 c 0,0 7.48477,11.411473 3.45795,14.088883 -0.43883,0.29178 -0.74349,-0.91963 -1.27002,-0.9415 -0.38141,-0.0158 -0.60085,0.68668 -0.97339,0.60337 -0.50269,-0.11242 -0.32711,-1.26958 -0.84153,-1.29609 -0.44589,-0.023 -0.39456,1.0397 -0.84103,1.04248 -0.556162,0.003 -0.512069,-1.35607 -1.063741,-1.28546 -0.78966,0.10108 -0.214002,2.16752 -1.010098,2.16419 -0.599009,-0.003 -0.169294,-1.47407 -0.746363,-1.63472 -0.545239,-0.15179 -0.848132,1.07495 -1.40188,0.95795 -0.373498,-0.0789 -0.603365,-0.9734 -0.603365,-0.9734 z"
             id="path23"
             sodipodi:nodetypes="cssscssscccsssssssssc" />
        </g>
        <path
           style="fill:#000000;fill-opacity:1;stroke:#000000;stroke-width:0.264583px;stroke-linecap:butt;stroke-linejoin:miter;stroke-opacity:1"
           d="m 117.48401,89.146863 0.77011,13.772007 c 0,0 -0.64361,-0.7194 -1.03185,-0.61881 -0.59738,0.15478 -0.3111,1.54625 -0.92556,1.60334 -0.42094,0.0391 -0.40735,-1.02448 -0.82558,-0.96277 -0.49213,0.0726 -0.43695,1.83415 -0.60287,1.36518 -1.22362,-3.45844 0.38297,-15.274871 0.38297,-15.274871 l 1.70863,-1.52943 z"
           id="path24"
           sodipodi:nodetypes="ccssssccc" />
        <path
           style="fill:#000000;fill-opacity:1;stroke:#000000;stroke-width:0.264583px;stroke-linecap:butt;stroke-linejoin:miter;stroke-opacity:1"
           d="m 115.47644,103.05174 c -0.60067,0.41215 -1.48902,-0.78623 -2.13761,-0.45456 -0.29527,0.15099 -0.10899,0.75463 -0.40192,0.91011 -0.43695,0.23192 -0.96646,-0.29236 -1.46034,-0.26423 -0.61052,0.0348 -1.15266,0.43269 -1.75646,0.52946 -1.6113,0.25825 -3.37862,0.72811 -4.89404,0.12274 -0.51188,-0.20448 -0.76041,-0.79966 -1.16954,-1.16904 -1.44215,-1.30206 -4.519198,-3.681492 -4.519198,-3.681492 l 17.110548,-0.818444 c 0,0 0.5717,3.903866 -0.77144,4.825456 z"
           id="path25"
           sodipodi:nodetypes="sssssssccs" />
      </g>
      <path
         style="fill:#000000;fill-opacity:1;stroke:#000000;stroke-width:0.264583px;stroke-linecap:butt;stroke-linejoin:miter;stroke-opacity:1"
         d="M 76.084391,60.734028 77.0855,73.859698 92.547093,73.63723 92.769563,59.844152 Z"
         id="path26" />
    </g>
    <path
       style="fill:#000000;fill-opacity:1;stroke:#000000;stroke-width:0.264583px;stroke-linecap:butt;stroke-linejoin:miter;stroke-opacity:1"
       d="m 29.293015,20.631534 c 1.48113,-0.279455 4.06527,0.446046 4.40466,-1.022509 0.0608,-0.26331 -0.63246,-0.241026 -0.62923,-0.511256 0.0105,-0.878347 2.22094,-0.744699 2.08434,-1.61242 -0.1322,-0.839734 -2.09366,-0.07184 -2.39897,-0.865203 -0.16008,-0.415973 0.83866,-0.786372 0.62924,-1.179819 -0.42106,-0.79105 -2.03116,0.348801 -2.67425,-0.27529 -0.28472,-0.276311 0.17456,-0.962398 -0.15731,-1.17982 -0.55881,-0.366091 -1.2685,0.662944 -1.92704,0.550582 -0.38005,-0.06485 -0.56056,-0.626997 -0.94386,-0.668566 -0.73586,-0.0798 -1.31062,0.772968 -2.04503,0.865201 -0.43413,0.05452 -0.86234,-0.239267 -1.29779,-0.196635 -0.34666,0.03394 -0.63493,0.347416 -0.98319,0.353946 -0.30259,0.0057 -0.565503,-0.317515 -0.865193,-0.275292 -0.42124,0.05935 -0.65283,0.590997 -1.06185,0.707894 -0.403542,0.11533 -0.861422,0.09667 -1.258462,-0.03933 -0.16869,-0.05779 -0.25519,-0.332422 -0.43261,-0.314618 -0.21233,0.02131 -0.2299,0.405188 -0.4326,0.471927 -0.52014,0.171258 -1.08869,-0.474539 -1.61243,-0.314619 -0.5142,0.157006 -0.66647,0.886805 -1.14048,1.140492 -1.00188,0.536193 -2.55416,-0.149534 -3.34283,0.668564 -0.34103,0.353759 0.0263,1.03958 -0.23596,1.455114 -0.22126,0.350563 -0.78584,0.367543 -1.02251,0.70789 -0.36304,0.522076 0.0303,1.458302 -0.47193,1.848384 -0.10356,0.08041 -0.30928,-0.100641 -0.39327,0 -0.0939,0.112526 0.10624,0.288658 0.0786,0.432601 -0.0699,0.364378 -0.48764,0.587219 -0.58991,0.943856 -0.0434,0.151212 0.0252,0.316649 -5e-5,0.471924 -0.0664,0.409193 -0.37993,0.76549 -0.39328,1.179822 -0.008,0.257418 0.14697,0.4945 0.19665,0.747218 0.0969,0.493006 0.002,1.031348 0.19663,1.494438 0.0905,0.215123 0.19927,0.544662 0.4326,0.550584 1.75551,0.04456 1.91925,-3.130968 3.46081,-3.972062 4.38431,-2.392145 9.918555,-1.237001 14.826405,-2.163 z"
       id="path22"
       sodipodi:nodetypes="ssssssssssssssssssssssssssssssssss" />
    <path
       style="fill:#000000;fill-opacity:1;stroke:#000000;stroke-width:0.264583px;stroke-linecap:butt;stroke-linejoin:miter;stroke-opacity:1"
       d="m 103.84664,90.393593 c -0.92619,0.0134 -0.83931,1.3254 -2.99763,1.42359 -1.512045,0.0688 -3.327043,-0.28772 -4.560235,0.50836 -2.548361,1.64508 0.79352,7.939837 0.65704,10.349717 -0.286218,5.05385 -2.592885,10.67259 4.154585,11.76818 6.67654,1.08408 6.75477,-5.72829 7.54568,-10.66173 0.41501,-2.58863 4.72764,-7.434247 2.29191,-9.833917 -1.17432,-1.15693 -3.77072,-0.7106 -4.67688,-1.17911 -2.08392,-1.07745 -1.77231,-2.3844 -2.41447,-2.37509 z"
       id="path2"
       sodipodi:nodetypes="sssssssss" />
    <g
       id="g29"
       transform="translate(-2.6696277,-38.487133)">
      <path
         style="fill:#000000;fill-opacity:1;stroke:#000000;stroke-width:0.264583px;stroke-linecap:butt;stroke-linejoin:miter;stroke-opacity:1"
         d="m 112.48376,92.231283 c -4.37541,-1.93191 -15.308687,-2.30315 -17.711968,4.822399 -2.472939,7.332088 6.259908,11.590038 9.656548,15.423378 5.26967,-1.3152 7.18163,-2.93804 9.80386,-6.03806 1.44784,-1.71166 1.58906,-12.734087 -1.74844,-14.207717 z"
         id="path1"
         sodipodi:nodetypes="sscss" />
      <g
         id="g28"
         transform="translate(2.1134553,-0.33370347)">
        <path
           style="fill:#ffffff;fill-opacity:1;stroke:#000000;stroke-width:0.264583px;stroke-linecap:butt;stroke-linejoin:miter;stroke-opacity:1"
           d="m 105.66763,99.020417 c -0.45657,-0.05833 -1.11807,0.277134 -1.18719,0.764263 -0.0813,0.5732 0.5475,1.24196 1.08755,1.28111 0.47305,0.0343 1.07685,-0.46651 1.10153,-0.97329 0.0247,-0.506776 -0.53129,-1.011968 -1.00189,-1.072083 z"
           id="path11"
           sodipodi:nodetypes="sssss" />
        <path
           style="fill:#ffffff;fill-opacity:1;stroke:#000000;stroke-width:0.264583px;stroke-linecap:butt;stroke-linejoin:miter;stroke-opacity:1"
           d="m 111.33076,98.863108 c -0.45656,-0.05833 -1.11807,0.277134 -1.18719,0.764263 -0.0813,0.573199 0.54751,1.241959 1.08755,1.281109 0.47305,0.0343 1.07685,-0.46651 1.10153,-0.973286 0.0247,-0.506779 -0.53129,-1.011971 -1.00189,-1.072086 z"
           id="path21"
           sodipodi:nodetypes="sssss" />
      </g>
    </g>
    <path
       style="fill:#000000;fill-opacity:1;stroke:#000000;stroke-width:0.264583px;stroke-linecap:butt;stroke-linejoin:miter;stroke-opacity:1"
       d="m 113.69838,126.79594 2.20233,6.60699 -4.24734,2.67426 -5.03391,-5.0339 c 0,0 -0.48844,-4.17052 0.94386,-5.1912 1.685,-1.20077 6.13506,0.94385 6.13506,0.94385 z"
       id="path12"
       sodipodi:nodetypes="ccccsc"
       inkscape:transform-center-x="-2.1893171"
       inkscape:transform-center-y="2.8136666" />
    <path
       style="fill:#000000;fill-opacity:1;stroke:#000000;stroke-width:0.264583px;stroke-linecap:butt;stroke-linejoin:miter;stroke-opacity:1"
       d="m 90.217291,125.99822 -2.202328,6.92161 4.876593,1.88771 4.87658,-7.39354 c 0,0 -1.30055,-3.414 -2.83156,-3.77542 -1.71172,-0.40408 -4.719285,2.35964 -4.719285,2.35964 z"
       id="path13"
       sodipodi:nodetypes="ccccsc"
       inkscape:transform-center-x="0.93583948"
       inkscape:transform-center-y="2.8176963" />
    <g
       id="g17"
       inkscape:transform-center-x="-0.92144492"
       inkscape:transform-center-y="4.4022721"
       transform="rotate(5.0589744,-19.214106,268.94185)">
      <path
         style="fill:#000000;fill-opacity:1;stroke:#000000;stroke-width:0.264583px;stroke-linecap:butt;stroke-linejoin:miter;stroke-opacity:1"
         d="m 107.28496,136.54449 0.15731,6.7643 1.7304,-0.15731 -0.31462,-6.92161 -0.78655,-1.10116 z"
         id="path15" />
      <path
         style="fill:#000000;fill-opacity:1;stroke:#000000;stroke-width:0.264583px;stroke-linecap:butt;stroke-linejoin:miter;stroke-opacity:1"
         d="m 106.47875,142.8172 c 1.24569,0.14068 2.37136,-0.0387 3.46081,-0.31462 0,0 3.73929,2.0599 3.61811,2.51695 -0.13371,0.50432 -7.74209,0.6267 -7.86547,0.31462 -0.16071,-0.40651 0.78655,-2.51695 0.78655,-2.51695 z"
         id="path17"
         sodipodi:nodetypes="ccssc" />
    </g>
    <g
       id="g18"
       inkscape:transform-center-x="4.6183378"
       inkscape:transform-center-y="3.4932925"
       transform="rotate(-2.387648,394.27167,372.44901)">
      <path
         style="fill:#000000;fill-opacity:1;stroke:#000000;stroke-width:0.264583px;stroke-linecap:butt;stroke-linejoin:miter;stroke-opacity:1"
         d="m 98.632943,136.54449 -7.865465,1.57309 0.471927,1.88772 8.180086,-1.73041 0.943859,-1.57309 z"
         id="path14" />
      <path
         style="fill:#000000;fill-opacity:1;stroke:#000000;stroke-width:0.264583px;stroke-linecap:butt;stroke-linejoin:miter;stroke-opacity:1"
         d="m 90.961204,137.34735 c 0.07833,1.25115 0.450947,2.3284 0.912318,3.35318 0,0 -1.377462,4.04081 -1.848628,4.00104 -0.51989,-0.0439 -1.964972,-7.51476 -1.679137,-7.69058 0.372323,-0.22902 2.615447,0.33636 2.615447,0.33636 z"
         id="path17-9"
         sodipodi:nodetypes="ccssc" />
    </g>
    <g
       id="g19"
       transform="matrix(1.0385286,0,0,1.3599978,19.108959,-61.709657)"
       style="stroke-width:0.841437">
      <path
         style="fill:#000000;fill-opacity:1;stroke:#000000;stroke-width:0.22263px;stroke-linecap:butt;stroke-linejoin:miter;stroke-opacity:1"
         d="m 110.52916,114.43028 c 1.49745,-2.11484 3.31869,3.34398 5.29487,5.02064 1.75403,1.48816 3.90869,1.2842 4.32328,1.60427 0.008,0.006 -0.0534,1.73205 -0.49276,2.10283 -0.23771,0.20063 -3.73694,-0.57387 -5.17018,-1.58776 -1.60597,-1.13608 -5.09184,-5.53475 -3.95524,-7.13998 z"
         id="path4"
         sodipodi:nodetypes="sssssss"
         inkscape:transform-center-x="-4.6178209"
         inkscape:transform-center-y="3.3783249" />
      <path
         style="fill:#000000;fill-opacity:1;stroke:#000000;stroke-width:0.22263px;stroke-linecap:butt;stroke-linejoin:miter;stroke-opacity:1"
         d="m 119.80404,121.47574 c 0,0 0.82855,-0.0945 1.185,0.10977 0.36983,0.21197 0.73246,0.60054 0.83648,1.07023 0.0846,0.38208 0.0823,1.01901 -0.23235,1.15257 -0.41109,0.17448 -0.63799,-0.7475 -1.0456,-0.93303 -0.3265,-0.14861 -1.0456,-0.10977 -1.0456,-0.10977 z"
         id="path18"
         sodipodi:nodetypes="csssscc" />
    </g>
    <g
       id="g20"
       transform="matrix(-0.27225338,1.3814375,-1.0762982,-0.34943943,227.04353,-19.129593)"
       inkscape:transform-center-x="5.5916586"
       inkscape:transform-center-y="5.5027567"
       style="stroke-width:0.795061">
      <path
         style="fill:#000000;fill-opacity:1;stroke:#000000;stroke-width:0.210359px;stroke-linecap:butt;stroke-linejoin:miter;stroke-opacity:1"
         d="m 110.52916,114.43028 c 1.49745,-2.11484 3.31869,3.34398 5.29487,5.02064 1.75403,1.48816 3.90869,1.2842 4.32328,1.60427 0.008,0.006 -0.0534,1.73205 -0.49276,2.10283 -0.23771,0.20063 -3.73694,-0.57387 -5.17018,-1.58776 -1.60597,-1.13608 -5.09184,-5.53475 -3.95524,-7.13998 z"
         id="path19"
         sodipodi:nodetypes="sssssss"
         inkscape:transform-center-x="-4.6178209"
         inkscape:transform-center-y="3.3783249" />
      <path
         style="fill:#000000;fill-opacity:1;stroke:#000000;stroke-width:0.210359px;stroke-linecap:butt;stroke-linejoin:miter;stroke-opacity:1"
         d="m 119.80404,121.47574 c 0,0 0.82855,-0.0945 1.185,0.10977 0.36983,0.21197 0.73246,0.60054 0.83648,1.07023 0.0846,0.38208 0.0823,1.01901 -0.23235,1.15257 -0.41109,0.17448 -0.63799,-0.7475 -1.0456,-0.93303 -0.3265,-0.14861 -1.0456,-0.10977 -1.0456,-0.10977 z"
         id="path20"
         sodipodi:nodetypes="csssscc" />
    </g>
    <path
       style="fill:#000000;fill-opacity:1;stroke:#000000;stroke-width:0.264583px;stroke-linecap:butt;stroke-linejoin:miter;stroke-opacity:1"
       d="m 134.37126,34.260223 c 0,0 -1.86567,1.87886 -2.83252,2.11346 -1.06496,0.25839 -2.22885,-0.54721 -3.15653,-0.90823 -0.84434,-0.32859 -2.33122,0.14719 -3.02938,-0.5477 -0.64472,-0.64172 -0.3553,-2.19634 -0.84997,-3.03567 -0.39811,-0.6755 -1.45158,-1.1612 -1.73825,-1.9003 -0.39464,-1.01743 0.26619,-1.9106 0.11133,-2.919219 -0.12662,-0.82471 -0.80684,-1.541209 -0.78803,-2.306463 0.0213,-0.867251 0.84016,-1.696098 1.03226,-2.486036 0.24089,-0.990549 -0.0985,-1.919916 0.38077,-2.787106 0.42177,-0.763092 0.92935,-1.478039 1.51134,-2.144161 0.5973,-0.683657 1.66625,-0.372028 2.40795,-0.952094 0.8373,-0.65484 1.05086,-2.737642 2.03868,-3.258474 0.96582,-0.509225 2.38837,0.147271 3.4645,-0.231856 1.16539,-0.410576 2.77902,-1.766796 4.03324,-2.022385 1.37714,-0.28064 2.73196,0.579115 4.38524,0.329032 1.41935,-0.214698 2.64881,-1.106391 4.06466,-0.93322 0.96846,0.118451 1.77213,1.358348 2.70494,1.501899 1.46827,0.225955 3.00161,-0.412615 4.18776,0.179404 1.2443,0.621042 1.17626,1.519518 1.87562,2.678857 0.36386,0.603162 1.67966,0.959058 2.15468,1.655169 0.51702,0.757662 0.18325,1.860266 0.28861,2.624733 0.11315,0.821003 -0.72349,1.395598 -1.24198,2.124559 -0.48274,0.67871 -0.31931,1.739863 -0.93171,2.279117 -0.60304,0.531004 -1.97986,0.544014 -2.72063,0.713109 -1.85311,0.423005 -5.33925,-2.002221 -5.33925,-2.002221 l -13.12567,3.337036 z"
       id="path29"
       sodipodi:nodetypes="cssssssssssssssssssssssssccc" />
    <path
       style="fill:#000000;fill-opacity:1;stroke:#000000;stroke-width:0.264583px;stroke-linecap:butt;stroke-linejoin:miter;stroke-opacity:1"
       d="m 203.22541,21.245786 -3.11457,-1.223579 -2.78086,-2.002221 -12.79197,2.447158 1.11235,10.011105 c 0,0 -1.0534,0.20153 -1.76183,0.32696 -0.40359,-0.4323 -2.69898,-1.89521 -3.57743,-3.664 -1.13906,-2.29353 -0.3337,-7.675175 -0.3337,-7.675175 0,0 -2.75491,-0.529593 -3.78198,0.111234 -2.83185,1.766897 0.22247,10.011101 0.22247,10.011101 l -0.47806,-0.40311 -0.3497,0.31034 -0.51305,-0.49562 -0.63143,0.3805 -0.75372,-0.43107 -0.80928,0.42542 -0.51991,-0.4132 -0.61669,0.29304 c 0,0 -0.51885,-10.758957 3.44826,-12.347028 1.68249,-0.673514 5.22803,1.557284 5.22803,1.557284 0,0 1.44204,-2.561625 2.66962,-3.225802 4.06946,-2.201766 9.31453,-2.719522 13.79308,-1.557282 1.85239,0.480718 3.49358,1.829014 4.67185,3.337036 0.93262,1.193627 1.66852,4.226909 1.66852,4.226909 z"
       id="path30"
       sodipodi:nodetypes="ccccccscscccccccccscsssc" />
    <path
       style="fill:#000000;fill-opacity:1;stroke:#000000;stroke-width:0.264583px;stroke-linecap:butt;stroke-linejoin:miter;stroke-opacity:1"
       d="m 109.53472,21.141635 1.25847,-1.17982 -0.94386,0.314619 0.7079,-3.932735 -1.49444,1.494441 -1.57309,-2.045023 -1.25848,1.101167 0.0787,-1.494441 -2.75292,1.415786 -3.06753,-2.045021 -0.0787,1.415783 -2.988877,0.07866 -2.75292,-0.629238 0.31462,1.337128 -2.28098,0.865203 1.17982,0.786545 -2.51695,1.101164 -0.47193,0.943856 -0.70789,-1.101164 0.314619,2.045021 -1.494441,-3.146185 0.629237,3.067532 -2.123675,-3.224842 1.179819,2.988876 -2.359638,-0.235963 2.595604,1.022511 -0.943856,1.022511 1.809057,-0.471929 -1.101167,1.415783 0.47193,2.045022 -0.314619,2.831567 0.707893,-0.0787 -0.07866,1.5731 0.629238,-0.15731 v 1.49444 l 1.415779,-1.41579 1.02252,-6.292369 5.8991,-4.483315 z"
       id="path31"
       sodipodi:nodetypes="ccccccccccccccccccccccccccccccccccccccc" />
  </g>
</svg>
