<?xml version="1.0" encoding="UTF-8" standalone="no"?>
<!-- Created with Inkscape (http://www.inkscape.org/) -->

<svg
   width="10mm"
   height="10mm"
   viewBox="0 0 10 10"
   version="1.1"
   id="svg1"
   inkscape:version="1.3.2 (091e20e, 2023-11-25)"
   sodipodi:docname="EyeParticles.svg"
   xmlns:inkscape="http://www.inkscape.org/namespaces/inkscape"
   xmlns:sodipodi="http://sodipodi.sourceforge.net/DTD/sodipodi-0.dtd"
   xmlns="http://www.w3.org/2000/svg"
   xmlns:svg="http://www.w3.org/2000/svg">
  <sodipodi:namedview
     id="namedview1"
     pagecolor="#ffffff"
     bordercolor="#666666"
     borderopacity="1.0"
     inkscape:showpageshadow="2"
     inkscape:pageopacity="0.0"
     inkscape:pagecheckerboard="0"
     inkscape:deskcolor="#d1d1d1"
     inkscape:document-units="mm"
     inkscape:zoom="3.3638608"
     inkscape:cx="40.578374"
     inkscape:cy="16.647538"
     inkscape:window-width="1312"
     inkscape:window-height="449"
     inkscape:window-x="1722"
     inkscape:window-y="39"
     inkscape:window-maximized="0"
     inkscape:current-layer="layer1" />
  <defs
     id="defs1" />
  <g
     inkscape:label="Layer 1"
     inkscape:groupmode="layer"
     id="layer1">
    <path
       style="fill:#ffffff;fill-opacity:1;stroke:none;stroke-width:0.264582px;stroke-linecap:butt;stroke-linejoin:miter;stroke-opacity:1"
       d="m 4.3246911,1.5848122 c -1.246924,0.190292 -3.0807244,-1.04704022 -3.78408099,0 -0.5237221,0.779631 1.12218959,1.670929 1.06542059,2.608414 -0.044071,0.727797 -1.19944719,1.193682 -1.06542059,1.910389 0.1198983,0.641154 1.28843079,0.634286 1.50628439,1.249098 0.1668444,0.470859 -0.6708674,1.141734 -0.2939093,1.46953 0.7832482,0.681098 1.9555829,-1.360468 2.9390919,-1.02867 0.695155,0.234518 0.488739,1.957709 1.212375,1.836911 0.773437,-0.12911 -0.0861,-1.876887 0.587818,-2.277771 0.911295,-0.542087 2.533912,1.67674 3.086046,0.771503 0.7636439,-1.25201 -2.257307,-1.946573 -1.947148,-3.379916 0.176194,-0.814249 1.393348,-0.125114 1.322591,-0.955194 -0.08274,-0.970716 -1.462381,0.07492 -1.87367,-0.80824 -0.372303,-0.79945 0.761435,-1.6482163 0.183693,-2.31450932 -0.672422,-0.7754829 -1.92442,0.76360732 -2.939091,0.91845532 z"
       id="path1"
       sodipodi:nodetypes="sssssssssssssss" />
  </g>
</svg>
