<?xml version="1.0" encoding="UTF-8" standalone="no"?>
<!-- Created with Inkscape (http://www.inkscape.org/) -->

<svg
   width="210mm"
   height="297mm"
   viewBox="0 0 210 297"
   version="1.1"
   id="svg1"
   xml:space="preserve"
   inkscape:version="1.3.2 (091e20e, 2023-11-25)"
   sodipodi:docname="Hunter.svg"
   xmlns:inkscape="http://www.inkscape.org/namespaces/inkscape"
   xmlns:sodipodi="http://sodipodi.sourceforge.net/DTD/sodipodi-0.dtd"
   xmlns:xlink="http://www.w3.org/1999/xlink"
   xmlns="http://www.w3.org/2000/svg"
   xmlns:svg="http://www.w3.org/2000/svg"><sodipodi:namedview
     id="namedview1"
     pagecolor="#ffffff"
     bordercolor="#666666"
     borderopacity="1.0"
     inkscape:showpageshadow="2"
     inkscape:pageopacity="0.0"
     inkscape:pagecheckerboard="0"
     inkscape:deskcolor="#d1d1d1"
     inkscape:document-units="mm"
     inkscape:zoom="0.4204826"
     inkscape:cx="926.31656"
     inkscape:cy="406.67556"
     inkscape:window-width="1920"
     inkscape:window-height="977"
     inkscape:window-x="1512"
     inkscape:window-y="25"
     inkscape:window-maximized="1"
     inkscape:current-layer="layer1" /><defs
     id="defs1"><linearGradient
       id="linearGradient7"
       inkscape:collect="always"><stop
         style="stop-color:#a7e5b1;stop-opacity:1;"
         offset="0"
         id="stop7" /><stop
         style="stop-color:#ffffff;stop-opacity:1;"
         offset="1"
         id="stop8" /></linearGradient><radialGradient
       inkscape:collect="always"
       xlink:href="#linearGradient7"
       id="radialGradient8"
       cx="160.98433"
       cy="72.473366"
       fx="160.98433"
       fy="72.473366"
       r="2.7853216"
       gradientTransform="matrix(0.96232106,-0.10608026,0.07123526,0.64621996,0.90306819,42.716889)"
       gradientUnits="userSpaceOnUse" /></defs><g
     inkscape:label="Layer 1"
     inkscape:groupmode="layer"
     id="layer1"><path
       style="fill:#000000;fill-opacity:1;stroke:#000000;stroke-width:0.264583px;stroke-linecap:butt;stroke-linejoin:miter;stroke-opacity:1"
       d="m 112.19911,78.90127 -5.11678,-5.784194 -2.8921,-6.006663 c 0,0 0.18279,-0.808649 -0.44494,-1.334813 -0.64799,-0.543142 -1.04923,-0.01922 -1.77975,-0.444939 -0.90906,-0.529766 -0.0591,-2.190738 -0.88988,-2.836479 -1.05386,-0.819211 -2.19569,-0.531432 -3.33703,-1.223579 -1.68038,-1.01904 -1.8406,-3.121557 -3.67074,-3.83759 -1.68744,-0.660203 -3.15003,0.542725 -4.94993,0.333703 -2.06359,-0.239645 -3.10101,-2.049437 -5.17241,-1.890985 -1.83291,0.140208 -2.17111,1.81192 -4.00444,1.946604 -1.61535,0.11867 -2.41674,-1.655193 -4.00444,-1.334816 -1.7288,0.348849 -1.39301,2.480049 -3.05894,3.05895 -1.54512,0.53692 -3.11903,-0.939833 -4.56062,-0.166853 -1.562019,0.837553 -0.61279,2.811229 -2.05784,3.837591 -1.256766,0.892672 -2.848815,-0.01911 -4.004441,1.001109 -1.518004,1.34014 -1.044996,3.897254 -2.113456,5.617343 -1.286412,2.070963 -3.391829,1.988579 -4.611183,4.099721 -1.022815,1.770863 -0.234026,4.016888 -1.00111,5.912589 -0.8485,2.09691 -3.155507,2.90808 -3.71817,5.09906 -0.446137,1.73723 0.829912,3.04975 0.247823,4.74627 -0.510526,1.48795 -2.009233,1.82161 -2.607462,3.27651 -1.088565,2.64741 1.016207,5.49748 0.312982,8.272231 -0.515283,2.03318 -2.548499,3.17788 -2.829931,5.25637 -0.21166,1.56319 0.632859,1.9763 0.284353,3.51478 -0.237699,1.04932 -0.878758,2.01687 -0.913591,3.09221 -0.03963,1.2235 1.032532,1.41182 1.237753,2.61864 0.173157,1.01826 -0.141076,1.86706 0.02072,2.88719 0.221017,1.3935 1.749159,2.24115 2.831568,3.14619 3.360131,2.80951 6.899076,7.89724 11.168962,6.9216 5.332078,-1.21835 8.492083,-8.38293 8.809323,-13.84322 0.20948,-3.60557 -3.165696,-5.82953 -3.303499,-9.43855 -0.120376,-3.15262 1.190171,-6.376181 3.618109,-8.022781 2.91056,-1.97391 6.57125,0.30101 10.53973,-0.47193 5.11181,-0.99563 8.97258,-6.12225 14.15784,-6.60699 4.8498,-0.45338 8.05293,4.30732 12.74206,2.98888 2.74867,-0.77284 6.34961,-3.84645 7.07891,-6.607 0.78125,-2.9572 -2.00745,-7.776159 -2.00745,-7.776159 z"
       id="path9"
       sodipodi:nodetypes="cccsssssssssssssssssssssssssasssassssc" /><path
       style="fill:#000000;fill-opacity:1;stroke:#000000;stroke-width:0.264583px;stroke-linecap:butt;stroke-linejoin:miter;stroke-opacity:1"
       d="m 76.866441,109.84358 -4.876588,11.7982 c 5.824191,16.58251 20.234152,29.2624 32.091107,43.10275 0,0 2.97401,3.39337 5.0339,3.93274 2.36027,0.61802 7.23622,-1.10117 7.23622,-1.10117 1.73996,-0.26478 -17.241715,-30.40312 -27.843755,-58.67637 z"
       id="path10"
       sodipodi:nodetypes="cccsscc" /><path
       style="fill:#000000;fill-opacity:1;stroke:#000000;stroke-width:0.264583px;stroke-linecap:butt;stroke-linejoin:miter;stroke-opacity:1"
       d="m 72.237392,219.54136 c -1.202626,1.25895 7.865467,6.13506 7.865467,6.13506 l 4.247347,-4.87658 c 5.19589,-15.60134 15.979194,-26.25297 25.169504,-38.65877 l -7.07892,-5.70246 c 0,0 -5.494424,2.15702 -6.764304,4.56197 -2.2285,4.22043 -17.95895,32.80397 -23.439094,38.54078 z"
       id="path11"
       sodipodi:nodetypes="sccccss" /><path
       style="fill:#000000;fill-opacity:1;stroke:#000000;stroke-width:0.264583px;stroke-linecap:butt;stroke-linejoin:miter;stroke-opacity:1"
       d="m 95.149778,233.85572 c 0,0 -5.614824,-2.05426 -6.567664,1.21914 -0.425799,1.4628 1.527678,1.98477 2.962524,3.93143 6.560762,8.90104 21.553282,31.16847 21.066472,33.86214 l -1.38848,7.68291 c 0,0 -1.41853,2.60283 -0.97116,5.37375 0.16337,1.01187 5.43185,0.0913 5.43185,0.0913 l 9.413,0.15821 3.87496,0.0651 c 1.20273,0.0202 -0.42978,-0.52449 -0.64376,-0.7871 -11.44013,-14.03979 -21.13876,-28.77494 -26.72425,-45.06873 -0.50779,-1.48129 0.0373,-3.05645 -0.90833,-4.83711 -0.84949,-1.59956 -5.545162,-1.69104 -5.545162,-1.69104 z"
       id="path12"
       sodipodi:nodetypes="cssscsccssssc" /><path
       style="fill:#000000;fill-opacity:1;stroke:#000000;stroke-width:0.264583px;stroke-linecap:butt;stroke-linejoin:miter;stroke-opacity:1"
       d="m 37.248439,186.67219 c -0.763754,2.7577 -0.270252,6.6558 2.045023,8.33739 2.297325,1.66855 7.503922,2.03161 8.494702,-0.62924 4.867885,-13.07325 14.582094,-30.4178 17.304024,-45.14777 0.82721,-4.47653 -1.43023,-10.75229 -5.66313,-12.42744 -5.00706,-1.98153 -16.09565,0.87468 -14.944389,6.13507 4.419509,20.1938 -4.738004,34.7116 -7.23623,43.73199 z"
       id="path13"
       sodipodi:nodetypes="sssssss" /><path
       style="fill:#000000;fill-opacity:1;stroke:#000000;stroke-width:0.264583px;stroke-linecap:butt;stroke-linejoin:miter;stroke-opacity:1"
       d="m 57.841933,192.65813 c -10.762519,10.1279 -26.222969,21.78274 -35.150096,30.03331 -2.084452,1.92648 0.196162,7.12108 2.892097,8.00888 2.285624,0.75268 4.684876,-1.9936 6.00666,-4.00444 7.734076,-11.76593 21.682274,-19.52375 34.70516,-26.47381 2.255893,-1.20393 -0.198589,-5.78153 -2.224688,-7.34147 -1.646285,-1.26751 -4.716044,-1.64634 -6.229133,-0.22247 z"
       id="path14"
       sodipodi:nodetypes="sssssss" /><path
       style="fill:#000000;fill-opacity:1;stroke:#000000;stroke-width:0.264583px;stroke-linecap:butt;stroke-linejoin:miter;stroke-opacity:1"
       d="m 42.00622,280.85031 c 2.361798,-15.80174 -1.587124,-27.82127 -0.314619,-49.0805 0.121908,-2.03666 3.571073,-3.32202 5.505826,-2.67426 2.512888,0.84132 5.041718,4.8438 3.618113,7.07892 -3.694682,5.80081 -7.04169,26.854 -4.876588,44.51855 0.511337,4.17188 12.347905,9.05244 8.180086,9.59585 -2.998102,0.3909 -12.048525,1.07603 -14.47246,0.15733 -1.707125,-0.64702 1.872727,-6.33816 2.359642,-9.59589 z"
       id="path15"
       sodipodi:nodetypes="ssssssss" /><path
       style="fill:#000000;fill-opacity:1;stroke:#000000;stroke-width:0.264584px;stroke-linecap:butt;stroke-linejoin:miter;stroke-opacity:1"
       d="m 118.35183,107.97941 c -0.35747,31.89441 8.36141,24.43453 4.66247,56.16254 -0.56448,4.84188 0.95852,13.07347 4.88007,14.56816 3.87024,1.47512 5.44101,-6.36856 4.48119,-11.32481 -4.84512,-25.0188 -0.7025,-22.10292 -3.41734,-61.59768 -0.36819,-5.35645 -1.40808,-9.057212 -5.5185,-8.780196 -5.01611,0.338053 -5.01625,4.579666 -5.08789,10.971986 z"
       id="path16"
       sodipodi:nodetypes="sssssss"
       inkscape:transform-center-x="-2.0457801"
       inkscape:transform-center-y="33.536232" /><path
       style="fill:#000000;fill-opacity:1;stroke:#000000;stroke-width:0.264583px;stroke-linecap:butt;stroke-linejoin:miter;stroke-opacity:1"
       d="m 133.51224,187.90164 c -1.53561,1.03869 -1.35006,4.27137 -0.0188,5.56169 1.51544,1.46893 4.79324,1.23015 6.32779,-0.21881 8.95876,-8.45907 15.96425,-16.32441 26.13285,-24.01968 1.83692,-1.39012 2.93312,-4.91563 1.52673,-6.74011 -1.44945,-1.88036 -6.52024,-2.54423 -7.1182,-0.24661 -4.1615,15.99007 -21.34669,21.94091 -26.85032,25.66352 z"
       id="path17"
       sodipodi:nodetypes="sssssss"
       inkscape:transform-center-x="-19.259605"
       inkscape:transform-center-y="55.856911" /><g
       id="g24"
       inkscape:transform-center-x="-47.017819"
       inkscape:transform-center-y="75.138444"
       transform="rotate(-16.731624,262.85011,129.18919)"><g
         id="g19"><path
           style="fill:#000000;fill-opacity:1;stroke:#000000;stroke-width:0.264583px;stroke-linecap:butt;stroke-linejoin:miter;stroke-opacity:1"
           d="m 156.14125,222.88297 c -0.17505,1.84563 2.43763,3.75834 4.28001,3.55166 1.05112,-0.11791 3.38757,-0.51649 3.77371,-0.92661 0.82215,-0.87322 0.1527,-3.04534 0.0817,-4.09576 -0.0898,-1.32944 -1.94055,-2.40329 -2.19349,-4.26944 -2.08603,-15.39009 -7.31316,-47.39629 -6.84182,-58.75961 0.0955,-2.30165 -1.92804,-5.38974 -4.23044,-5.46474 -2.3729,-0.0773 -6.11012,3.41365 -4.71732,5.33634 9.69306,13.38077 10.475,58.01347 9.8476,64.62816 z"
           id="path18"
           sodipodi:nodetypes="sssssssss" /></g><path
         style="fill:#000000;fill-opacity:1;stroke:#000000;stroke-width:0.264583px;stroke-linecap:butt;stroke-linejoin:miter;stroke-opacity:1"
         d="m 157.49906,221.13406 3.90916,-0.89638 -0.21553,4.66422 c 0,0 -3.69167,2.5483 -5.78528,2.45972 -2.85271,-0.12069 -7.57162,-4.00539 -7.57162,-4.00539 0,0 4.93689,1.93895 7.17341,1.0265 1.26327,-0.51539 2.48986,-3.24867 2.48986,-3.24867 z"
         id="path19"
         sodipodi:nodetypes="cccscsc" /></g><path
       style="fill:#000000;fill-opacity:1;stroke:#000000;stroke-width:0.264584px;stroke-linecap:butt;stroke-linejoin:miter;stroke-opacity:1"
       d="m 41.690991,10.047694 c -19.19325,25.47547 -7.74934,24.63548 -29.53514,47.99629 -3.3246498,3.565 -6.9773058,11.09738 -4.7049108,14.62567 2.242671,3.48213 8.1570808,-1.90399 10.3218608,-6.46463 10.92765,-23.02178 12.53568,-18.21784 33.75963,-51.63564 2.87849,-4.53228 4.23461,-8.12922 0.75993,-10.34255 -4.2403,-2.701036 -6.75463,0.71503 -10.60137,5.82086 z"
       id="path24"
       sodipodi:nodetypes="sssssss"
       inkscape:transform-center-x="13.383445"
       inkscape:transform-center-y="28.186132" /><path
       style="fill:#000000;fill-opacity:1;stroke:#000000;stroke-width:0.264583px;stroke-linecap:butt;stroke-linejoin:miter;stroke-opacity:1"
       d="m 36.972391,49.815433 c -1.85245,-0.0737 -3.61917,2.63985 -3.311861,4.46814 0.349807,2.08133 3.131241,3.83194 5.226021,3.57456 12.22937,-1.50254 22.53367,-3.6847 35.2847,-3.85496 2.303428,-0.0307 5.276038,-2.22038 5.224808,-4.52343 -0.0524,-2.37358 -3.74324,-5.91395 -5.586748,-4.41792 -12.8297,10.41149 -30.1978,5.01773 -36.83692,4.75361 z"
       id="path25"
       sodipodi:nodetypes="sssssss"
       inkscape:transform-center-x="13.675585"
       inkscape:transform-center-y="56.077305" /><g
       id="g27"
       transform="rotate(19.620656,344.97494,-216.12038)"
       inkscape:transform-center-x="6.0955682"
       inkscape:transform-center-y="87.459438"><g
         id="g26"><path
           style="fill:#000000;fill-opacity:1;stroke:#000000;stroke-width:0.264583px;stroke-linecap:butt;stroke-linejoin:miter;stroke-opacity:1"
           d="m 156.14125,222.88297 c -0.17505,1.84563 2.43763,3.75834 4.28001,3.55166 1.05112,-0.11791 3.38757,-0.51649 3.77371,-0.92661 0.82215,-0.87322 0.1527,-3.04534 0.0817,-4.09576 -0.0898,-1.32944 -1.94055,-2.40329 -2.19349,-4.26944 -2.08603,-15.39009 -7.31316,-47.39629 -6.84182,-58.75961 0.0955,-2.30165 -1.92804,-5.38974 -4.23044,-5.46474 -2.3729,-0.0773 -6.11012,3.41365 -4.71732,5.33634 9.69306,13.38077 10.475,58.01347 9.8476,64.62816 z"
           id="path26"
           sodipodi:nodetypes="sssssssss" /></g><path
         style="fill:#000000;fill-opacity:1;stroke:#000000;stroke-width:0.264583px;stroke-linecap:butt;stroke-linejoin:miter;stroke-opacity:1"
         d="m 157.49906,221.13406 3.90916,-0.89638 -0.21553,4.66422 c 0,0 -3.69167,2.5483 -5.78528,2.45972 -2.85271,-0.12069 -7.57162,-4.00539 -7.57162,-4.00539 0,0 4.93689,1.93895 7.17341,1.0265 1.26327,-0.51539 2.48986,-3.24867 2.48986,-3.24867 z"
         id="path27"
         sodipodi:nodetypes="cccscsc" /></g><g
       id="g39"
       transform="translate(3.7754237,-11.64089)"><g
         id="g38"><path
           style="fill:#000000;fill-opacity:1;stroke:none;stroke-width:0.264583px;stroke-linecap:butt;stroke-linejoin:miter;stroke-opacity:1"
           d="m 160.92743,83.334613 1.37646,3.342822 2.55628,-0.461225 0.62924,2.545575 2.90742,-0.984823 0.94665,1.732041 2.12648,-0.801684 1.7276,1.66688 1.17982,-1.927039 0.0393,-2.202331 c 0,0 0.48345,1.453743 0.98318,2.005695 0.51762,0.571703 1.96637,1.219147 1.96637,1.219147 0,0 -1.11277,-1.021264 -1.41578,-1.691074 -0.35534,-0.785481 -0.39328,-2.556277 -0.39328,-2.556277 l 2.35964,0.314619 c 0,0 0.17718,1.554078 -0.11798,2.241658 -0.13534,0.315277 -0.70789,0.747218 -0.70789,0.747218 0,0 1.25162,-0.39954 1.6422,-0.870791 0.57726,-0.696498 0.12755,-2.157413 0.12755,-2.157413 l 4.60129,0.865201 c 0,0 -0.0889,1.160378 -0.47192,1.533765 -0.2437,0.237566 -0.98319,0.275291 -0.98319,0.275291 0,0 0.94195,0.815503 1.45511,0.668566 0.61869,-0.177153 1.06184,-1.612422 1.06184,-1.612422 l 1.14049,1.022512 c 0,0 -0.68619,0.609726 -1.10116,0.786545 -0.39264,0.167304 -1.25847,0.235966 -1.25847,0.235966 0,0 0.66732,0.932066 1.17982,1.022509 0.76002,0.134126 2.163,-0.825873 2.163,-0.825873 l 0.11798,1.297802 c 0,0 -0.75202,0.484943 -1.17982,0.511255 -0.46371,0.02852 -1.33713,-0.393274 -1.33713,-0.393274 0,0 0.23735,1.191432 0.70789,1.455113 0.71234,0.399179 2.4383,-0.235964 2.4383,-0.235964 l 0.11798,-3.500133 -5.4665,-4.050715 -8.25874,-0.904528 -10.97232,-1.92704 z"
           id="path28"
           sodipodi:nodetypes="ccccccccccscsccscsccscsccscsccscscccccc" /><g
           id="g37"><path
             style="fill:#000000;fill-opacity:1;stroke:#000000;stroke-width:0.264583px;stroke-linecap:butt;stroke-linejoin:miter;stroke-opacity:1"
             d="m 163.54147,71.532335 c 0,0 -2.35665,-4.162446 -2.69561,-6.509295 -0.27238,-1.88585 0.58423,-5.721738 0.58423,-5.721738 4.99239,-2.76599 6.20665,-1.749824 9.4211,-0.942107 -3.92395,-1.752068 -7.85131,-4.427705 -11.75613,-1.005518 l -4.01835,-7.209513 c 0,0 0.24031,-2.82083 1.20126,-3.633233 0.99859,-0.844226 3.80237,-0.494407 3.80237,-0.494407 0,0 -2.12703,-2.329074 -3.55942,-2.460258 -1.24741,-0.114243 -3.49387,1.538656 -3.49387,1.538656 l -0.61124,-6.862819 c 0.0675,0.128728 5.2136,-1.213456 7.15355,-0.482254 5.6078,2.11368 8.15193,6.866575 12.36545,9.459779 2.72536,1.677322 4.04324,0.996837 6.53171,1.407838 l -4.75586,-2.805618 c -6.34291,-3.741858 -11.53863,-11.409435 -20.61228,-13.113897 0,0 1.10619,-3.220438 2.39865,-4.083595 2.42723,-1.621039 8.53413,-1.038937 8.53413,-1.038937 6.80741,-0.828724 22.99657,9.993316 29.41058,14.857608 1.02013,0.773647 3.893,0.248152 3.893,0.248152 -2.56587,-0.448796 -3.35424,-1.543605 -4.46761,-2.483611 -5.24233,-4.426077 -2.75489,-5.898949 -21.0037,-15.455677 0.0968,-0.335473 5.24928,-1.807277 7.4912,-1.233077 1.86645,0.478035 3.92716,-0.134327 3.92716,-0.134327 0,0 -21.89804,-6.367039 -31.86095,-0.712743 -3.34618,1.899075 -3.43412,7.247473 -3.82935,11.152985 -0.38308,3.785418 0.56322,7.597773 1.47893,11.252475 1.37275,5.478833 4.45385,10.841611 7.16322,14.803689 1.07465,1.571528 0.19593,3.923393 -0.16196,5.84363 -0.42507,2.280709 -2.32424,6.562322 -2.32424,6.562322 z"
             id="path8"
             sodipodi:nodetypes="csccccscsccsscscssscscscssssscc" /><path
             style="fill:#000000;fill-opacity:1;stroke:#000000;stroke-width:0.264583px;stroke-linecap:butt;stroke-linejoin:miter;stroke-opacity:1"
             d="m 155.06088,74.749574 c -4.83524,-4.053464 -11.28269,-5.41993 -14.46049,-12.235793 0,0 -0.2217,5.99633 1.44605,8.453822 2.10569,3.10281 9.23246,5.116786 9.23246,5.116786 z"
             id="path4"
             sodipodi:nodetypes="ccscc" /><path
             style="fill:#000000;fill-opacity:1;stroke:#000000;stroke-width:0.264583px;stroke-linecap:butt;stroke-linejoin:miter;stroke-opacity:1"
             d="m 152.39125,70.077726 c -2.5934,-2.639327 -5.21469,-5.258734 -5.7842,-9.343697 0,0 -1.82344,4.533728 -1.11234,6.67407 0.77721,2.33934 5.33925,5.116787 5.33925,5.116787 z"
             id="path5"
             sodipodi:nodetypes="ccscc" /><path
             style="fill:#000000;fill-opacity:1;stroke:#000000;stroke-width:0.264583px;stroke-linecap:butt;stroke-linejoin:miter;stroke-opacity:1"
             d="m 158.88241,67.32839 c 0,0 -3.67073,-3.440834 -4.71928,-5.663136 -0.84258,-1.785767 -1.10116,-5.820444 -1.10116,-5.820444 4.32663,-4.157136 5.88191,-3.499382 9.43856,-3.618116 -4.56982,-0.612033 -9.4182,-2.135692 -12.42744,2.359641 l -6.29237,-5.977755 c 0,0 -0.59211,-2.85588 0.15731,-3.932732 0.77877,-1.11903 3.77542,-1.573094 3.77542,-1.573094 0,0 -2.88789,-1.694723 -4.40466,-1.415785 -1.32088,0.242914 -3.14619,2.516949 -3.14619,2.516949 l -2.67425,-6.606989 c 0.10795,0.107949 5.01717,-2.686135 7.23623,-2.51695 6.41462,0.489063 10.45459,4.459859 15.57362,5.820445 3.31106,0.880047 4.46799,-0.16826 7.15757,-0.471929 l -5.74179,-1.415784 c -7.65784,-1.888232 -15.30124,-7.982787 -25.16949,-7.078919 0,0 0.18218,-3.497722 1.25847,-4.71928 2.02129,-2.294116 8.49471,-3.460805 8.49471,-3.460805 6.77596,-2.760573 26.69992,3.315313 34.76536,6.292373 1.28278,0.473489 4.09004,-0.865201 4.09004,-0.865201 -2.78069,0.288401 -3.92002,-0.568542 -5.34852,-1.179819 -6.72621,-2.878247 -4.59869,-5.043127 -26.27065,-9.281251 0,-0.359111 4.87714,-3.283078 7.36096,-3.355161 2.06784,-0.06001 4.01139,-1.252884 4.01139,-1.252884 0,0 -24.48678,-0.04543 -33.08104,8.383469 -2.8865,2.830964 -1.38453,8.140943 -0.62924,12.112817 0.73207,3.849739 2.84358,7.346916 4.87659,10.697035 3.04772,5.02223 7.82326,9.442507 11.7982,12.584745 1.57663,1.246344 1.37047,3.820925 1.57309,5.820444 0.24066,2.374873 -0.44357,7.147354 -0.44357,7.147354 z"
             id="path6"
             sodipodi:nodetypes="csccccscsccsscscssscscscssssscc" /><path
             id="path3"
             style="fill:#000000;fill-opacity:1;stroke:#000000;stroke-width:0.264583px;stroke-linecap:butt;stroke-linejoin:miter;stroke-opacity:1"
             d="m 158.62029,64.515959 c -1.35773,0.0089 -9.78076,2.816082 -10.67842,3.559472 -0.94302,0.780958 -5.78155,5.761005 -6.4518,10.011276 -0.636,4.033084 0.88987,12.01322 0.88987,12.01322 0,0 -5.2179,3.172447 -6.45129,5.784143 -1.48969,3.154427 -0.44493,10.45621 -0.44493,10.45621 l 6.25181,1.41645 c 0,0 4.04464,-1.37209 6.44974,-3.30316 1.68585,-1.35358 4.4179,-1.0203 5.97793,-2.51716 1.42176,-1.36419 0.80975,-4.364167 2.51664,-5.348507 3.58776,-2.069013 9.86528,-0.412749 15.41663,0 3.01666,0.224292 6.70833,4.697617 7.55096,5.033797 0.77388,0.30875 4.34123,0.42355 4.81108,0.18449 0.67215,-0.34198 3.36878,-4.274159 3.36878,-4.274159 l -3.46077,1.887224 1.57303,-2.516643 c 0,0 -2.29187,2.263279 -2.9099,2.516643 -0.66819,0.273927 -3.76812,-0.300858 -4.32635,-0.628903 -0.57871,-0.34008 -1.71521,-3.838294 -2.20245,-4.404899 -0.52945,-0.61571 -15.73082,-5.34851 -15.73082,-5.34851 l -1.88774,-3.146062 c 0,0 3.07994,-3.458827 5.0338,-3.146061 1.61757,0.258934 2.72176,3.434367 3.14658,3.77548 0.39424,0.316564 6.02445,1.526781 6.60683,1.258321 0.76029,-0.350474 1.63608,-1.905826 1.63608,-1.905826 0,0 4.98104,0.179933 7.34167,0.889868 0.95276,0.286531 2.3826,0.999597 2.6696,1.334802 0.30369,0.354702 1.4642,4.405353 1.77974,4.672066 0.13611,0.115045 3.33675,0.66766 3.33675,0.66766 0,0 -1.52423,-1.821551 -2.00195,-2.89233 -0.65223,-1.461918 -0.855,-4.454464 -1.11259,-4.672066 -0.25759,-0.217603 -1.45564,-0.03387 -2.00195,-0.444934 -0.74247,-0.558663 -1.3348,-2.44688 -1.3348,-2.44688 0,0 2.65777,0.12845 2.66961,0 0.0153,-0.165612 -1.56438,-2.530909 -3.18431,-2.961576 -1.21107,-0.321973 -1.65468,-0.152962 -1.65468,-0.152962 0,0 -3.70346,-2.755202 -5.61722,-4.227132 -1.74472,-1.341909 -4.3031,-4.345988 -4.3031,-4.345988 -0.15078,0.107701 -1.77519,-0.07988 -2.37091,-0.548287 -0.31332,-0.246348 -1.21785,0.473631 -2.00247,-0.222209 -2.81122,-2.493133 -7.8762,-6.01359 -8.89868,-6.006868 z m 12.34705,9.677445 c 3.39508,1.905156 6.47236,4.382033 9.34362,7.23005 0,0 -3.79252,-1.696922 -5.48856,-3.05046 -1.55147,-1.238166 -3.85506,-4.17959 -3.85506,-4.17959 z" /><path
             style="fill:url(#radialGradient8);fill-opacity:1;stroke:none;stroke-width:0.264583px;stroke-linecap:butt;stroke-linejoin:miter;stroke-opacity:1"
             d="m 163.60169,72.047668 c -0.36035,-1.264764 -2.32009,-1.784355 -3.61811,-1.573093 -0.6963,0.113328 -1.37825,0.737766 -1.5731,1.415785 -0.21088,0.733786 0.0197,1.742563 0.62924,2.202331 0.83725,0.63154 2.21725,0.486723 3.14619,0 0.73439,-0.384788 1.64296,-1.247663 1.41578,-2.045023 z"
             id="path7"
             sodipodi:nodetypes="ssssss" /><path
             style="fill:#000000;fill-opacity:1;stroke:none;stroke-width:0.264584px;stroke-linecap:butt;stroke-linejoin:miter;stroke-opacity:1"
             d="m 193.66831,41.986684 -1.00111,14.770054 0.3337,-15.041271 -0.77864,11.672618 0.11123,-12.151742 -0.44493,4.94744 -0.22247,-5.21867 -0.3337,3.60663 -0.33371,-3.877848 1.08275,-0.783624 3.42148,2.640006 -0.39328,4.372972 -0.0393,-2.833684 -0.62924,4.791613 -0.15731,-5.895298 -0.51125,7.559224 z"
             id="path31" /><path
             style="fill:#000000;fill-opacity:1;stroke:none;stroke-width:0.264583px;stroke-linecap:butt;stroke-linejoin:miter;stroke-opacity:1"
             d="m 172.12582,45.256624 0.16686,6.521326 0.22247,-5.459714 0.27808,9.706156 0.27809,-9.857817 0.11123,12.73933 0.27809,-11.222741 0.11123,9.251179 0.27809,-8.189568 0.11123,10.919429 0.33371,-10.464454 0.16685,5.914691 0.38932,-5.308054 0.16685,4.549763 0.27809,-4.853084 0.16685,3.488151 0.27809,-4.549758 z"
             id="path32" /><path
             style="fill:#000000;fill-opacity:1;stroke:none;stroke-width:0.264583px;stroke-linecap:butt;stroke-linejoin:miter;stroke-opacity:1"
             d="m 178.5755,22.368119 0.16686,2.391542 0.22247,-2.002221 0.27808,3.559503 0.27809,-3.615121 0.11123,4.671848 0.27809,-4.115675 0.11123,3.392651 0.27809,-3.00333 0.11123,4.004442 0.33371,-3.837591 0.16685,2.169073 0.38932,-1.946603 0.16685,1.668518 0.27809,-1.779754 0.16685,1.279197 0.27809,-1.668516 z"
             id="path33" /><path
             id="path34"
             style="fill:#000000;fill-opacity:1;stroke:none;stroke-width:0.264583px;stroke-linecap:butt;stroke-linejoin:miter;stroke-opacity:1"
             d="m 158.85936,26.326863 -0.0253,0.503845 -0.047,-0.0093 -2.10943,0.83354 -1.04283,0.0067 0.0398,0.390157 -0.33538,0.132292 0.26406,0.500228 0.13126,-0.04134 0.37207,3.656624 0.39326,-1.549259 0.0786,1.639176 0.18397,-4.067969 0.0217,-0.0067 0.10904,3.484542 0.2837,-3.607532 0.0253,-0.0078 0.0403,-0.0083 0.24081,2.599324 0.1571,-1.756998 0.27543,1.514636 0.0393,-1.454692 0.35398,2.503723 0.11782,-2.738334 0.23617,1.344104 0.11885,-2.330607 0.0331,-0.0067 0.11059,-0.0078 0.0909,2.087728 0.19689,-1.261939 0.31471,2.00918 0.27543,-2.22157 0.0785,2.776058 0.19637,-2.723865 0.15762,4.090707 0.0785,-3.882967 0.1571,2.791044 0.21652,-3.7884 0.0708,-0.0052 0.0274,2.391585 0.23616,-2.228805 0.19637,2.148707 0.10852,-2.326473 0.0775,-0.0021 0.0501,1.886189 0.11783,-1.764233 0.27543,1.351855 0.11782,-1.276924 0.1571,1.491898 0.11834,-1.764233 -0.12403,5.17e-4 0.25684,-0.09095 -0.97927,-0.193786 -0.0186,-0.692465 -0.032,0.682646 -0.59118,-0.116789 -0.006,-0.523482 -0.0295,0.516248 -1.83606,-0.362769 z" /><path
             id="path35"
             style="fill:#000000;fill-opacity:1;stroke:none;stroke-width:0.264583px;stroke-linecap:butt;stroke-linejoin:miter;stroke-opacity:1"
             d="m 141.14185,34.552687 -0.0414,0.495091 -0.0485,0.0023 -2.2143,1.317356 -1.08247,0.25783 0.0296,0.369065 -0.35204,0.209221 0.25902,0.421843 0.13746,-0.07176 0.27626,3.459169 0.45441,-1.59837 0.0323,1.571916 0.31318,-3.992398 0.0227,-0.01173 0.008,3.355552 0.40284,-3.569569 0.0265,-0.01367 0.0421,-0.01777 0.17182,2.464669 0.21584,-1.743071 0.24034,1.40361 0.0845,-1.421284 0.29213,2.344611 0.20457,-2.686013 0.20471,1.247566 0.19338,-2.290553 0.0345,-0.01448 0.115,-0.03422 0.0316,2.004283 0.24226,-1.272194 0.26624,1.87411 0.35261,-2.222466 -0.002,2.675311 0.28564,-2.690902 0.0407,3.93214 0.19816,-3.78743 0.0792,2.670912 0.33856,-3.728914 0.0737,-0.02211 -0.0434,2.314486 0.31207,-2.220024 0.13923,2.038045 0.18254,-2.284051 0.0805,-0.02072 -0.005,1.818517 0.1753,-1.740628 0.24523,1.245627 0.16065,-1.26768 0.11821,1.41006 0.17584,-1.74075 -0.12874,0.03039 0.26929,-0.150169 -1.0105,0.04794 0.002,-0.667571 -0.0537,0.670236 -0.61004,0.02913 0.01,-0.506606 -0.0461,0.508141 -1.89462,0.09043 z" /><path
             style="fill:#000000;fill-opacity:1;stroke:none;stroke-width:0.264583px;stroke-linecap:butt;stroke-linejoin:miter;stroke-opacity:1"
             d="m 141.06895,18.806917 0.48521,6.566483 0.27365,-5.451755 0.77803,9.777122 0.26205,-9.859064 0.5448,12.800408 0.22604,-11.229027 0.45281,9.299382 0.30606,-8.184657 0.4968,10.973791 0.35045,-10.460913 0.46925,5.957607 0.59085,-5.278453 0.43368,4.587641 0.39405,-4.835858 0.40518,3.52211 0.40205,-4.531412 z"
             id="path36" /><path
             style="fill:#000000;fill-opacity:1;stroke:none;stroke-width:0.264583px;stroke-linecap:butt;stroke-linejoin:miter;stroke-opacity:1"
             d="m 160.70361,14.230262 0.10229,2.962924 0.20274,-2.59474 0.17593,4.400551 0.26765,-4.645993 0.0288,5.855716 0.27405,-5.277155 0.0452,4.242766 0.25983,-3.874584 0.0374,5.014175 0.31477,-4.944036 0.10514,2.682407 0.33489,-2.577209 0.11153,2.051262 0.24419,-2.331771 0.11651,1.560351 0.24275,-2.19149 z"
             id="path37" /></g></g><path
         style="fill:#000000;fill-opacity:1;stroke:none;stroke-width:0.264583px;stroke-linecap:butt;stroke-linejoin:miter;stroke-opacity:1"
         d="m 159.39902,89.210059 2.72525,-1.6129 2.61401,1.112345 1.05672,1.056727 2.16908,-0.778642 2.61401,1.223579 1.05672,1.334815 c 0,0 1.82573,-0.371656 2.72525,-0.611791 0.54388,-0.145194 1.2563,-0.06498 1.6129,-0.500554 0.46042,-0.562382 0.22247,-2.169073 0.22247,-2.169073 0,0 1.03021,1.753586 0.75083,2.80867 -0.38097,1.438748 -3.03114,3.086757 -3.03114,3.086757 0,0 2.76148,-0.116942 3.67074,-1.001109 0.45831,-0.445659 0.55617,-1.83537 0.55617,-1.83537 0,0 0.7681,1.889431 0.38932,2.725246 -0.42026,0.927347 -2.55839,1.668518 -2.55839,1.668518 l 2.22469,2.947712 1.9466,1.167963 1.72414,0.166852 c 0,0 0.0806,-0.860492 0,-1.279197 -0.0566,-0.294104 -0.33371,-0.834258 -0.33371,-0.834258 0,0 0.76499,0.45468 0.9455,0.834258 0.1992,0.418895 0.0556,1.390433 0.0556,1.390433 l 0.88988,-0.444939 c 0,0 -0.28965,-0.761077 -0.55617,-1.056727 -0.22378,-0.248239 -0.83426,-0.556173 -0.83426,-0.556173 0,0 1.07395,-0.260022 1.50167,0 0.4818,0.292896 0.77863,1.501664 0.77863,1.501664 l -0.3337,1.724135 -4.505,-0.44494 -4.8387,-4.504995 -16.74079,-5.506106 z"
         id="path29"
         sodipodi:nodetypes="cccccccsscscscsccccscsccscscccccc" /></g><path
       style="fill:#000000;fill-opacity:1;stroke:none;stroke-width:0.264583px;stroke-linecap:butt;stroke-linejoin:miter;stroke-opacity:1"
       d="m 166.67014,97.76964 -2.66963,0.889875 1.66852,1.835375 c 0,0 5.00766,0.80091 7.39709,1.6129 4.40506,1.49695 8.34166,4.13517 12.62512,5.95104 1.49631,0.63432 2.95694,1.4604 4.56061,1.72414 2.58098,0.42446 7.84203,-0.27809 7.84203,-0.27809 0,0 -4.43919,0.0237 -6.50721,-0.66741 -2.48477,-0.8304 -4.37674,-2.90798 -6.72969,-4.06006 -5.83487,-2.85693 -18.18684,-7.00777 -18.18684,-7.00777 z"
       id="path30"
       sodipodi:nodetypes="cccssscssc" /><path
       style="fill:#000000;fill-opacity:1;stroke:none;stroke-width:0.264584px;stroke-linecap:butt;stroke-linejoin:miter;stroke-opacity:1"
       d="m 134.66576,192.8806 1.00571,8.00889 -0.12733,-4.76719 0.54703,2.8603 0.31077,-2.66962 0.656,3.62306 -0.12955,-3.81374 0.77163,1.52549 0.004,-1.90687 0.66045,1.71619 0.19735,-1.52551 0.24738,0.76276 0.45139,-3.62306 -5.89335,-1.52551 -0.11785,3.051 0.7216,-0.76275 0.13176,2.86032 0.19734,-1.52551 0.68103,4.76719 z"
       id="path39" /><path
       style="fill:#000000;fill-opacity:1;stroke:none;stroke-width:0.264584px;stroke-linecap:butt;stroke-linejoin:miter;stroke-opacity:1"
       d="m 140.22373,191.32991 1.65971,6.27159 -0.31353,-4.56361 0.86155,1.90882 0.37116,-3.22893 1.03847,2.4829 -0.29044,-3.6021 1.14615,0.1724 -0.0468,-1.92223 0.99233,0.55983 0.24031,-1.87991 0.37499,0.33015 0.54608,-4.43429 -8.47482,8.85305 -0.0846,3.27197 1.01156,-2.03768 0.26735,2.64061 0.24031,-1.87989 1.10581,3.58788 z"
       id="path40" /><path
       style="fill:#000000;fill-opacity:1;stroke:none;stroke-width:0.264584px;stroke-linecap:butt;stroke-linejoin:miter;stroke-opacity:1"
       d="m 35.422438,54.626229 0.271256,7.083532 0.381973,-3.94064 0.313474,2.63972 0.654452,-1.983216 0.354513,3.322065 0.273655,-3.1687 0.720509,1.688607 0.216127,-1.544113 0.57116,1.778216 0.396766,-1.121712 0.200631,0.763323 0.922351,-2.674176 -6.62605,-4.685135 -0.474311,2.405381 0.916639,-0.196403 -0.16535,2.396779 0.396755,-1.121718 0.256464,4.264587 z"
       id="path41" /><path
       style="fill:#000000;fill-opacity:1;stroke:none;stroke-width:0.264584px;stroke-linecap:butt;stroke-linejoin:miter;stroke-opacity:1"
       d="m 42.003003,56.620379 1.218049,6.057228 0.144695,-3.884477 0.781669,2.052092 0.786124,-2.40148 0.921987,2.621175 0.06467,-3.091193 1.302433,0.810381 0.159257,-1.58629 1.082097,1.034589 0.485612,-1.383993 0.395758,0.48714 1.121515,-3.276677 -10.753805,2.221462 -0.460484,2.604039 1.392395,-1.060715 0.01536,2.297924 0.48561,-1.383976 0.877064,3.5567 z"
       id="path42" /><path
       style="fill:#000000;stroke:none;stroke-width:0.264583px;stroke-linecap:butt;stroke-linejoin:miter;stroke-opacity:1;fill-opacity:1"
       d="m 83.870804,94.549313 -2.002221,3.114567 -1.334815,-0.889876 -1.557282,3.781976 -0.222469,-2.669631 -0.667407,4.449381 -0.444939,-4.67185 -1.112345,3.11457 -0.667406,-2.892101 -0.889876,2.447161 -0.444937,-2.8921 -0.889875,1.334815 -1.112346,-2.224691 -0.444939,1.779752 -1.334812,-0.889876 -0.444939,1.557285 -0.889876,-3.114567 z"
       id="path43" /><path
       style="fill:#000000;fill-opacity:1;stroke:none;stroke-width:0.264583px;stroke-linecap:butt;stroke-linejoin:miter;stroke-opacity:1"
       d="m 97.77617,83.984152 -2.439003,4.533722 -1.376683,0.123986 -2.01127,4.854708 -0.01753,-2.443061 -1.099716,4.844512 -0.09115,-4.233955 -1.47135,3.87137 -0.482651,-2.329273 -1.17334,3.053618 -0.240738,-2.494861 -1.079844,1.966679 -1.022577,-1.345929 -0.633417,2.070277 -1.376679,0.123982 -0.614721,1.852897 -0.705874,-2.38107 z"
       id="path44" /></g></svg>
