<?xml version="1.0" encoding="UTF-8" standalone="no"?>
<!-- Created with Inkscape (http://www.inkscape.org/) -->

<svg
   width="500mm"
   height="250mm"
   viewBox="0 0 500 250"
   version="1.1"
   id="svg1"
   inkscape:version="1.3.2 (091e20e, 2023-11-25)"
   sodipodi:docname="HunterNest.svg"
   xmlns:inkscape="http://www.inkscape.org/namespaces/inkscape"
   xmlns:sodipodi="http://sodipodi.sourceforge.net/DTD/sodipodi-0.dtd"
   xmlns="http://www.w3.org/2000/svg"
   xmlns:svg="http://www.w3.org/2000/svg">
  <sodipodi:namedview
     id="namedview1"
     pagecolor="#ffffff"
     bordercolor="#666666"
     borderopacity="1.0"
     inkscape:showpageshadow="2"
     inkscape:pageopacity="0.0"
     inkscape:pagecheckerboard="0"
     inkscape:deskcolor="#d1d1d1"
     inkscape:document-units="mm"
     inkscape:zoom="0.4204826"
     inkscape:cx="1035.7147"
     inkscape:cy="487.53503"
     inkscape:window-width="1920"
     inkscape:window-height="977"
     inkscape:window-x="1512"
     inkscape:window-y="25"
     inkscape:window-maximized="1"
     inkscape:current-layer="g59" />
  <defs
     id="defs1" />
  <g
     inkscape:label="Layer 1"
     inkscape:groupmode="layer"
     id="layer1">
    <g
       id="g59">
      <g
         id="g60"
         transform="matrix(1.6195603,0,0,1.6205011,-122.24167,-201.02383)"
         style="stroke-width:0.617272">
        <path
           style="fill:#000000;fill-opacity:1;stroke:#000000;stroke-width:0.16332px;stroke-linecap:butt;stroke-linejoin:miter;stroke-opacity:1"
           d="m 107.2626,156.45107 c 6.21519,1.96312 13.94185,1.31219 20.13559,1.88771 2.33497,0.21696 3.92963,-3.02319 6.18114,-2.36755 2.34849,0.68388 3.48791,2.58648 2.55185,4.84632 -0.66189,1.59795 -2.89499,0.39456 -3.69909,1.92589 -0.83314,1.58663 2.11609,1.59079 1.2203,3.14291 -1.27548,2.21001 -2.68512,2.44657 -4.54752,0.7023 -1.53851,-1.44093 0.24862,-3.05772 -1.70668,-3.84521 -6.48001,-2.60979 -14.77756,-1.54951 -20.13559,-2.51695 -1.90299,-0.3436 -1.87206,4.06315 -3.77543,4.40466 -2.12552,0.38137 -5.26701,-1.02337 -5.66313,-3.14619 -0.300497,-1.61037 3.03476,-2.14105 3.14618,-3.77542 0.13459,-1.97415 -3.781221,-3.15983 -3.14618,-5.0339 0.57513,-1.69727 3.30941,-2.37519 5.0339,-1.88771 2.30129,0.65053 2.12424,4.94285 4.40466,5.66314 z"
           id="path1"
           sodipodi:nodetypes="sssssssssssssss" />
        <path
           style="fill:#000000;fill-opacity:1;stroke:#000000;stroke-width:0.16332px;stroke-linecap:butt;stroke-linejoin:miter;stroke-opacity:1"
           d="m 117.45328,163.88512 c 3.2744,5.63567 9.42624,10.35583 13.61889,14.95096 1.58059,1.73231 4.94103,0.40983 6.16458,2.41034 1.27626,2.08669 0.83802,4.26065 -1.37547,5.30159 -1.56517,0.73606 -2.40637,-1.65711 -4.03185,-1.06604 -1.68419,0.6124 0.49388,2.60087 -1.2134,3.14558 -2.43093,0.7756 -3.63257,0.002 -3.83554,-2.54201 -0.16766,-2.10124 2.24227,-2.09373 1.32651,-3.99234 -3.03489,-6.29213 -9.88445,-11.0939 -13.19529,-15.41626 -1.1759,-1.53516 -4.1196,1.74433 -5.75699,0.71554 -1.82849,-1.14887 -3.20588,-4.30245 -2.06974,-6.13888 0.86188,-1.3931 3.68545,0.45973 4.86808,-0.67383 1.4285,-1.36923 -0.66894,-4.88208 1.06226,-5.8404 1.56787,-0.86791 4.04616,0.47148 4.99321,1.99286 1.2638,2.03025 -1.75666,5.08511 -0.55525,7.15289 z"
           id="path2"
           sodipodi:nodetypes="sssssssssssssss" />
        <path
           style="fill:#000000;fill-opacity:1;stroke:#000000;stroke-width:0.16332px;stroke-linecap:butt;stroke-linejoin:miter;stroke-opacity:1"
           d="m 123.43703,164.53789 c 6.20382,-1.99876 12.12609,-7.00394 17.50885,-10.12153 2.02924,-1.17531 1.45294,-4.74033 3.66817,-5.50966 2.31067,-0.80247 4.34138,0.0888 4.88692,2.47322 0.38576,1.68604 -2.13167,1.99815 -1.90042,3.71223 0.23959,1.77599 2.64638,0.0715 2.81491,1.85561 0.23998,2.54035 -0.77184,3.54963 -3.30069,3.20602 -2.08873,-0.28378 -1.56804,-2.6368 -3.61815,-2.14649 -6.7942,1.62491 -12.94482,7.29442 -17.87324,9.60854 -1.75041,0.8219 0.82676,4.39662 -0.52721,5.77728 -1.512,1.5418 -4.8866,2.21581 -6.43887,0.71456 -1.17753,-1.13885 1.23424,-3.50293 0.37861,-4.89989 -1.03351,-1.68738 -4.91252,-0.38637 -5.48008,-2.28197 -0.51401,-1.71677 1.32256,-3.85287 3.01075,-4.4541 2.25287,-0.80232 4.59421,2.79955 6.87045,2.06618 z"
           id="path3"
           sodipodi:nodetypes="sssssssssssssss" />
        <path
           style="fill:#000000;fill-opacity:1;stroke:#000000;stroke-width:0.16332px;stroke-linecap:butt;stroke-linejoin:miter;stroke-opacity:1"
           d="m 133.22566,179.22084 c 6.20382,-1.99876 12.12609,-7.00394 17.50885,-10.12153 2.02924,-1.17531 1.45294,-4.74033 3.66817,-5.50966 2.31067,-0.80247 4.34138,0.0888 4.88692,2.47322 0.38576,1.68604 -2.13167,1.99815 -1.90042,3.71223 0.23959,1.77599 2.64638,0.0715 2.81491,1.85561 0.23998,2.54035 -0.77184,3.54963 -3.30069,3.20602 -2.08873,-0.28378 -1.56804,-2.6368 -3.61815,-2.14649 -6.7942,1.62491 -12.94482,7.29442 -17.87324,9.60854 -1.75041,0.8219 0.82676,4.39662 -0.52721,5.77728 -1.512,1.5418 -4.8866,2.21581 -6.43887,0.71456 -1.17753,-1.13885 1.23424,-3.50293 0.37861,-4.89989 -1.03351,-1.68738 -4.91252,-0.38637 -5.48008,-2.28197 -0.51401,-1.71677 1.32256,-3.85287 3.01075,-4.4541 2.25287,-0.80232 4.59421,2.79955 6.87045,2.06618 z"
           id="path4"
           sodipodi:nodetypes="sssssssssssssss" />
        <path
           style="fill:#000000;fill-opacity:1;stroke:#000000;stroke-width:0.16332px;stroke-linecap:butt;stroke-linejoin:miter;stroke-opacity:1"
           d="m 125.66171,189.00947 c 6.20382,-1.99876 12.12609,-7.00394 17.50885,-10.12153 2.02924,-1.17531 1.45294,-4.74033 3.66817,-5.50966 2.31067,-0.80247 4.34138,0.0888 4.88692,2.47322 0.38576,1.68604 -2.13167,1.99815 -1.90042,3.71223 0.23959,1.77599 2.64638,0.0715 2.81491,1.85561 0.23998,2.54035 -0.77184,3.54963 -3.30069,3.20602 -2.08873,-0.28378 -1.56804,-2.6368 -3.61815,-2.14649 -6.7942,1.62491 -12.94482,7.29442 -17.87324,9.60854 -1.75041,0.8219 0.82676,4.39662 -0.52721,5.77728 -1.512,1.5418 -4.8866,2.21581 -6.43887,0.71456 -1.17753,-1.13885 1.23424,-3.50293 0.37861,-4.89989 -1.03351,-1.68738 -4.91252,-0.38637 -5.48008,-2.28197 -0.51401,-1.71677 1.32256,-3.85287 3.01075,-4.4541 2.25287,-0.80232 4.59421,2.79955 6.87045,2.06618 z"
           id="path5"
           sodipodi:nodetypes="sssssssssssssss" />
        <path
           style="fill:#000000;fill-opacity:1;stroke:#000000;stroke-width:0.16332px;stroke-linecap:butt;stroke-linejoin:miter;stroke-opacity:1"
           d="m 131.4459,195.68354 c 6.20382,-1.99876 12.12609,-7.00394 17.50885,-10.12153 2.02924,-1.17531 1.45294,-4.74033 3.66817,-5.50966 2.31067,-0.80247 4.34138,0.0888 4.88692,2.47322 0.38576,1.68604 -2.13167,1.99815 -1.90042,3.71223 0.23959,1.77599 2.64638,0.0715 2.81491,1.85561 0.23998,2.54035 -0.77184,3.54963 -3.30069,3.20602 -2.08873,-0.28378 -1.56804,-2.6368 -3.61815,-2.14649 -6.7942,1.62491 -12.94482,7.29442 -17.87324,9.60854 -1.75041,0.8219 0.82676,4.39662 -0.52721,5.77728 -1.512,1.5418 -4.8866,2.21581 -6.43887,0.71456 -1.17753,-1.13885 1.23424,-3.50293 0.37861,-4.89989 -1.03351,-1.68738 -4.91252,-0.38637 -5.48008,-2.28197 -0.51401,-1.71677 1.32256,-3.85287 3.01075,-4.4541 2.25287,-0.80232 4.59421,2.79955 6.87045,2.06618 z"
           id="path6"
           sodipodi:nodetypes="sssssssssssssss" />
        <path
           style="fill:#000000;fill-opacity:1;stroke:#000000;stroke-width:0.16332px;stroke-linecap:butt;stroke-linejoin:miter;stroke-opacity:1"
           d="m 106.73259,184.40544 c 6.21201,-1.97315 12.15487,-6.95387 17.55044,-10.04924 2.03407,-1.16693 1.47247,-4.73429 3.69087,-5.49448 2.31395,-0.79294 4.34097,0.1067 4.87668,2.49335 0.37879,1.68762 -2.1399,1.98934 -1.91572,3.70437 0.23226,1.77695 2.64606,0.0824 2.80723,1.8672 0.22951,2.54132 -0.78647,3.54641 -3.31388,3.19238 -2.08754,-0.29239 -1.55715,-2.64325 -3.60927,-2.16139 -6.80084,1.59687 -12.97478,7.24097 -17.91271,9.53475 -1.75378,0.81467 0.80863,4.39999 -0.55103,5.77506 -1.51834,1.53554 -4.89569,2.19564 -6.44176,0.688 -1.17282,-1.1437 1.24868,-3.49781 0.39881,-4.89829 -1.02654,-1.69163 -4.910879,-0.40662 -5.470617,-2.30455 -0.506927,-1.71888 1.338435,-3.84738 3.029094,-4.44164 2.256153,-0.79303 4.582623,2.81847 6.861863,2.09448 z"
           id="path8"
           sodipodi:nodetypes="sssssssssssssss" />
        <path
           style="fill:#000000;fill-opacity:1;stroke:#000000;stroke-width:0.16332px;stroke-linecap:butt;stroke-linejoin:miter;stroke-opacity:1"
           d="m 112.28635,169.53429 c 5.30364,3.78864 12.85295,5.55865 18.56524,8.02104 2.15347,0.92829 4.67183,-1.66002 6.61029,-0.34035 2.02196,1.37651 2.51727,3.53818 0.92835,5.39787 -1.12354,1.31499 -2.87512,-0.5199 -4.1133,0.68778 -1.2829,1.25127 1.52051,2.16713 0.18872,3.36621 -1.89629,1.70734 -3.30984,1.49684 -4.54183,-0.73819 -1.01759,-1.84602 1.18187,-2.83101 -0.43414,-4.18448 -5.35553,-4.48551 -13.57432,-6.04273 -18.37068,-8.61945 -1.7035,-0.91516 -3.03662,3.28522 -4.95233,3.02148 -2.13928,-0.29453 -4.6925,-2.60176 -4.41284,-4.74304 0.21216,-1.62436 3.54806,-1.09779 4.15936,-2.61764 0.73839,-1.8358 -2.61893,-4.17412 -1.43555,-5.76001 1.07173,-1.43628 3.88164,-1.23554 5.3709,-0.23875 1.98738,1.3302 0.49184,5.35745 2.43781,6.74753 z"
           id="path9"
           sodipodi:nodetypes="sssssssssssssss" />
        <path
           style="fill:#000000;fill-opacity:1;stroke:#000000;stroke-width:0.16332px;stroke-linecap:butt;stroke-linejoin:miter;stroke-opacity:1"
           d="m 114.97422,188.86927 c 6.20688,1.98924 13.93621,1.3708 20.12747,1.97235 2.33404,0.22677 3.94231,-3.00664 6.19104,-2.34154 2.3456,0.69375 3.47701,2.60112 2.53146,4.85701 -0.66861,1.59515 -2.89662,0.38238 -3.70715,1.91032 -0.83981,1.58311 2.10937,1.59969 1.20707,3.14801 -1.28475,2.20463 -2.6951,2.43558 -4.55043,0.68318 -1.53244,-1.44739 0.26147,-3.05665 -1.69051,-3.85235 -6.46897,-2.63702 -14.7709,-1.61162 -20.12482,-2.60158 -1.90153,-0.3516 -1.88912,4.05524 -3.79392,4.38875 -2.1271,0.37242 -5.26266,-1.04551 -5.64985,-3.16998 -0.29371,-1.61161 3.04374,-2.12826 3.16203,-3.76216 0.14288,-1.97357 -3.7679,-3.17569 -3.12499,-5.04708 0.58226,-1.69484 3.31937,-2.36125 5.04179,-1.86653 2.29853,0.6602 2.10344,4.95174 4.38081,5.6816 z"
           id="path10"
           sodipodi:nodetypes="sssssssssssssss" />
        <path
           style="fill:#000000;fill-opacity:1;stroke:#000000;stroke-width:0.16332px;stroke-linecap:butt;stroke-linejoin:miter;stroke-opacity:1"
           d="m 122.28313,207.49848 c 6.4684,-0.80139 13.22333,-4.60873 19.09477,-6.66294 2.21347,-0.77442 2.3151,-4.38429 4.63523,-4.72509 2.42008,-0.35547 4.24791,0.90038 4.33719,3.34479 0.0631,1.72846 -2.4682,1.56352 -2.5621,3.29058 -0.0973,1.78943 2.58615,0.56591 2.41753,2.35001 -0.24008,2.54034 -1.42304,3.34224 -3.84277,2.53105 -1.99861,-0.66998 -1.04641,-2.88384 -3.15208,-2.78619 -6.9783,0.32357 -14.08198,4.74072 -19.35662,6.09078 -1.87338,0.47949 -0.0114,4.47365 -1.59999,5.57629 -1.77402,1.2313 -5.21515,1.26131 -6.45875,-0.50412 -0.94338,-1.33925 1.86851,-3.20975 1.28967,-4.74226 -0.69917,-1.85109 -4.75321,-1.29965 -4.95567,-3.26801 -0.18335,-1.78267 2.02081,-3.53696 3.79173,-3.81135 2.36327,-0.36616 3.98854,3.61051 6.36186,3.31646 z"
           id="path11"
           sodipodi:nodetypes="sssssssssssssss" />
        <path
           style="fill:#000000;fill-opacity:1;stroke:#000000;stroke-width:0.16332px;stroke-linecap:butt;stroke-linejoin:miter;stroke-opacity:1"
           d="m 134.10656,216.45542 c 6.20688,1.98924 13.93621,1.3708 20.12747,1.97235 2.33404,0.22677 3.94231,-3.00664 6.19104,-2.34154 2.3456,0.69375 3.47701,2.60112 2.53146,4.85701 -0.66861,1.59515 -2.89662,0.38238 -3.70715,1.91032 -0.83981,1.58311 2.10937,1.59969 1.20707,3.14801 -1.28475,2.20463 -2.6951,2.43558 -4.55043,0.68318 -1.53244,-1.44739 0.26147,-3.05665 -1.69051,-3.85235 -6.46897,-2.63702 -14.7709,-1.61162 -20.12482,-2.60158 -1.90153,-0.3516 -1.88912,4.05524 -3.79392,4.38875 -2.1271,0.37242 -5.26266,-1.04551 -5.64985,-3.16998 -0.29371,-1.61161 3.04374,-2.12826 3.16203,-3.76216 0.14288,-1.97357 -3.7679,-3.17569 -3.12499,-5.04708 0.58226,-1.69484 3.31937,-2.36125 5.04179,-1.86653 2.29853,0.6602 2.10344,4.95174 4.38081,5.6816 z"
           id="path12"
           sodipodi:nodetypes="sssssssssssssss" />
        <path
           style="fill:#000000;fill-opacity:1;stroke:#000000;stroke-width:0.16332px;stroke-linecap:butt;stroke-linejoin:miter;stroke-opacity:1"
           d="m 147.89964,227.57887 c 6.20688,1.98924 13.93621,1.3708 20.12747,1.97235 2.33404,0.22677 3.94231,-3.00664 6.19104,-2.34154 2.3456,0.69375 3.47701,2.60112 2.53146,4.85701 -0.66861,1.59515 -2.89662,0.38238 -3.70715,1.91032 -0.83981,1.58311 2.10937,1.59969 1.20707,3.14801 -1.28475,2.20463 -2.6951,2.43558 -4.55043,0.68318 -1.53244,-1.44739 0.26147,-3.05665 -1.69051,-3.85235 -6.46897,-2.63702 -14.7709,-1.61162 -20.12482,-2.60158 -1.90153,-0.3516 -1.88912,4.05524 -3.79392,4.38875 -2.1271,0.37242 -5.26266,-1.04551 -5.64985,-3.16998 -0.29371,-1.61161 3.04374,-2.12826 3.16203,-3.76216 0.14288,-1.97357 -3.7679,-3.17569 -3.12499,-5.04708 0.58226,-1.69484 3.31937,-2.36125 5.04179,-1.86653 2.29853,0.6602 2.10344,4.95174 4.38081,5.6816 z"
           id="path13"
           sodipodi:nodetypes="sssssssssssssss" />
        <path
           style="fill:#000000;fill-opacity:1;stroke:#000000;stroke-width:0.16332px;stroke-linecap:butt;stroke-linejoin:miter;stroke-opacity:1"
           d="m 168.36679,234.69788 c 6.20688,1.98924 13.93621,1.3708 20.12747,1.97235 2.33404,0.22677 3.94231,-3.00664 6.19104,-2.34154 2.3456,0.69375 3.47701,2.60112 2.53146,4.85701 -0.66861,1.59515 -2.89662,0.38238 -3.70715,1.91032 -0.83981,1.58311 2.10937,1.59969 1.20707,3.14801 -1.28475,2.20463 -2.6951,2.43558 -4.55043,0.68318 -1.53244,-1.44739 0.26147,-3.05665 -1.69051,-3.85235 -6.46897,-2.63702 -14.7709,-1.61162 -20.12482,-2.60158 -1.90153,-0.3516 -1.88912,4.05524 -3.79392,4.38875 -2.1271,0.37242 -5.26266,-1.04551 -5.64985,-3.16998 -0.29371,-1.61161 3.04374,-2.12826 3.16203,-3.76216 0.14288,-1.97357 -3.7679,-3.17569 -3.12499,-5.04708 0.58226,-1.69484 3.31937,-2.36125 5.04179,-1.86653 2.29853,0.6602 2.10344,4.95174 4.38081,5.6816 z"
           id="path14"
           sodipodi:nodetypes="sssssssssssssss" />
        <path
           style="fill:#000000;fill-opacity:1;stroke:#000000;stroke-width:0.16332px;stroke-linecap:butt;stroke-linejoin:miter;stroke-opacity:1"
           d="m 164.80729,218.68011 c 6.20688,1.98924 13.93621,1.3708 20.12747,1.97235 2.33404,0.22677 3.94231,-3.00664 6.19104,-2.34154 2.3456,0.69375 3.47701,2.60112 2.53146,4.85701 -0.66861,1.59515 -2.89662,0.38238 -3.70715,1.91032 -0.83981,1.58311 2.10937,1.59969 1.20707,3.14801 -1.28475,2.20463 -2.6951,2.43558 -4.55043,0.68318 -1.53244,-1.44739 0.26147,-3.05665 -1.69051,-3.85235 -6.46897,-2.63702 -14.7709,-1.61162 -20.12482,-2.60158 -1.90153,-0.3516 -1.88912,4.05524 -3.79392,4.38875 -2.1271,0.37242 -5.26266,-1.04551 -5.64985,-3.16998 -0.29371,-1.61161 3.04374,-2.12826 3.16203,-3.76216 0.14288,-1.97357 -3.7679,-3.17569 -3.12499,-5.04708 0.58226,-1.69484 3.31937,-2.36125 5.04179,-1.86653 2.29853,0.6602 2.10344,4.95174 4.38081,5.6816 z"
           id="path15"
           sodipodi:nodetypes="sssssssssssssss" />
        <path
           style="fill:#000000;fill-opacity:1;stroke:#000000;stroke-width:0.16332px;stroke-linecap:butt;stroke-linejoin:miter;stroke-opacity:1"
           d="m 170.14655,181.30532 c 6.20688,1.98924 13.93621,1.3708 20.12747,1.97235 2.33404,0.22677 3.94231,-3.00664 6.19104,-2.34154 2.3456,0.69375 3.47701,2.60112 2.53146,4.85701 -0.66861,1.59515 -2.89662,0.38238 -3.70715,1.91032 -0.83981,1.58311 2.10937,1.59969 1.20707,3.14801 -1.28475,2.20463 -2.6951,2.43558 -4.55043,0.68318 -1.53244,-1.44739 0.26147,-3.05665 -1.69051,-3.85235 -6.46897,-2.63702 -14.7709,-1.61162 -20.12482,-2.60158 -1.90153,-0.3516 -1.88912,4.05524 -3.79392,4.38875 -2.1271,0.37242 -5.26266,-1.04551 -5.64985,-3.16998 -0.29371,-1.61161 3.04374,-2.12826 3.16203,-3.76216 0.14288,-1.97357 -3.7679,-3.17569 -3.12499,-5.04708 0.58226,-1.69484 3.31937,-2.36125 5.04179,-1.86653 2.29853,0.6602 2.10344,4.95174 4.38081,5.6816 z"
           id="path16"
           sodipodi:nodetypes="sssssssssssssss" />
        <path
           style="fill:#000000;fill-opacity:1;stroke:#000000;stroke-width:0.16332px;stroke-linecap:butt;stroke-linejoin:miter;stroke-opacity:1"
           d="m 163.91742,198.21296 c 6.20688,1.98924 13.93621,1.3708 20.12747,1.97235 2.33404,0.22677 3.94231,-3.00664 6.19104,-2.34154 2.3456,0.69375 3.47701,2.60112 2.53146,4.85701 -0.66861,1.59515 -2.89662,0.38238 -3.70715,1.91032 -0.83981,1.58311 2.10937,1.59969 1.20707,3.14801 -1.28475,2.20463 -2.6951,2.43558 -4.55043,0.68318 -1.53244,-1.44739 0.26147,-3.05665 -1.69051,-3.85235 -6.46897,-2.63702 -14.7709,-1.61162 -20.12482,-2.60158 -1.90153,-0.3516 -1.88912,4.05524 -3.79392,4.38875 -2.1271,0.37242 -5.26266,-1.04551 -5.64985,-3.16998 -0.29371,-1.61161 3.04374,-2.12826 3.16203,-3.76216 0.14288,-1.97357 -3.7679,-3.17569 -3.12499,-5.04708 0.58226,-1.69484 3.31937,-2.36125 5.04179,-1.86653 2.29853,0.6602 2.10344,4.95174 4.38081,5.6816 z"
           id="path17"
           sodipodi:nodetypes="sssssssssssssss" />
        <path
           style="fill:#000000;fill-opacity:1;stroke:#000000;stroke-width:0.16332px;stroke-linecap:butt;stroke-linejoin:miter;stroke-opacity:1"
           d="m 213.75047,198.21296 c 6.20688,1.98924 13.93621,1.3708 20.12747,1.97235 2.33404,0.22677 3.94231,-3.00664 6.19104,-2.34154 2.3456,0.69375 3.47701,2.60112 2.53146,4.85701 -0.66861,1.59515 -2.89662,0.38238 -3.70715,1.91032 -0.83981,1.58311 2.10937,1.59969 1.20707,3.14801 -1.28475,2.20463 -2.6951,2.43558 -4.55043,0.68318 -1.53244,-1.44739 0.26147,-3.05665 -1.69051,-3.85235 -6.46897,-2.63702 -14.7709,-1.61162 -20.12482,-2.60158 -1.90153,-0.3516 -1.88912,4.05524 -3.79392,4.38875 -2.1271,0.37242 -5.26266,-1.04551 -5.64985,-3.16998 -0.29371,-1.61161 3.04374,-2.12826 3.16203,-3.76216 0.14288,-1.97357 -3.7679,-3.17569 -3.12499,-5.04708 0.58226,-1.69484 3.31937,-2.36125 5.04179,-1.86653 2.29853,0.6602 2.10344,4.95174 4.38081,5.6816 z"
           id="path18"
           sodipodi:nodetypes="sssssssssssssss" />
        <path
           style="fill:#000000;fill-opacity:1;stroke:#000000;stroke-width:0.16332px;stroke-linecap:butt;stroke-linejoin:miter;stroke-opacity:1"
           d="m 199.51246,213.34085 c 6.20688,1.98924 13.93621,1.3708 20.12747,1.97235 2.33404,0.22677 3.94231,-3.00664 6.19104,-2.34154 2.3456,0.69375 3.47701,2.60112 2.53146,4.85701 -0.66861,1.59515 -2.89662,0.38238 -3.70715,1.91032 -0.83981,1.58311 2.10937,1.59969 1.20707,3.14801 -1.28475,2.20463 -2.6951,2.43558 -4.55043,0.68318 -1.53244,-1.44739 0.26147,-3.05665 -1.69051,-3.85235 -6.46897,-2.63702 -14.7709,-1.61162 -20.12482,-2.60158 -1.90153,-0.3516 -1.88912,4.05524 -3.79392,4.38875 -2.1271,0.37242 -5.26266,-1.04551 -5.64985,-3.16998 -0.29371,-1.61161 3.04374,-2.12826 3.16203,-3.76216 0.14288,-1.97357 -3.7679,-3.17569 -3.12499,-5.04708 0.58226,-1.69484 3.31937,-2.36125 5.04179,-1.86653 2.29853,0.6602 2.10344,4.95174 4.38081,5.6816 z"
           id="path19"
           sodipodi:nodetypes="sssssssssssssss" />
        <path
           style="fill:#000000;fill-opacity:1;stroke:#000000;stroke-width:0.16332px;stroke-linecap:butt;stroke-linejoin:miter;stroke-opacity:1"
           d="m 169.25668,200.43765 c 6.20688,1.98924 13.93621,1.3708 20.12747,1.97235 2.33404,0.22677 3.94231,-3.00664 6.19104,-2.34154 2.3456,0.69375 3.47701,2.60112 2.53146,4.85701 -0.66861,1.59515 -2.89662,0.38238 -3.70715,1.91032 -0.83981,1.58311 2.10937,1.59969 1.20707,3.14801 -1.28475,2.20463 -2.6951,2.43558 -4.55043,0.68318 -1.53244,-1.44739 0.26147,-3.05665 -1.69051,-3.85235 -6.46897,-2.63702 -14.7709,-1.61162 -20.12482,-2.60158 -1.90153,-0.3516 -1.88912,4.05524 -3.79392,4.38875 -2.1271,0.37242 -5.26266,-1.04551 -5.64985,-3.16998 -0.29371,-1.61161 3.04374,-2.12826 3.16203,-3.76216 0.14288,-1.97357 -3.7679,-3.17569 -3.12499,-5.04708 0.58226,-1.69484 3.31937,-2.36125 5.04179,-1.86653 2.29853,0.6602 2.10344,4.95174 4.38081,5.6816 z"
           id="path20"
           sodipodi:nodetypes="sssssssssssssss" />
        <path
           style="fill:#000000;fill-opacity:1;stroke:#000000;stroke-width:0.16332px;stroke-linecap:butt;stroke-linejoin:miter;stroke-opacity:1"
           d="m 175.48581,189.3142 c 6.20688,1.98924 13.93621,1.3708 20.12747,1.97235 2.33404,0.22677 3.94231,-3.00664 6.19104,-2.34154 2.3456,0.69375 3.47701,2.60112 2.53146,4.85701 -0.66861,1.59515 -2.89662,0.38238 -3.70715,1.91032 -0.83981,1.58311 2.10937,1.59969 1.20707,3.14801 -1.28475,2.20463 -2.6951,2.43558 -4.55043,0.68318 -1.53244,-1.44739 0.26147,-3.05665 -1.69051,-3.85235 -6.46897,-2.63702 -14.7709,-1.61162 -20.12482,-2.60158 -1.90153,-0.3516 -1.88912,4.05524 -3.79392,4.38875 -2.1271,0.37242 -5.26266,-1.04551 -5.64985,-3.16998 -0.29371,-1.61161 3.04374,-2.12826 3.16203,-3.76216 0.14288,-1.97357 -3.7679,-3.17569 -3.12499,-5.04708 0.58226,-1.69484 3.31937,-2.36125 5.04179,-1.86653 2.29853,0.6602 2.10344,4.95174 4.38081,5.6816 z"
           id="path21"
           sodipodi:nodetypes="sssssssssssssss" />
        <path
           style="fill:#000000;fill-opacity:1;stroke:#000000;stroke-width:0.16332px;stroke-linecap:butt;stroke-linejoin:miter;stroke-opacity:1"
           d="m 171.92631,171.07174 c 6.20688,1.98924 13.93621,1.3708 20.12747,1.97235 2.33404,0.22677 3.94231,-3.00664 6.19104,-2.34154 2.3456,0.69375 3.47701,2.60112 2.53146,4.85701 -0.66861,1.59515 -2.89662,0.38238 -3.70715,1.91032 -0.83981,1.58311 2.10937,1.59969 1.20707,3.14801 -1.28475,2.20463 -2.6951,2.43558 -4.55043,0.68318 -1.53244,-1.44739 0.26147,-3.05665 -1.69051,-3.85235 -6.46897,-2.63702 -14.7709,-1.61162 -20.12482,-2.60158 -1.90153,-0.3516 -1.88912,4.05524 -3.79392,4.38875 -2.1271,0.37242 -5.26266,-1.04551 -5.64985,-3.16998 -0.29371,-1.61161 3.04374,-2.12826 3.16203,-3.76216 0.14288,-1.97357 -3.7679,-3.17569 -3.12499,-5.04708 0.58226,-1.69484 3.31937,-2.36125 5.04179,-1.86653 2.29853,0.6602 2.10344,4.95174 4.38081,5.6816 z"
           id="path22"
           sodipodi:nodetypes="sssssssssssssss" />
        <path
           style="fill:#000000;fill-opacity:1;stroke:#000000;stroke-width:0.16332px;stroke-linecap:butt;stroke-linejoin:miter;stroke-opacity:1"
           d="m 236.44231,178.19075 c 6.20688,1.98924 13.93621,1.3708 20.12747,1.97235 2.33404,0.22677 3.94231,-3.00664 6.19104,-2.34154 2.3456,0.69375 3.47701,2.60112 2.53146,4.85701 -0.66861,1.59515 -2.89662,0.38238 -3.70715,1.91032 -0.83981,1.58311 2.10937,1.59969 1.20707,3.14801 -1.28475,2.20463 -2.6951,2.43558 -4.55043,0.68318 -1.53244,-1.44739 0.26147,-3.05665 -1.69051,-3.85235 -6.46897,-2.63702 -14.7709,-1.61162 -20.12482,-2.60158 -1.90153,-0.3516 -1.88912,4.05524 -3.79392,4.38875 -2.1271,0.37242 -5.26266,-1.04551 -5.64985,-3.16998 -0.29371,-1.61161 3.04374,-2.12826 3.16203,-3.76216 0.14288,-1.97357 -3.7679,-3.17569 -3.12499,-5.04708 0.58226,-1.69484 3.31937,-2.36125 5.04179,-1.86653 2.29853,0.6602 2.10344,4.95174 4.38081,5.6816 z"
           id="path23"
           sodipodi:nodetypes="sssssssssssssss" />
        <path
           style="fill:#000000;fill-opacity:1;stroke:#000000;stroke-width:0.16332px;stroke-linecap:butt;stroke-linejoin:miter;stroke-opacity:1"
           d="m 213.75047,179.9705 c 6.20688,1.98924 13.93621,1.3708 20.12747,1.97235 2.33404,0.22677 3.94231,-3.00664 6.19104,-2.34154 2.3456,0.69375 3.47701,2.60112 2.53146,4.85701 -0.66861,1.59515 -2.89662,0.38238 -3.70715,1.91032 -0.83981,1.58311 2.10937,1.59969 1.20707,3.14801 -1.28475,2.20463 -2.6951,2.43558 -4.55043,0.68318 -1.53244,-1.44739 0.26147,-3.05665 -1.69051,-3.85235 -6.46897,-2.63702 -14.7709,-1.61162 -20.12482,-2.60158 -1.90153,-0.3516 -1.88912,4.05524 -3.79392,4.38875 -2.1271,0.37242 -5.26266,-1.04551 -5.64985,-3.16998 -0.29371,-1.61161 3.04374,-2.12826 3.16203,-3.76216 0.14288,-1.97357 -3.7679,-3.17569 -3.12499,-5.04708 0.58226,-1.69484 3.31937,-2.36125 5.04179,-1.86653 2.29853,0.6602 2.10344,4.95174 4.38081,5.6816 z"
           id="path24"
           sodipodi:nodetypes="sssssssssssssss" />
        <path
           style="fill:#000000;fill-opacity:1;stroke:#000000;stroke-width:0.16332px;stroke-linecap:butt;stroke-linejoin:miter;stroke-opacity:1"
           d="m 213.30553,171.51668 c 6.20688,1.98924 13.93621,1.3708 20.12747,1.97235 2.33404,0.22677 3.94231,-3.00664 6.19104,-2.34154 2.3456,0.69375 3.47701,2.60112 2.53146,4.85701 -0.66861,1.59515 -2.89662,0.38238 -3.70715,1.91032 -0.83981,1.58311 2.10937,1.59969 1.20707,3.14801 -1.28475,2.20463 -2.6951,2.43558 -4.55043,0.68318 -1.53244,-1.44739 0.26147,-3.05665 -1.69051,-3.85235 -6.46897,-2.63702 -14.7709,-1.61162 -20.12482,-2.60158 -1.90153,-0.3516 -1.88912,4.05524 -3.79392,4.38875 -2.1271,0.37242 -5.26266,-1.04551 -5.64985,-3.16998 -0.29371,-1.61161 3.04374,-2.12826 3.16203,-3.76216 0.14288,-1.97357 -3.7679,-3.17569 -3.12499,-5.04708 0.58226,-1.69484 3.31937,-2.36125 5.04179,-1.86653 2.29853,0.6602 2.10344,4.95174 4.38081,5.6816 z"
           id="path25"
           sodipodi:nodetypes="sssssssssssssss" />
        <path
           style="fill:#000000;fill-opacity:1;stroke:#000000;stroke-width:0.16332px;stroke-linecap:butt;stroke-linejoin:miter;stroke-opacity:1"
           d="m 197.28777,165.73248 c 6.20688,1.98924 13.93621,1.3708 20.12747,1.97235 2.33404,0.22677 3.94231,-3.00664 6.19104,-2.34154 2.3456,0.69375 3.47701,2.60112 2.53146,4.85701 -0.66861,1.59515 -2.89662,0.38238 -3.70715,1.91032 -0.83981,1.58311 2.10937,1.59969 1.20707,3.14801 -1.28475,2.20463 -2.6951,2.43558 -4.55043,0.68318 -1.53244,-1.44739 0.26147,-3.05665 -1.69051,-3.85235 -6.46897,-2.63702 -14.7709,-1.61162 -20.12482,-2.60158 -1.90153,-0.3516 -1.88912,4.05524 -3.79392,4.38875 -2.1271,0.37242 -5.26266,-1.04551 -5.64985,-3.16998 -0.29371,-1.61161 3.04374,-2.12826 3.16203,-3.76216 0.14288,-1.97357 -3.7679,-3.17569 -3.12499,-5.04708 0.58226,-1.69484 3.31937,-2.36125 5.04179,-1.86653 2.29853,0.6602 2.10344,4.95174 4.38081,5.6816 z"
           id="path26"
           sodipodi:nodetypes="sssssssssssssss" />
        <path
           style="fill:#000000;fill-opacity:1;stroke:#000000;stroke-width:0.16332px;stroke-linecap:butt;stroke-linejoin:miter;stroke-opacity:1"
           d="m 287.66835,159.84001 c 4.66029,4.55676 11.84911,7.46295 17.11649,10.77176 1.98575,1.24739 4.87106,-0.92435 6.58435,0.67683 1.7871,1.67016 1.94523,3.8822 0.0901,5.47638 -1.31181,1.12725 -2.76147,-0.95442 -4.17011,0.0492 -1.45953,1.03986 1.17039,2.37459 -0.32945,3.35537 -2.13557,1.39653 -3.50016,0.97186 -4.37502,-1.42559 -0.72263,-1.98018 1.60181,-2.61642 0.21234,-4.20159 -4.60475,-5.25334 -12.48776,-8.05187 -16.83251,-11.33327 -1.5431,-1.16545 -3.50427,2.78097 -5.35692,2.22673 -2.06886,-0.61894 -4.23828,-3.29024 -3.63373,-5.36336 0.45862,-1.57265 3.6744,-0.541 4.51142,-1.9492 1.01104,-1.70094 -1.94821,-4.5262 -0.53575,-5.91198 1.27921,-1.25504 4.02515,-0.626 5.34403,0.58727 1.76002,1.61909 -0.33511,5.36953 1.37481,7.04145 z"
           id="path27"
           sodipodi:nodetypes="sssssssssssssss" />
        <path
           style="fill:#000000;fill-opacity:1;stroke:#000000;stroke-width:0.16332px;stroke-linecap:butt;stroke-linejoin:miter;stroke-opacity:1"
           d="m 277.82153,180.86037 c 6.20688,1.98924 13.93621,1.3708 20.12747,1.97235 2.33404,0.22677 3.94231,-3.00664 6.19104,-2.34154 2.3456,0.69375 3.47701,2.60112 2.53146,4.85701 -0.66861,1.59515 -2.89662,0.38238 -3.70715,1.91032 -0.83981,1.58311 2.10937,1.59969 1.20707,3.14801 -1.28475,2.20463 -2.6951,2.43558 -4.55043,0.68318 -1.53244,-1.44739 0.26147,-3.05665 -1.69051,-3.85235 -6.46897,-2.63702 -14.7709,-1.61162 -20.12482,-2.60158 -1.90153,-0.3516 -1.88912,4.05524 -3.79392,4.38875 -2.1271,0.37242 -5.26266,-1.04551 -5.64985,-3.16998 -0.29371,-1.61161 3.04374,-2.12826 3.16203,-3.76216 0.14288,-1.97357 -3.7679,-3.17569 -3.12499,-5.04708 0.58226,-1.69484 3.31937,-2.36125 5.04179,-1.86653 2.29853,0.6602 2.10344,4.95174 4.38081,5.6816 z"
           id="path28"
           sodipodi:nodetypes="sssssssssssssss" />
        <path
           style="fill:#000000;fill-opacity:1;stroke:#000000;stroke-width:0.16332px;stroke-linecap:butt;stroke-linejoin:miter;stroke-opacity:1"
           d="m 254.68476,191.53888 c 6.20688,1.98924 13.93621,1.3708 20.12747,1.97235 2.33404,0.22677 3.94231,-3.00664 6.19104,-2.34154 2.3456,0.69375 3.47701,2.60112 2.53146,4.85701 -0.66861,1.59515 -2.89662,0.38238 -3.70715,1.91032 -0.83981,1.58311 2.10937,1.59969 1.20707,3.14801 -1.28475,2.20463 -2.6951,2.43558 -4.55043,0.68318 -1.53244,-1.44739 0.26147,-3.05665 -1.69051,-3.85235 -6.46897,-2.63702 -14.7709,-1.61162 -20.12482,-2.60158 -1.90153,-0.3516 -1.88912,4.05524 -3.79392,4.38875 -2.1271,0.37242 -5.26266,-1.04551 -5.64985,-3.16998 -0.29371,-1.61161 3.04374,-2.12826 3.16203,-3.76216 0.14288,-1.97357 -3.7679,-3.17569 -3.12499,-5.04708 0.58226,-1.69484 3.31937,-2.36125 5.04179,-1.86653 2.29853,0.6602 2.10344,4.95174 4.38081,5.6816 z"
           id="path29"
           sodipodi:nodetypes="sssssssssssssss" />
        <path
           style="fill:#000000;fill-opacity:1;stroke:#000000;stroke-width:0.16332px;stroke-linecap:butt;stroke-linejoin:miter;stroke-opacity:1"
           d="m 248.45563,214.67565 c 6.20688,1.98924 13.93621,1.3708 20.12747,1.97235 2.33404,0.22677 3.94231,-3.00664 6.19104,-2.34154 2.3456,0.69375 3.47701,2.60112 2.53146,4.85701 -0.66861,1.59515 -2.89662,0.38238 -3.70715,1.91032 -0.83981,1.58311 2.10937,1.59969 1.20707,3.14801 -1.28475,2.20463 -2.6951,2.43558 -4.55043,0.68318 -1.53244,-1.44739 0.26147,-3.05665 -1.69051,-3.85235 -6.46897,-2.63702 -14.7709,-1.61162 -20.12482,-2.60158 -1.90153,-0.3516 -1.88912,4.05524 -3.79392,4.38875 -2.1271,0.37242 -5.26266,-1.04551 -5.64985,-3.16998 -0.29371,-1.61161 3.04374,-2.12826 3.16203,-3.76216 0.14288,-1.97357 -3.7679,-3.17569 -3.12499,-5.04708 0.58226,-1.69484 3.31937,-2.36125 5.04179,-1.86653 2.29853,0.6602 2.10344,4.95174 4.38081,5.6816 z"
           id="path30"
           sodipodi:nodetypes="sssssssssssssss" />
        <path
           style="fill:#000000;fill-opacity:1;stroke:#000000;stroke-width:0.16332px;stroke-linecap:butt;stroke-linejoin:miter;stroke-opacity:1"
           d="m 234.21762,224.46428 c 6.20688,1.98924 13.93621,1.3708 20.12747,1.97235 2.33404,0.22677 3.94231,-3.00664 6.19104,-2.34154 2.3456,0.69375 3.47701,2.60112 2.53146,4.85701 -0.66861,1.59515 -2.89662,0.38238 -3.70715,1.91032 -0.83981,1.58311 2.10937,1.59969 1.20707,3.14801 -1.28475,2.20463 -2.6951,2.43558 -4.55043,0.68318 -1.53244,-1.44739 0.26147,-3.05665 -1.69051,-3.85235 -6.46897,-2.63702 -14.7709,-1.61162 -20.12482,-2.60158 -1.90153,-0.3516 -1.88912,4.05524 -3.79392,4.38875 -2.1271,0.37242 -5.26266,-1.04551 -5.64985,-3.16998 -0.29371,-1.61161 3.04374,-2.12826 3.16203,-3.76216 0.14288,-1.97357 -3.7679,-3.17569 -3.12499,-5.04708 0.58226,-1.69484 3.31937,-2.36125 5.04179,-1.86653 2.29853,0.6602 2.10344,4.95174 4.38081,5.6816 z"
           id="path31"
           sodipodi:nodetypes="sssssssssssssss" />
        <path
           style="fill:#000000;fill-opacity:1;stroke:#000000;stroke-width:0.16332px;stroke-linecap:butt;stroke-linejoin:miter;stroke-opacity:1"
           d="m 220.86948,231.13835 c 6.20688,1.98924 13.93621,1.3708 20.12747,1.97235 2.33404,0.22677 3.94231,-3.00664 6.19104,-2.34154 2.3456,0.69375 3.47701,2.60112 2.53146,4.85701 -0.66861,1.59515 -2.89662,0.38238 -3.70715,1.91032 -0.83981,1.58311 2.10937,1.59969 1.20707,3.14801 -1.28475,2.20463 -2.6951,2.43558 -4.55043,0.68318 -1.53244,-1.44739 0.26147,-3.05665 -1.69051,-3.85235 -6.46897,-2.63702 -14.7709,-1.61162 -20.12482,-2.60158 -1.90153,-0.3516 -1.88912,4.05524 -3.79392,4.38875 -2.1271,0.37242 -5.26266,-1.04551 -5.64985,-3.16998 -0.29371,-1.61161 3.04374,-2.12826 3.16203,-3.76216 0.14288,-1.97357 -3.7679,-3.17569 -3.12499,-5.04708 0.58226,-1.69484 3.31937,-2.36125 5.04179,-1.86653 2.29853,0.6602 2.10344,4.95174 4.38081,5.6816 z"
           id="path32"
           sodipodi:nodetypes="sssssssssssssss" />
        <path
           style="fill:#000000;fill-opacity:1;stroke:#000000;stroke-width:0.16332px;stroke-linecap:butt;stroke-linejoin:miter;stroke-opacity:1"
           d="m 214.64035,242.2618 c 6.20688,1.98924 13.93621,1.3708 20.12747,1.97235 2.33404,0.22677 3.94231,-3.00664 6.19104,-2.34154 2.3456,0.69375 3.47701,2.60112 2.53146,4.85701 -0.66861,1.59515 -2.89662,0.38238 -3.70715,1.91032 -0.83981,1.58311 2.10937,1.59969 1.20707,3.14801 -1.28475,2.20463 -2.6951,2.43558 -4.55043,0.68318 -1.53244,-1.44739 0.26147,-3.05665 -1.69051,-3.85235 -6.46897,-2.63702 -14.7709,-1.61162 -20.12482,-2.60158 -1.90153,-0.3516 -1.88912,4.05524 -3.79392,4.38875 -2.1271,0.37242 -5.26266,-1.04551 -5.64985,-3.16998 -0.29371,-1.61161 3.04374,-2.12826 3.16203,-3.76216 0.14288,-1.97357 -3.7679,-3.17569 -3.12499,-5.04708 0.58226,-1.69484 3.31937,-2.36125 5.04179,-1.86653 2.29853,0.6602 2.10344,4.95174 4.38081,5.6816 z"
           id="path33"
           sodipodi:nodetypes="sssssssssssssss" />
        <path
           style="fill:#000000;fill-opacity:1;stroke:#000000;stroke-width:0.16332px;stroke-linecap:butt;stroke-linejoin:miter;stroke-opacity:1"
           d="m 272.58712,238.76048 c -6.07246,2.36806 -11.68316,7.72017 -16.86879,11.15569 -1.95492,1.29516 -1.16537,4.81908 -3.33036,5.72018 -2.25824,0.93992 -4.33886,0.17233 -5.02675,-2.175 -0.4864,-1.6598 2.00771,-2.12266 1.67385,-3.81975 -0.34591,-1.75837 -2.64589,0.0877 -2.92136,-1.68305 -0.39225,-2.52133 0.55708,-3.5896 3.10201,-3.39863 2.10201,0.15772 1.7237,2.53778 3.74063,1.92513 6.68424,-2.03037 12.48294,-8.05935 17.26335,-10.66553 1.69784,-0.92563 -1.08954,-4.33897 0.17899,-5.79853 1.41658,-1.62988 4.74457,-2.50553 6.38427,-1.1003 1.24386,1.06601 -1.02145,3.57079 -0.0834,4.91379 1.13307,1.62221 4.92686,0.0904 5.60733,1.94844 0.61628,1.68277 -1.08857,3.9254 -2.73757,4.62702 -2.20056,0.93629 -4.75417,-2.51833 -6.98221,-1.64946 z"
           id="path34"
           sodipodi:nodetypes="sssssssssssssss" />
        <path
           style="fill:#000000;fill-opacity:1;stroke:#000000;stroke-width:0.16332px;stroke-linecap:butt;stroke-linejoin:miter;stroke-opacity:1"
           d="m 272.58712,238.76048 c -6.07246,2.36806 -11.68316,7.72017 -16.86879,11.15569 -1.95492,1.29516 -1.16537,4.81908 -3.33036,5.72018 -2.25824,0.93992 -4.33886,0.17233 -5.02675,-2.175 -0.4864,-1.6598 2.00771,-2.12266 1.67385,-3.81975 -0.34591,-1.75837 -2.64589,0.0877 -2.92136,-1.68305 -0.39225,-2.52133 0.55708,-3.5896 3.10201,-3.39863 2.10201,0.15772 1.7237,2.53778 3.74063,1.92513 6.68424,-2.03037 12.48294,-8.05935 17.26335,-10.66553 1.69784,-0.92563 -1.08954,-4.33897 0.17899,-5.79853 1.41658,-1.62988 4.74457,-2.50553 6.38427,-1.1003 1.24386,1.06601 -1.02145,3.57079 -0.0834,4.91379 1.13307,1.62221 4.92686,0.0904 5.60733,1.94844 0.61628,1.68277 -1.08857,3.9254 -2.73757,4.62702 -2.20056,0.93629 -4.75417,-2.51833 -6.98221,-1.64946 z"
           id="path35"
           sodipodi:nodetypes="sssssssssssssss" />
        <path
           style="fill:#000000;fill-opacity:1;stroke:#000000;stroke-width:0.16332px;stroke-linecap:butt;stroke-linejoin:miter;stroke-opacity:1"
           d="m 320.64042,228.08197 c -6.07246,2.36806 -11.68316,7.72017 -16.86879,11.15569 -1.95492,1.29516 -1.16537,4.81908 -3.33036,5.72018 -2.25824,0.93992 -4.33886,0.17233 -5.02675,-2.175 -0.4864,-1.6598 2.00771,-2.12266 1.67385,-3.81975 -0.34591,-1.75837 -2.64589,0.0877 -2.92136,-1.68305 -0.39225,-2.52133 0.55708,-3.5896 3.10201,-3.39863 2.10201,0.15772 1.7237,2.53778 3.74063,1.92513 6.68424,-2.03037 12.48294,-8.05935 17.26335,-10.66553 1.69784,-0.92563 -1.08954,-4.33897 0.17899,-5.79853 1.41658,-1.62988 4.74457,-2.50553 6.38427,-1.1003 1.24386,1.06601 -1.02145,3.57079 -0.0834,4.91379 1.13307,1.62221 4.92686,0.0904 5.60733,1.94844 0.61628,1.68277 -1.08857,3.9254 -2.73757,4.62702 -2.20056,0.93629 -4.75417,-2.51833 -6.98221,-1.64946 z"
           id="path36"
           sodipodi:nodetypes="sssssssssssssss" />
        <path
           style="fill:#000000;fill-opacity:1;stroke:#000000;stroke-width:0.16332px;stroke-linecap:butt;stroke-linejoin:miter;stroke-opacity:1"
           d="m 341.10757,208.05976 c -6.07246,2.36806 -11.68316,7.72017 -16.86879,11.15569 -1.95492,1.29516 -1.16537,4.81908 -3.33036,5.72018 -2.25824,0.93992 -4.33886,0.17233 -5.02675,-2.175 -0.4864,-1.6598 2.00771,-2.12266 1.67385,-3.81975 -0.34591,-1.75837 -2.64589,0.0877 -2.92136,-1.68305 -0.39225,-2.52133 0.55708,-3.5896 3.10201,-3.39863 2.10201,0.15772 1.7237,2.53778 3.74063,1.92513 6.68424,-2.03037 12.48294,-8.05935 17.26335,-10.66553 1.69784,-0.92563 -1.08954,-4.33897 0.17899,-5.79853 1.41658,-1.62988 4.74457,-2.50553 6.38427,-1.1003 1.24386,1.06601 -1.02145,3.57079 -0.0834,4.91379 1.13307,1.62221 4.92686,0.0904 5.60733,1.94844 0.61628,1.68277 -1.08857,3.9254 -2.73757,4.62702 -2.20056,0.93629 -4.75417,-2.51833 -6.98221,-1.64946 z"
           id="path37"
           sodipodi:nodetypes="sssssssssssssss" />
        <path
           style="fill:#000000;fill-opacity:1;stroke:#000000;stroke-width:0.16332px;stroke-linecap:butt;stroke-linejoin:miter;stroke-opacity:1"
           d="m 367.21933,176.62184 c -6.07246,2.36806 -11.68316,7.72017 -16.86879,11.15569 -1.95492,1.29516 -1.16537,4.81908 -3.33036,5.72018 -2.25824,0.93992 -4.33886,0.17233 -5.02675,-2.175 -0.4864,-1.6598 2.00771,-2.12266 1.67385,-3.81975 -0.34591,-1.75837 -2.64589,0.0877 -2.92136,-1.68305 -0.39225,-2.52133 0.55708,-3.5896 3.10201,-3.39863 2.10201,0.15772 1.7237,2.53778 3.74063,1.92513 6.68424,-2.03037 12.48294,-8.05935 17.26335,-10.66553 1.69784,-0.92563 -1.08954,-4.33897 0.17899,-5.79853 1.41658,-1.62988 4.74457,-2.50553 6.38427,-1.1003 1.24386,1.06601 -1.02145,3.57079 -0.0834,4.91379 1.13307,1.62221 4.92686,0.0904 5.60733,1.94844 0.61628,1.68277 -1.08857,3.9254 -2.73757,4.62702 -2.20056,0.93629 -4.75417,-2.51833 -6.98221,-1.64946 z"
           id="path38"
           sodipodi:nodetypes="sssssssssssssss" />
        <path
           style="fill:#000000;fill-opacity:1;stroke:#000000;stroke-width:0.16332px;stroke-linecap:butt;stroke-linejoin:miter;stroke-opacity:1"
           d="m 362.46459,164.90078 c -6.07246,2.36806 -11.68316,7.72017 -16.86879,11.15569 -1.95492,1.29516 -1.16537,4.81908 -3.33036,5.72018 -2.25824,0.93992 -4.33886,0.17233 -5.02675,-2.175 -0.4864,-1.6598 2.00771,-2.12266 1.67385,-3.81975 -0.34591,-1.75837 -2.64589,0.0877 -2.92136,-1.68305 -0.39225,-2.52133 0.55708,-3.5896 3.10201,-3.39863 2.10201,0.15772 1.7237,2.53778 3.74063,1.92513 6.68424,-2.03037 12.48294,-8.05935 17.26335,-10.66553 1.69784,-0.92563 -1.08954,-4.33897 0.17899,-5.79853 1.41658,-1.62988 4.74457,-2.50553 6.38427,-1.1003 1.24386,1.06601 -1.02145,3.57079 -0.0834,4.91379 1.13307,1.62221 4.92686,0.0904 5.60733,1.94844 0.61628,1.68277 -1.08857,3.9254 -2.73757,4.62702 -2.20056,0.93629 -4.75417,-2.51833 -6.98221,-1.64946 z"
           id="path39"
           sodipodi:nodetypes="sssssssssssssss" />
        <path
           style="fill:#000000;fill-opacity:1;stroke:#000000;stroke-width:0.16332px;stroke-linecap:butt;stroke-linejoin:miter;stroke-opacity:1"
           d="m 335.76831,167.12547 c -6.07246,2.36806 -11.68316,7.72017 -16.86879,11.15569 -1.95492,1.29516 -1.16537,4.81908 -3.33036,5.72018 -2.25824,0.93992 -4.33886,0.17233 -5.02675,-2.175 -0.4864,-1.6598 2.00771,-2.12266 1.67385,-3.81975 -0.34591,-1.75837 -2.64589,0.0877 -2.92136,-1.68305 -0.39225,-2.52133 0.55708,-3.5896 3.10201,-3.39863 2.10201,0.15772 1.7237,2.53778 3.74063,1.92513 6.68424,-2.03037 12.48294,-8.05935 17.26335,-10.66553 1.69784,-0.92563 -1.08954,-4.33897 0.17899,-5.79853 1.41658,-1.62988 4.74457,-2.50553 6.38427,-1.1003 1.24386,1.06601 -1.02145,3.57079 -0.0834,4.91379 1.13307,1.62221 4.92686,0.0904 5.60733,1.94844 0.61628,1.68277 -1.08857,3.9254 -2.73757,4.62702 -2.20056,0.93629 -4.75417,-2.51833 -6.98221,-1.64946 z"
           id="path40"
           sodipodi:nodetypes="sssssssssssssss" />
        <path
           style="fill:#000000;fill-opacity:1;stroke:#000000;stroke-width:0.16332px;stroke-linecap:butt;stroke-linejoin:miter;stroke-opacity:1"
           d="m 326.23767,161.17855 c -5.30824,3.78221 -9.43845,10.3447 -13.62558,14.94487 -1.57849,1.73421 0.0495,4.95774 -1.82914,6.36129 -1.95953,1.46401 -4.16473,1.22897 -5.40619,-0.87863 -0.87782,-1.49028 1.42716,-2.54947 0.68812,-4.11324 -0.76573,-1.62024 -2.54397,0.73258 -3.24443,-0.9169 -0.99739,-2.34866 -0.33837,-3.61678 2.1759,-4.05445 2.07669,-0.36152 2.29237,2.03875 4.09803,0.95111 5.98406,-3.60451 10.1309,-10.86931 14.1281,-14.56618 1.41968,-1.313 -2.11831,-3.94036 -1.24557,-5.66599 0.97461,-1.92701 3.98709,-3.59051 5.92084,-2.62931 1.46692,0.72917 -0.11648,3.71218 1.12172,4.78477 1.49563,1.29557 4.79916,-1.11814 5.91367,0.51686 1.00937,1.48077 -0.0948,4.07244 -1.52192,5.15629 -1.90449,1.44638 -5.22592,-1.27822 -7.17356,0.10951 z"
           id="path41"
           sodipodi:nodetypes="sssssssssssssss" />
        <path
           style="fill:#000000;fill-opacity:1;stroke:#000000;stroke-width:0.16332px;stroke-linecap:butt;stroke-linejoin:miter;stroke-opacity:1"
           d="m 345.69823,156.60038 c -0.42233,6.50417 2.05467,13.85192 2.97469,20.00392 0.34685,2.31923 3.87403,3.09412 3.77495,5.43705 -0.10334,2.44386 -1.67885,4.00461 -4.09684,3.63521 -1.70977,-0.26121 -1.07438,-2.71704 -2.75342,-3.13224 -1.73967,-0.43021 -1.03954,2.4347 -2.76063,1.93543 -2.45064,-0.71088 -3.01717,-2.02293 -1.76781,-4.24829 1.03191,-1.83807 3.02864,-0.48867 3.32649,-2.57545 0.98706,-6.91572 -2.02378,-14.7201 -2.36367,-20.15415 -0.12072,-1.93 -4.39261,-0.84775 -5.17873,-2.61453 -0.87783,-1.97297 -0.26383,-5.35901 1.70301,-6.25055 1.49203,-0.6763 2.80373,2.43578 4.41743,2.15373 1.94919,-0.34068 2.1656,-4.42632 4.13708,-4.25713 1.78551,0.15324 3.09668,2.64657 3.03506,4.43757 -0.0822,2.39005 -4.29267,3.243 -4.44762,5.62944 z"
           id="path42"
           sodipodi:nodetypes="sssssssssssssss" />
        <path
           style="fill:#000000;fill-opacity:1;stroke:#000000;stroke-width:0.16332px;stroke-linecap:butt;stroke-linejoin:miter;stroke-opacity:1"
           d="m 326.42461,195.15656 c -6.07246,2.36806 -11.68316,7.72017 -16.86879,11.15569 -1.95492,1.29516 -1.16537,4.81908 -3.33036,5.72018 -2.25824,0.93992 -4.33886,0.17233 -5.02675,-2.175 -0.4864,-1.6598 2.00771,-2.12266 1.67385,-3.81975 -0.34591,-1.75837 -2.64589,0.0877 -2.92136,-1.68305 -0.39225,-2.52133 0.55708,-3.5896 3.10201,-3.39863 2.10201,0.15772 1.7237,2.53778 3.74063,1.92513 6.68424,-2.03037 12.48294,-8.05935 17.26335,-10.66553 1.69784,-0.92563 -1.08954,-4.33897 0.17899,-5.79853 1.41658,-1.62988 4.74457,-2.50553 6.38427,-1.1003 1.24386,1.06601 -1.02145,3.57079 -0.0834,4.91379 1.13307,1.62221 4.92686,0.0904 5.60733,1.94844 0.61628,1.68277 -1.08857,3.9254 -2.73757,4.62702 -2.20056,0.93629 -4.75417,-2.51833 -6.98221,-1.64946 z"
           id="path43"
           sodipodi:nodetypes="sssssssssssssss" />
        <path
           style="fill:#000000;fill-opacity:1;stroke:#000000;stroke-width:0.16332px;stroke-linecap:butt;stroke-linejoin:miter;stroke-opacity:1"
           d="m 292.16439,207.16988 c -6.07246,2.36806 -11.68316,7.72017 -16.86879,11.15569 -1.95492,1.29516 -1.16537,4.81908 -3.33036,5.72018 -2.25824,0.93992 -4.33886,0.17233 -5.02675,-2.175 -0.4864,-1.6598 2.00771,-2.12266 1.67385,-3.81975 -0.34591,-1.75837 -2.64589,0.0877 -2.92136,-1.68305 -0.39225,-2.52133 0.55708,-3.5896 3.10201,-3.39863 2.10201,0.15772 1.7237,2.53778 3.74063,1.92513 6.68424,-2.03037 12.48294,-8.05935 17.26335,-10.66553 1.69784,-0.92563 -1.08954,-4.33897 0.17899,-5.79853 1.41658,-1.62988 4.74457,-2.50553 6.38427,-1.1003 1.24386,1.06601 -1.02145,3.57079 -0.0834,4.91379 1.13307,1.62221 4.92686,0.0904 5.60733,1.94844 0.61628,1.68277 -1.08857,3.9254 -2.73757,4.62702 -2.20056,0.93629 -4.75417,-2.51833 -6.98221,-1.64946 z"
           id="path44"
           sodipodi:nodetypes="sssssssssssssss" />
        <path
           style="fill:#000000;fill-opacity:1;stroke:#000000;stroke-width:0.16332px;stroke-linecap:butt;stroke-linejoin:miter;stroke-opacity:1"
           d="m 313.07647,194.26668 c -6.07246,2.36806 -11.68316,7.72017 -16.86879,11.15569 -1.95492,1.29516 -1.16537,4.81908 -3.33036,5.72018 -2.25824,0.93992 -4.33886,0.17233 -5.02675,-2.175 -0.4864,-1.6598 2.00771,-2.12266 1.67385,-3.81975 -0.34591,-1.75837 -2.64589,0.0877 -2.92136,-1.68305 -0.39225,-2.52133 0.55708,-3.5896 3.10201,-3.39863 2.10201,0.15772 1.7237,2.53778 3.74063,1.92513 6.68424,-2.03037 12.48294,-8.05935 17.26335,-10.66553 1.69784,-0.92563 -1.08954,-4.33897 0.17899,-5.79853 1.41658,-1.62988 4.74457,-2.50553 6.38427,-1.1003 1.24386,1.06601 -1.02145,3.57079 -0.0834,4.91379 1.13307,1.62221 4.92686,0.0904 5.60733,1.94844 0.61628,1.68277 -1.08857,3.9254 -2.73757,4.62702 -2.20056,0.93629 -4.75417,-2.51833 -6.98221,-1.64946 z"
           id="path45"
           sodipodi:nodetypes="sssssssssssssss" />
        <path
           style="fill:#000000;fill-opacity:1;stroke:#000000;stroke-width:0.16332px;stroke-linecap:butt;stroke-linejoin:miter;stroke-opacity:1"
           d="m 261.46367,168.01534 c -6.07246,2.36806 -11.68316,7.72017 -16.86879,11.15569 -1.95492,1.29516 -1.16537,4.81908 -3.33036,5.72018 -2.25824,0.93992 -4.33886,0.17233 -5.02675,-2.175 -0.4864,-1.6598 2.00771,-2.12266 1.67385,-3.81975 -0.34591,-1.75837 -2.64589,0.0877 -2.92136,-1.68305 -0.39225,-2.52133 0.55708,-3.5896 3.10201,-3.39863 2.10201,0.15772 1.7237,2.53778 3.74063,1.92513 6.68424,-2.03037 12.48294,-8.05935 17.26335,-10.66553 1.69784,-0.92563 -1.08954,-4.33897 0.17899,-5.79853 1.41658,-1.62988 4.74457,-2.50553 6.38427,-1.1003 1.24386,1.06601 -1.02145,3.57079 -0.0834,4.91379 1.13307,1.62221 4.92686,0.0904 5.60733,1.94844 0.61628,1.68277 -1.08857,3.9254 -2.73757,4.62702 -2.20056,0.93629 -4.75417,-2.51833 -6.98221,-1.64946 z"
           id="path46"
           sodipodi:nodetypes="sssssssssssssss" />
        <path
           style="fill:#000000;fill-opacity:1;stroke:#000000;stroke-width:0.16332px;stroke-linecap:butt;stroke-linejoin:miter;stroke-opacity:1"
           d="m 261.46367,168.01534 c -6.07246,2.36806 -11.68316,7.72017 -16.86879,11.15569 -1.95492,1.29516 -1.16537,4.81908 -3.33036,5.72018 -2.25824,0.93992 -4.33886,0.17233 -5.02675,-2.175 -0.4864,-1.6598 2.00771,-2.12266 1.67385,-3.81975 -0.34591,-1.75837 -2.64589,0.0877 -2.92136,-1.68305 -0.39225,-2.52133 0.55708,-3.5896 3.10201,-3.39863 2.10201,0.15772 1.7237,2.53778 3.74063,1.92513 6.68424,-2.03037 12.48294,-8.05935 17.26335,-10.66553 1.69784,-0.92563 -1.08954,-4.33897 0.17899,-5.79853 1.41658,-1.62988 4.74457,-2.50553 6.38427,-1.1003 1.24386,1.06601 -1.02145,3.57079 -0.0834,4.91379 1.13307,1.62221 4.92686,0.0904 5.60733,1.94844 0.61628,1.68277 -1.08857,3.9254 -2.73757,4.62702 -2.20056,0.93629 -4.75417,-2.51833 -6.98221,-1.64946 z"
           id="path47"
           sodipodi:nodetypes="sssssssssssssss" />
        <path
           style="fill:#000000;fill-opacity:1;stroke:#000000;stroke-width:0.16332px;stroke-linecap:butt;stroke-linejoin:miter;stroke-opacity:1"
           d="m 179.09218,162.15674 c 4.96296,4.2251 12.3348,6.62946 17.81749,9.56778 2.06692,1.10771 4.79587,-1.25752 6.61533,0.22191 1.89783,1.54315 2.20789,3.73906 0.46687,5.45718 -1.2311,1.21489 -2.82063,-0.76204 -4.15684,0.33619 -1.38447,1.13788 1.3311,2.28837 -0.0976,3.37008 -2.03436,1.54025 -3.42494,1.21053 -4.46279,-1.12099 -0.85725,-1.92574 1.41788,-2.7205 -0.0774,-4.20624 -4.95551,-4.92386 -13.01248,-7.17301 -17.57284,-10.14751 -1.61968,-1.05644 -3.30449,3.01564 -5.1909,2.59026 -2.10656,-0.47503 -4.45475,-2.99064 -3.99436,-5.10046 0.34925,-1.60049 3.62842,-0.79269 4.36651,-2.25517 0.89154,-1.76651 -2.25521,-4.38134 -0.9415,-5.86107 1.18977,-1.34013 3.9725,-0.90164 5.37178,0.21795 1.86731,1.49408 0.0354,5.37987 1.85633,6.93009 z"
           id="path48"
           sodipodi:nodetypes="sssssssssssssss" />
        <path
           style="fill:#000000;fill-opacity:1;stroke:#000000;stroke-width:0.16332px;stroke-linecap:butt;stroke-linejoin:miter;stroke-opacity:1"
           d="m 293.39437,221.34973 c 6.20688,1.98924 13.93621,1.3708 20.12747,1.97235 2.33404,0.22677 3.94231,-3.00664 6.19104,-2.34154 2.3456,0.69375 3.47701,2.60112 2.53146,4.85701 -0.66861,1.59515 -2.89662,0.38238 -3.70715,1.91032 -0.83981,1.58311 2.10937,1.59969 1.20707,3.14801 -1.28475,2.20463 -2.6951,2.43558 -4.55043,0.68318 -1.53244,-1.44739 0.26147,-3.05665 -1.69051,-3.85235 -6.46897,-2.63702 -14.7709,-1.61162 -20.12482,-2.60158 -1.90153,-0.3516 -1.88912,4.05524 -3.79392,4.38875 -2.1271,0.37242 -5.26266,-1.04551 -5.64985,-3.16998 -0.29371,-1.61161 3.04374,-2.12826 3.16203,-3.76216 0.14288,-1.97357 -3.7679,-3.17569 -3.12499,-5.04708 0.58226,-1.69484 3.31937,-2.36125 5.04179,-1.86653 2.29853,0.6602 2.10344,4.95174 4.38081,5.6816 z"
           id="path49"
           sodipodi:nodetypes="sssssssssssssss" />
        <path
           style="fill:#000000;fill-opacity:1;stroke:#000000;stroke-width:0.16332px;stroke-linecap:butt;stroke-linejoin:miter;stroke-opacity:1"
           d="m 328.09953,220.45985 c 6.20688,1.98924 13.93621,1.3708 20.12747,1.97235 2.33404,0.22677 3.94231,-3.00664 6.19104,-2.34154 2.3456,0.69375 3.47701,2.60112 2.53146,4.85701 -0.66861,1.59515 -2.89662,0.38238 -3.70715,1.91032 -0.83981,1.58311 2.10937,1.59969 1.20707,3.14801 -1.28475,2.20463 -2.6951,2.43558 -4.55043,0.68318 -1.53244,-1.44739 0.26147,-3.05665 -1.69051,-3.85235 -6.46897,-2.63702 -14.7709,-1.61162 -20.12482,-2.60158 -1.90153,-0.3516 -1.88912,4.05524 -3.79392,4.38875 -2.1271,0.37242 -5.26266,-1.04551 -5.64985,-3.16998 -0.29371,-1.61161 3.04374,-2.12826 3.16203,-3.76216 0.14288,-1.97357 -3.7679,-3.17569 -3.12499,-5.04708 0.58226,-1.69484 3.31937,-2.36125 5.04179,-1.86653 2.29853,0.6602 2.10344,4.95174 4.38081,5.6816 z"
           id="path50"
           sodipodi:nodetypes="sssssssssssssss" />
        <path
           style="fill:#000000;fill-opacity:1;stroke:#000000;stroke-width:0.16332px;stroke-linecap:butt;stroke-linejoin:miter;stroke-opacity:1"
           d="m 342.04528,191.72319 c 6.20688,1.98924 13.93621,1.3708 20.12747,1.97235 2.33404,0.22677 3.94231,-3.00664 6.19104,-2.34154 2.3456,0.69375 3.47701,2.60112 2.53146,4.85701 -0.66861,1.59515 -2.89662,0.38238 -3.70715,1.91032 -0.83981,1.58311 2.10937,1.59969 1.20707,3.14801 -1.28475,2.20463 -2.6951,2.43558 -4.55043,0.68318 -1.53244,-1.44739 0.26147,-3.05665 -1.69051,-3.85235 -6.46897,-2.63702 -14.7709,-1.61162 -20.12482,-2.60158 -1.90153,-0.3516 -1.88912,4.05524 -3.79392,4.38875 -2.1271,0.37242 -5.26266,-1.04551 -5.64985,-3.16998 -0.29371,-1.61161 3.04374,-2.12826 3.16203,-3.76216 0.14288,-1.97357 -3.7679,-3.17569 -3.12499,-5.04708 0.58226,-1.69484 3.31937,-2.36125 5.04179,-1.86653 2.29853,0.6602 2.10344,4.95174 4.38081,5.6816 z"
           id="path51"
           sodipodi:nodetypes="sssssssssssssss" />
        <path
           style="fill:#000000;fill-opacity:1;stroke:#000000;stroke-width:0.16332px;stroke-linecap:butt;stroke-linejoin:miter;stroke-opacity:1"
           d="m 287.16523,235.58775 c 6.20688,1.98924 13.93621,1.3708 20.12747,1.97235 2.33404,0.22677 3.94231,-3.00664 6.19104,-2.34154 2.3456,0.69375 3.47701,2.60112 2.53146,4.85701 -0.66861,1.59515 -2.89662,0.38238 -3.70715,1.91032 -0.83981,1.58311 2.10937,1.59969 1.20707,3.14801 -1.28475,2.20463 -2.6951,2.43558 -4.55043,0.68318 -1.53244,-1.44739 0.26147,-3.05665 -1.69051,-3.85235 -6.46897,-2.63702 -14.7709,-1.61162 -20.12482,-2.60158 -1.90153,-0.3516 -1.88912,4.05524 -3.79392,4.38875 -2.1271,0.37242 -5.26266,-1.04551 -5.64985,-3.16998 -0.29371,-1.61161 3.04374,-2.12826 3.16203,-3.76216 0.14288,-1.97357 -3.7679,-3.17569 -3.12499,-5.04708 0.58226,-1.69484 3.31937,-2.36125 5.04179,-1.86653 2.29853,0.6602 2.10344,4.95174 4.38081,5.6816 z"
           id="path52"
           sodipodi:nodetypes="sssssssssssssss" />
        <path
           style="fill:#000000;fill-opacity:1;stroke:#000000;stroke-width:0.16332px;stroke-linecap:butt;stroke-linejoin:miter;stroke-opacity:1"
           d="m 263.13858,239.59219 c 6.20688,1.98924 13.93621,1.3708 20.12747,1.97235 2.33404,0.22677 3.94231,-3.00664 6.19104,-2.34154 2.3456,0.69375 3.47701,2.60112 2.53146,4.85701 -0.66861,1.59515 -2.89662,0.38238 -3.70715,1.91032 -0.83981,1.58311 2.10937,1.59969 1.20707,3.14801 -1.28475,2.20463 -2.6951,2.43558 -4.55043,0.68318 -1.53244,-1.44739 0.26147,-3.05665 -1.69051,-3.85235 -6.46897,-2.63702 -14.7709,-1.61162 -20.12482,-2.60158 -1.90153,-0.3516 -1.88912,4.05524 -3.79392,4.38875 -2.1271,0.37242 -5.26266,-1.04551 -5.64985,-3.16998 -0.29371,-1.61161 3.04374,-2.12826 3.16203,-3.76216 0.14288,-1.97357 -3.7679,-3.17569 -3.12499,-5.04708 0.58226,-1.69484 3.31937,-2.36125 5.04179,-1.86653 2.29853,0.6602 2.10344,4.95174 4.38081,5.6816 z"
           id="path53"
           sodipodi:nodetypes="sssssssssssssss" />
        <path
           style="fill:#000000;fill-opacity:1;stroke:#000000;stroke-width:0.16332px;stroke-linecap:butt;stroke-linejoin:miter;stroke-opacity:1"
           d="m 125.4661,244.85152 c 5.3914,-3.66268 9.66716,-10.13129 13.95601,-14.63677 1.61684,-1.69853 0.0613,-4.95762 1.97077,-6.31885 1.99175,-1.41987 4.19115,-1.13563 5.38521,0.99916 0.84432,1.50952 -1.48375,2.51696 -0.77981,4.09685 0.72934,1.63694 2.55969,-0.67558 3.22313,0.98914 0.94467,2.37035 0.25751,3.62344 -2.26592,4.00484 -2.08424,0.31504 -2.24626,-2.08945 -4.07576,-1.04241 -6.06308,3.46994 -10.37117,10.64029 -14.44995,14.24696 -1.44864,1.28096 2.02978,3.98669 1.1187,5.6924 -1.01741,1.90476 -4.06629,3.50056 -5.97809,2.4964 -1.45027,-0.76176 0.19937,-3.70865 -1.01458,-4.80863 -1.46631,-1.32865 -4.82292,1.01068 -5.90064,-0.64882 -0.97604,-1.50295 0.18571,-4.06931 1.63671,-5.12101 1.93633,-1.40348 5.19607,1.39463 7.17422,0.0507 z"
           id="path54"
           sodipodi:nodetypes="sssssssssssssss" />
        <path
           style="fill:#000000;fill-opacity:1;stroke:#000000;stroke-width:0.16332px;stroke-linecap:butt;stroke-linejoin:miter;stroke-opacity:1"
           d="m 108.57348,220.16776 c 4.81253,4.39567 12.09601,7.05574 17.47285,10.18355 2.02701,1.17914 4.83681,-1.08945 6.60355,0.45256 1.84285,1.60843 2.07611,3.81381 0.27621,5.47015 -1.27273,1.1712 -2.79233,-0.85998 -4.16604,0.19096 -1.42332,1.08889 1.25046,2.33342 -0.21516,3.36463 -2.08686,1.46833 -3.46509,1.09031 -4.42097,-1.27601 -0.78954,-1.95446 1.51193,-2.66937 0.0694,-4.20638 -4.78071,-5.09374 -12.75431,-7.62261 -17.20812,-10.75439 -1.58184,-1.1123 -3.40769,2.89852 -5.27811,2.40759 -2.088711,-0.54823 -4.347704,-3.14423 -3.813993,-5.23671 0.404879,-1.58733 3.653873,-0.66562 4.442533,-2.10146 0.95262,-1.73434 -2.10099,-4.45735 -0.73646,-5.89035 1.2358,-1.29781 4.00154,-0.7625 5.36091,0.40523 1.81405,1.55831 -0.15234,5.37782 1.61344,6.99063 z"
           id="path55"
           sodipodi:nodetypes="sssssssssssssss" />
        <path
           style="fill:#000000;fill-opacity:1;stroke:#000000;stroke-width:0.16332px;stroke-linecap:butt;stroke-linejoin:miter;stroke-opacity:1"
           d="m 92.648946,237.28294 c 6.375398,-1.35526 12.777494,-5.72998 18.450284,-8.28202 2.13859,-0.9621 1.92908,-4.56732 4.21125,-5.10658 2.38049,-0.56249 4.30966,0.53134 4.60904,2.95899 0.21169,1.71661 -2.32444,1.7702 -2.26931,3.49893 0.0571,1.79116 2.62527,0.34117 2.61086,2.13316 -0.0205,2.55158 -1.13003,3.45234 -3.61062,2.85247 -2.04886,-0.49544 -1.29078,-2.78304 -3.38023,-2.50449 -6.92454,0.92312 -13.621584,5.9354 -18.760419,7.73453 -1.82514,0.63899 0.373796,4.45803 -1.113998,5.69332 -1.661434,1.37946 -5.087203,1.7056 -6.47817,0.0538 -1.05517,-1.25306 1.58525,-3.35869 0.876633,-4.83568 -0.85593,-1.78403 -4.847444,-0.88564 -5.218605,-2.82926 -0.336142,-1.76026 1.708812,-3.6978 3.449545,-4.12362 2.322973,-0.56824 4.284545,3.25375 6.62374,2.75647 z"
           id="path56"
           sodipodi:nodetypes="sssssssssssssss" />
        <path
           style="fill:#000000;fill-opacity:1;stroke:#000000;stroke-width:0.16332px;stroke-linecap:butt;stroke-linejoin:miter;stroke-opacity:1"
           d="m 336.82512,235.97225 c 5.70893,3.14493 13.41305,4.02335 19.37332,5.80345 2.24696,0.67108 4.44661,-2.19301 6.52562,-1.10817 2.16856,1.13157 2.91235,3.22081 1.55091,5.25295 -0.96268,1.43693 -2.91611,-0.18139 -4.00516,1.16232 -1.12838,1.39222 1.76265,1.97523 0.57963,3.3213 -1.68447,1.91665 -3.11291,1.87227 -4.59691,-0.20401 -1.22573,-1.7149 0.84399,-2.94943 -0.9187,-4.10541 -5.84165,-3.831 -14.1859,-4.42008 -19.24979,-6.42044 -1.79852,-0.71046 -2.6332,3.61663 -4.56659,3.57788 -2.15902,-0.0433 -4.96366,-2.03734 -4.93538,-4.19662 0.0215,-1.63801 3.396,-1.50368 3.82607,-3.0844 0.51947,-1.90933 -3.08741,-3.84057 -2.09686,-5.55354 0.8971,-1.55136 3.71126,-1.67936 5.30651,-0.86287 2.12882,1.0896 1.11267,5.26367 3.20733,6.41756 z"
           id="path57"
           sodipodi:nodetypes="sssssssssssssss" />
        <path
           style="fill:#000000;fill-opacity:1;stroke:#000000;stroke-width:0.16332px;stroke-linecap:butt;stroke-linejoin:miter;stroke-opacity:1"
           d="m 350.20013,232.79589 c 5.6356,-3.27451 10.35564,-9.42645 14.95068,-13.6192 1.73228,-1.58063 0.40972,-4.94103 2.41022,-6.16463 2.08666,-1.2763 4.26063,-0.83811 5.30162,1.37536 0.73608,1.56516 -1.65706,2.4064 -1.06596,4.03187 0.61243,1.68418 2.60086,-0.49391 3.1456,1.21334 0.77566,2.43091 0.002,3.63257 -2.54193,3.83559 -2.10123,0.16771 -2.09377,-2.24223 -3.99237,-1.32642 -6.29207,3.03501 -11.09369,9.88468 -15.41598,13.1956 -1.53513,1.17593 1.74441,4.11956 0.71565,5.75698 -1.14883,1.82851 -4.30238,3.20596 -6.13883,2.06986 -1.39311,-0.86185 0.45966,-3.68545 -0.67394,-4.86807 -1.36925,-1.42847 -4.88205,0.66905 -5.84041,-1.06213 -0.86795,-1.56786 0.4714,-4.04617 1.99275,-4.99325 2.03023,-1.26384 5.08515,1.75656 7.1529,0.5551 z"
           id="path58"
           sodipodi:nodetypes="sssssssssssssss" />
        <path
           style="fill:#000000;fill-opacity:1;stroke:#000000;stroke-width:0.16332px;stroke-linecap:butt;stroke-linejoin:miter;stroke-opacity:1"
           d="m 337.74209,190.38337 c 2.79429,5.8885 8.53219,11.104 12.32811,16.03194 1.43102,1.85778 4.88981,0.81939 5.94272,2.91475 1.09828,2.18562 0.48073,4.31559 -1.81167,5.16882 -1.62098,0.60331 -2.2602,-1.85153 -3.92921,-1.39772 -1.72929,0.47019 0.27581,2.63294 -1.47084,3.03375 -2.48702,0.57072 -3.62015,-0.30015 -3.61081,-2.85223 0.008,-2.1079 2.40865,-1.89996 1.65398,-3.86817 -2.50099,-6.52276 -8.92743,-11.87762 -11.86727,-16.46039 -1.04413,-1.62765 -4.2504,1.39563 -5.79656,0.2342 -1.72658,-1.29698 -2.83689,-4.5542 -1.55193,-6.28976 0.97476,-1.31658 3.63443,0.76469 4.90726,-0.26658 1.53743,-1.24567 -0.26055,-4.92079 1.54436,-5.7318 1.63464,-0.73449 3.99293,0.8064 4.81014,2.40128 1.09055,2.12833 -2.17354,4.92137 -1.14828,7.08191 z"
           id="path59"
           sodipodi:nodetypes="sssssssssssssss" />
        <path
           style="fill:#000000;fill-opacity:1;stroke:#000000;stroke-width:0.16332px;stroke-linecap:butt;stroke-linejoin:miter;stroke-opacity:1"
           d="m 120.57819,159.73272 c -7.09888,-2.69763 -9.28961,1.25573 -9.82164,8.19471 -0.23445,3.05781 -1.93947,6.51612 -0.56299,10.54431 1.10504,3.23384 6.68901,4.60387 9.37849,8.09798 2.66343,3.46026 2.42813,9.04226 4.41188,12.72548 1.71951,3.19259 -1.66418,8.40233 0.13043,11.52422 2.35435,4.09563 7.32403,5.97858 10.90654,9.19701 2.42259,2.1764 7.8396,1.77966 10.13084,3.89963 3.29258,3.04645 3.44746,8.44671 7.01703,10.1213 1.31494,0.61687 1.55022,4.32569 2.92843,4.8978 3.25306,1.35037 8.23893,-0.77391 11.81478,0.30948 4.07892,1.23582 7.67136,6.33067 12.07195,7.28417 4.83872,1.04844 10.74408,-2.11261 15.88157,-1.45512 3.36315,0.43042 6.77394,3.47166 10.21771,3.78683 5.87005,0.53722 11.83589,-2.91848 17.82481,-2.77905 6.83201,0.15906 14.13899,2.63721 20.92309,2.5358 7.429,-0.11106 14.07331,-4.07142 21.13701,-4.70717 3.66328,-0.3297 7.43174,2.83491 10.88896,2.69669 5.46249,-0.21838 10.48088,-3.68838 15.61251,-4.22135 6.59917,-0.68539 11.08755,-4.40109 16.69568,-5.70407 4.94942,-1.14994 11.16452,0.16963 14.85968,-1.3092 3.43566,-1.37498 3.74191,-5.41333 7.40789,-8.65891 2.56625,-2.27197 7.85336,-2.00776 10.44982,-4.8785 2.03999,-2.25548 0.70499,-6.24522 2.63886,-8.79458 2.75622,-3.63342 9.23372,-5.68827 11.75739,-9.56121 2.7638,-4.24146 -0.16497,-9.71051 1.80425,-13.94125 1.85533,-3.98606 5.82994,-6.91078 7.26831,-10.37981 1.60238,-3.86457 -1.21454,-6.95561 -1.00349,-9.85493 0.41765,-5.73765 1.66438,-9.42693 -4.728,-7.79051 -1.92793,0.49354 -4.92823,-2.75645 -7.92606,-2.00425 -3.6684,0.92045 -7.55442,5.78664 -12.20902,5.47738 -5.29467,-0.3518 -10.66987,-4.23964 -17.01194,-4.10811 -3.85192,0.0799 -7.01412,4.53551 -11.23847,4.45216 -3.7949,-0.0749 -7.62081,-4.43449 -11.68109,-4.37132 -3.27195,0.0509 -7.39181,5.09354 -10.78976,5.117 -3.00477,0.0207 -6.38474,-4.93163 -9.46333,-4.83785 -3.84235,0.11704 -7.62506,5.35662 -11.553,5.48883 -3.42903,0.11541 -6.88397,3.88305 -10.35312,3.95957 -4.20592,0.0928 -7.77115,-4.80615 -12.01074,-4.68074 -4.29793,0.12712 -8.05101,6.56617 -12.35174,6.6332 -3.00612,0.0469 -5.45364,-4.46817 -8.4483,-4.42334 -3.61398,0.0541 -6.99324,1.32566 -10.57126,1.36779 -3.62278,0.0427 -6.66713,-4.797 -10.23373,-4.72788 -2.27719,0.0441 -4.54056,4.75976 -6.78707,4.80337 -4.10042,0.0796 -7.36926,-4.49388 -11.34576,-4.37318 -4.01151,0.12176 -7.61833,-3.50166 -11.46949,-3.30095 -3.06225,0.1596 -5.957,6.22896 -8.89751,6.41881 -2.60046,0.1679 -4.1501,-3.31701 -6.64489,-3.11174 -3.19899,0.26322 -4.64125,2.3341 -7.65099,2.65596 -3.9727,0.42483 -6.83916,-4.89258 -10.43739,-5.65297 -6.93652,-1.46584 -13.61992,-0.52951 -18.96713,-2.56149 z"
           id="path7"
           sodipodi:nodetypes="sssssssssssssssssssssssssssssssssssssssssssssssssss" />
      </g>
    </g>
  </g>
</svg>
