<?xml version="1.0" encoding="UTF-8" standalone="no"?>
<!-- Created with Inkscape (http://www.inkscape.org/) -->

<svg
   width="210mm"
   height="297mm"
   viewBox="0 0 210 297"
   version="1.1"
   id="svg1"
   inkscape:version="1.3.2 (091e20e, 2023-11-25)"
   sodipodi:docname="edgegrass.svg"
   xmlns:inkscape="http://www.inkscape.org/namespaces/inkscape"
   xmlns:sodipodi="http://sodipodi.sourceforge.net/DTD/sodipodi-0.dtd"
   xmlns="http://www.w3.org/2000/svg"
   xmlns:svg="http://www.w3.org/2000/svg">
  <sodipodi:namedview
     id="namedview1"
     pagecolor="#ffffff"
     bordercolor="#666666"
     borderopacity="1.0"
     inkscape:showpageshadow="2"
     inkscape:pageopacity="0.0"
     inkscape:pagecheckerboard="0"
     inkscape:deskcolor="#d1d1d1"
     inkscape:document-units="mm"
     inkscape:zoom="1.1893044"
     inkscape:cx="411.58512"
     inkscape:cy="615.48582"
     inkscape:window-width="1920"
     inkscape:window-height="977"
     inkscape:window-x="1512"
     inkscape:window-y="25"
     inkscape:window-maximized="1"
     inkscape:current-layer="layer1" />
  <defs
     id="defs1" />
  <g
     inkscape:label="Layer 1"
     inkscape:groupmode="layer"
     id="layer1">
    <path
       style="fill:#000000;fill-opacity:1;stroke:#000000;stroke-width:0.264583px;stroke-linecap:butt;stroke-linejoin:miter;stroke-opacity:1"
       d="m 55.37288,158.5678 c 9.550757,-3.3495 25.923677,-8.0058 30.025641,-7.84311 -2.023121,0.99475 -5.832479,0.6002 -5.485386,3.43844 12.112617,-0.90607 19.840553,-2.3887 28.158065,-0.55182 -2.67822,0.0169 -5.90761,-0.42554 -5.7921,1.91946 4.171,1.77558 6.11062,-0.1147 15.31907,9.93669 -5.6334,-4.17493 -6.27812,-4.92401 -9.52266,-2.07014 7.23003,2.62057 10.19931,6.15416 12.00684,9.93669 -2.67319,-3.21772 -5.95249,-6.13239 -13.24893,-7.03849 1.92491,2.8982 2.87256,5.79641 2.07014,8.69461 -1.19471,-3.17467 -1.79569,-5.27448 -5.88824,-6.05606 -1.94036,1.75563 -3.410515,2.80775 -4.148727,6.69947 -0.914334,3.87319 -3.697918,6.77531 -4.567168,10.65887 -1.393354,6.22514 -6.206207,13.17581 -6.206207,13.17581 l -36.495762,1.88771 z"
       id="path1"
       sodipodi:nodetypes="ccccccccccsssccc" />
  </g>
</svg>
