<?xml version="1.0" encoding="UTF-8" standalone="no"?>
<!-- Created with Inkscape (http://www.inkscape.org/) -->

<svg
   width="210mm"
   height="297mm"
   viewBox="0 0 210 297"
   version="1.1"
   id="svg1"
   inkscape:version="1.3.2 (091e20e, 2023-11-25)"
   sodipodi:docname="grass1.svg"
   xmlns:inkscape="http://www.inkscape.org/namespaces/inkscape"
   xmlns:sodipodi="http://sodipodi.sourceforge.net/DTD/sodipodi-0.dtd"
   xmlns="http://www.w3.org/2000/svg"
   xmlns:svg="http://www.w3.org/2000/svg">
  <sodipodi:namedview
     id="namedview1"
     pagecolor="#ffffff"
     bordercolor="#666666"
     borderopacity="1.0"
     inkscape:showpageshadow="2"
     inkscape:pageopacity="0.0"
     inkscape:pagecheckerboard="0"
     inkscape:deskcolor="#d1d1d1"
     inkscape:document-units="mm"
     inkscape:zoom="0.2973261"
     inkscape:cx="1592.5275"
     inkscape:cy="598.66927"
     inkscape:window-width="1920"
     inkscape:window-height="977"
     inkscape:window-x="1512"
     inkscape:window-y="25"
     inkscape:window-maximized="1"
     inkscape:current-layer="layer1" />
  <defs
     id="defs1" />
  <g
     inkscape:label="Layer 1"
     inkscape:groupmode="layer"
     id="layer1">
    <path
       style="fill:#000000;fill-opacity:1;stroke:#000000;stroke-width:0.264583px;stroke-linecap:butt;stroke-linejoin:miter;stroke-opacity:1"
       d="m 77.428506,200.82422 c 0.01185,0.0326 -15.705504,-29.35974 -15.064838,-54.76215 0.410073,-16.25945 11.126259,-40.57733 27.390618,-41.01632 22.736154,-0.61365 18.139094,30.80371 17.803894,30.80371 2.05518,-3.35726 -1.75998,-26.10941 -17.489275,-25.91392 -11.963829,0.14869 -20.678356,20.285 -19.469503,34.1368 2.791759,31.98975 23.428862,56.40742 23.263478,54.75358 0,0 9.36027,-18.42338 9.89206,-30.98669 0.43022,-10.1638 -10.810829,-28.1549 -11.261592,-27.25337 0,0 13.437212,11.66238 16.952982,20.33532 5.57277,13.74732 2.22045,44.01021 2.22045,44.01021 0,0 13.39883,-13.10629 17.8039,-21.22034 4.09838,-7.54915 14.70961,-18.50629 12.09438,-26.68799 -1.13945,-3.5648 -8.78517,-10.93383 -12.36274,-12.03648 -5.08728,-1.56795 -11.22453,8.02665 -10.57683,15.24653 0.54005,6.02002 8.77537,10.25426 9.47566,9.7874 0,0 -11.42817,-2.20853 -13.01055,-6.84527 -2.83621,-8.31074 2.42727,-21.85746 10.95626,-23.95844 8.68873,-2.14033 17.81608,8.15875 21.22772,16.42866 4.03689,9.78555 -0.91298,21.39679 -4.10858,31.48823 -3.11212,9.82774 -14.38008,27.38107 -14.38008,27.38107 l 4.79336,8.89884 -64.367958,-3.42263 c -5.447241,-10.67278 -12.923345,-20.23008 -12.325777,-34.22634 1.839455,8.13168 5.080251,15.15742 13.010544,18.48223 0.514456,-12.37873 -4.054588,-13.50503 -7.864727,-16.3112 6.709882,1.59283 10.844512,7.59886 15.397144,12.88856 z"
       id="path1"
       sodipodi:nodetypes="csscsscscscsssscssssccccccc" />
  </g>
</svg>
