<?xml version="1.0" encoding="UTF-8" standalone="no"?>
<!-- Created with Inkscape (http://www.inkscape.org/) -->

<svg
   width="210mm"
   height="297mm"
   viewBox="0 0 210 297"
   version="1.1"
   id="svg1"
   inkscape:version="1.3.2 (091e20e, 2023-11-25)"
   sodipodi:docname="grass3.svg"
   xmlns:inkscape="http://www.inkscape.org/namespaces/inkscape"
   xmlns:sodipodi="http://sodipodi.sourceforge.net/DTD/sodipodi-0.dtd"
   xmlns="http://www.w3.org/2000/svg"
   xmlns:svg="http://www.w3.org/2000/svg">
  <sodipodi:namedview
     id="namedview1"
     pagecolor="#ffffff"
     bordercolor="#666666"
     borderopacity="1.0"
     inkscape:showpageshadow="2"
     inkscape:pageopacity="0.0"
     inkscape:pagecheckerboard="0"
     inkscape:deskcolor="#d1d1d1"
     inkscape:document-units="mm"
     inkscape:zoom="0.4204826"
     inkscape:cx="541.04498"
     inkscape:cy="834.75511"
     inkscape:window-width="1920"
     inkscape:window-height="977"
     inkscape:window-x="1512"
     inkscape:window-y="25"
     inkscape:window-maximized="1"
     inkscape:current-layer="layer1" />
  <defs
     id="defs1" />
  <g
     inkscape:label="Layer 1"
     inkscape:groupmode="layer"
     id="layer1">
    <path
       style="fill:#000000;fill-opacity:1;stroke:#000000;stroke-width:0.264583px;stroke-linecap:butt;stroke-linejoin:miter;stroke-opacity:1"
       d="m 74.861061,257.95649 55.934819,-2.19397 c 20.3041,-10.88549 37.55951,-26.85309 54.83808,-42.78215 l -52.92208,34.09571 16.72896,-37.38664 -26.32229,37.29725 c -2.71471,-23.4489 -4.19342,-46.52691 3.2903,-66.91567 -10.08723,19.22025 -9.85066,42.57084 -9.87086,65.81871 l -14.2579,-50.46102 c 2.06859,15.58066 5.95389,31.46413 2.19353,46.0731 -3.19082,-36.48696 -13.906006,-72.03322 -25.225513,-107.50389 6.219222,35.32187 14.58847,70.21363 10.967616,107.50389 -0.502442,-9.9904 -6.568857,-18.3908 -14.2579,-26.3275 4.898237,8.22787 9.919266,16.35339 8.774093,29.61843 -18.948597,-0.17032 -37.747126,-0.75347 -52.644547,-12.06676 11.097188,6.93596 21.181214,15.39197 36.193123,16.45468 l -18.64494,1.09698 z"
       id="path1"
       sodipodi:nodetypes="cccccccccccccccccc" />
  </g>
</svg>
