<?xml version="1.0" encoding="UTF-8" standalone="no"?>
<!-- Created with Inkscape (http://www.inkscape.org/) -->

<svg
   width="210mm"
   height="297mm"
   viewBox="0 0 210 297"
   version="1.1"
   id="svg1"
   inkscape:version="1.3.2 (091e20e, 2023-11-25)"
   sodipodi:docname="grass2.svg"
   xmlns:inkscape="http://www.inkscape.org/namespaces/inkscape"
   xmlns:sodipodi="http://sodipodi.sourceforge.net/DTD/sodipodi-0.dtd"
   xmlns="http://www.w3.org/2000/svg"
   xmlns:svg="http://www.w3.org/2000/svg">
  <sodipodi:namedview
     id="namedview1"
     pagecolor="#ffffff"
     bordercolor="#666666"
     borderopacity="1.0"
     inkscape:showpageshadow="2"
     inkscape:pageopacity="0.0"
     inkscape:pagecheckerboard="0"
     inkscape:deskcolor="#d1d1d1"
     inkscape:document-units="mm"
     inkscape:zoom="0.5946522"
     inkscape:cx="794.58211"
     inkscape:cy="802.14956"
     inkscape:window-width="1920"
     inkscape:window-height="977"
     inkscape:window-x="1512"
     inkscape:window-y="25"
     inkscape:window-maximized="1"
     inkscape:current-layer="layer1" />
  <defs
     id="defs1" />
  <g
     inkscape:label="Layer 1"
     inkscape:groupmode="layer"
     id="layer1">
    <path
       style="fill:#000000;fill-opacity:1;stroke:#000000;stroke-width:0.264583px;stroke-linecap:butt;stroke-linejoin:miter;stroke-opacity:1"
       d="M 81.025374,251.46559 C 60.00559,226.20398 43.627176,196.88037 30.473344,164.73466 c 14.799208,23.92734 28.100263,50.2094 49.445052,63.84874 -1.807654,-11.81017 -1.944079,-23.62035 4.05892,-35.43052 -0.894891,9.96483 -3.617745,19.92967 2.951944,29.8945 0,0 42.80427,-33.13261 42.0652,-56.0983 -0.17921,-5.56853 -5.14258,-4.21181 -8.4968,-4.13689 -8.81159,0.1968 -21.760623,11.14918 -21.760623,11.14918 0,0 35.352653,-30.90363 38.006273,-7.38136 3.10319,27.50745 -42.0652,71.59915 -42.0652,71.59915 15.16906,-11.13995 26.72119,-19.86812 39.11325,-29.15636 -10.03296,10.07631 -21.7229,17.94286 -26.1985,35.43051 12.43598,-3.28569 23.67622,-7.96669 30.25743,-18.08432 -3.37707,11.46885 -11.63944,18.66223 -22.87757,23.25127 l -32.471374,3.32161 z"
       id="path1"
       sodipodi:nodetypes="cccccsscsccccccc" />
  </g>
</svg>
