<?xml version="1.0" encoding="UTF-8" standalone="no"?>
<!-- Created with Inkscape (http://www.inkscape.org/) -->

<svg
   width="2000mm"
   height="1000mm"
   viewBox="0 0 2000 1000"
   version="1.1"
   id="svg1"
   inkscape:version="1.3.2 (091e20e, 2023-11-25)"
   sodipodi:docname="Houses.svg"
   xmlns:inkscape="http://www.inkscape.org/namespaces/inkscape"
   xmlns:sodipodi="http://sodipodi.sourceforge.net/DTD/sodipodi-0.dtd"
   xmlns="http://www.w3.org/2000/svg"
   xmlns:svg="http://www.w3.org/2000/svg">
  <sodipodi:namedview
     id="namedview1"
     pagecolor="#ffffff"
     bordercolor="#666666"
     borderopacity="1.0"
     inkscape:showpageshadow="2"
     inkscape:pageopacity="0.0"
     inkscape:pagecheckerboard="0"
     inkscape:deskcolor="#d1d1d1"
     inkscape:document-units="mm"
     inkscape:zoom="0.052560326"
     inkscape:cx="4100.0507"
     inkscape:cy="3272.4303"
     inkscape:window-width="1920"
     inkscape:window-height="977"
     inkscape:window-x="1512"
     inkscape:window-y="25"
     inkscape:window-maximized="1"
     inkscape:current-layer="layer1" />
  <defs
     id="defs1" />
  <g
     inkscape:label="Layer 1"
     inkscape:groupmode="layer"
     id="layer1">
    <g
       id="g16"
       transform="matrix(5.0252474,0,0,5.0252474,-71.488862,-158.59689)"
       style="fill:#ffffff;fill-opacity:1;stroke:none;stroke-width:0.198996">
      <path
         style="fill:#ffffff;fill-opacity:1;stroke:none;stroke-width:0.052651px;stroke-linecap:butt;stroke-linejoin:miter;stroke-opacity:1"
         d="M 33.978813,217.7161 V 167.37712 H 106.3411 v 50.33898 z"
         id="path1" />
      <path
         style="fill:#ffffff;fill-opacity:1;stroke:none;stroke-width:0.052651px;stroke-linecap:butt;stroke-linejoin:miter;stroke-opacity:1"
         d="m 25.806401,175.30555 c 0.259548,0.41018 0.969602,0.0482 1.454403,0.0724 28.642295,1.42499 57.284591,2.84998 85.926886,4.27497 0.68375,0.034 1.80385,0.41688 2.05124,0.10205 0.30756,-0.39141 -0.61122,-1.29229 -0.91683,-1.93844 -4.58764,-9.69958 -9.17528,-19.39916 -13.76292,-29.09875 -0.29769,-0.6294 -0.31313,-1.50294 -0.893079,-1.88822 -0.48462,-0.32195 -1.162515,-0.0509 -1.743772,-0.0764 -19.140481,-0.83827 -38.280961,-1.67654 -57.421441,-2.51481 -0.597096,-0.0262 -1.287187,-0.39953 -1.791286,-0.0785 -0.395986,0.25222 -0.359383,0.86748 -0.539075,1.30122 -3.873887,9.35076 -7.747774,18.70152 -11.62166,28.05228 -0.247489,0.59739 -1.088221,1.24574 -0.742466,1.79216 z"
         id="path2"
         sodipodi:nodetypes="sssssssssssss" />
      <path
         style="fill:#ffffff;fill-opacity:1;stroke:none;stroke-width:0.052651px;stroke-linecap:butt;stroke-linejoin:miter;stroke-opacity:1"
         d="m 70.061918,148.9239 1.779751,-9.78864 25.361464,1.33481 -0.889877,8.89876 z"
         id="path3" />
      <path
         style="fill:#ffffff;fill-opacity:1;stroke:none;stroke-width:0.052651px;stroke-linecap:butt;stroke-linejoin:miter;stroke-opacity:1"
         d="m 67.311319,141.64758 c 0.213899,0.86075 1.771349,0.0945 2.657024,0.14171 9.531638,0.50835 19.063277,1.01671 28.594915,1.52506 0.706134,0.0377 1.825202,0.75647 2.118402,0.11298 0.33169,-0.72796 -1.112628,-1.14972 -1.668942,-1.72457 -3.538463,-3.65642 -7.076926,-7.31283 -10.615389,-10.96925 -0.3546,-0.36642 -0.558242,-1.03281 -1.063802,-1.09926 -0.557374,-0.0733 -0.96411,0.57847 -1.446165,0.8677 -5.474481,3.28469 -10.948962,6.56938 -16.423443,9.85407 -0.717534,0.43052 -2.354404,0.47948 -2.1526,1.29156 z"
         id="path4"
         sodipodi:nodetypes="ssssssssss" />
      <path
         style="fill:#ffffff;fill-opacity:1;stroke:none;stroke-width:0.052651px;stroke-linecap:butt;stroke-linejoin:miter;stroke-opacity:1"
         d="m 44.990466,146.29767 v -4.09004 l -2.20233,0.31462 v -3.14619 l 12.899363,0.62924 v 2.83156 l -2.831568,-0.31461 0.314619,4.71927 z"
         id="path5" />
      <path
         style="fill:#ffffff;fill-opacity:1;stroke:none;stroke-width:0.052651px;stroke-linecap:butt;stroke-linejoin:miter;stroke-opacity:1"
         d="m 36.707381,196.44011 h -6.006663 v 1.77975 l 2.44716,0.44493 2.447158,3.11457 z"
         id="path6" />
      <path
         style="fill:#ffffff;fill-opacity:1;stroke:none;stroke-width:0.052651px;stroke-linecap:butt;stroke-linejoin:miter;stroke-opacity:1"
         d="m 35.817505,181.75715 h -4.004442 l 0.22247,2.8921 0.444936,0.22247 0.667409,10.0111 h -1.334815 l 0.22247,2.44716 h 2.892097 z"
         id="path7" />
      <path
         style="fill:#ffffff;fill-opacity:1;stroke:none;stroke-width:0.052651px;stroke-linecap:butt;stroke-linejoin:miter;stroke-opacity:1"
         d="m 105.55456,217.24417 2.35963,0.15731 -0.15731,-1.88771 -0.78654,-0.31462 0.15731,-15.1017 h 0.94385 v -2.20233 l -2.98887,-0.31462 z"
         id="path8" />
    </g>
    <g
       id="g15"
       transform="matrix(5.0252474,0,0,5.0252474,-270.69948,-177.56934)"
       style="fill:#ffffff;fill-opacity:1;stroke:none;stroke-width:0.198996">
      <path
         style="fill:#ffffff;fill-opacity:1;stroke:none;stroke-width:0.052651px;stroke-linecap:butt;stroke-linejoin:miter;stroke-opacity:1"
         d="m 187.31888,220.68922 h 49.83305 l -3.11457,-40.93429 -44.93873,0.44494 z"
         id="path9"
         sodipodi:nodetypes="ccccc" />
      <path
         style="fill:#ffffff;fill-opacity:1;stroke:none;stroke-width:0.052651px;stroke-linecap:butt;stroke-linejoin:miter;stroke-opacity:1"
         d="m 181.08974,186.429 c 0.24648,0.32495 0.81568,-0.006 1.22353,-0.009 19.94785,-0.13949 39.8957,-0.27899 59.84356,-0.41848 0.85301,-0.006 2.24,0.77323 2.55904,-0.0179 0.33337,-0.82667 -1.27531,-1.24565 -1.91296,-1.86848 -5.42074,-5.29467 -10.84148,-10.58935 -16.26222,-15.88402 -0.31905,-0.31163 -0.54411,-0.76664 -0.95715,-0.93489 -0.4464,-0.18184 -0.96403,0 -1.44605,0 -3.96736,0 -11.90209,0 -11.90209,0 0,0 -12.98579,-10.22286 -19.47868,-15.33429 -0.4778,-0.37614 -0.85466,-1.31506 -1.4334,-1.12842 -0.55747,0.17979 -0.32369,1.12589 -0.48554,1.68883 -3.11568,10.83716 -6.23137,21.67432 -9.34706,32.51149 -0.13366,0.4649 -0.69332,1.00931 -0.40098,1.39472 z"
         id="path10"
         sodipodi:nodetypes="sssssssscsssss" />
      <path
         style="fill:#ffffff;fill-opacity:1;stroke:none;stroke-width:0.052651px;stroke-linecap:butt;stroke-linejoin:miter;stroke-opacity:1"
         d="m 230.47786,200.22208 c 0,0 9.93401,3.05591 14.67854,4.7229 0.74304,0.26107 1.82073,0.27409 1.78416,1.06129 -0.028,0.60186 -1.11343,0.59815 -1.69795,0.74429 -0.60198,0.15049 -1.86155,0.14559 -1.86155,0.14559 l 3.78197,13.45937 -11.23469,-0.11123 -5.67295,-19.35481 z"
         id="path11"
         sodipodi:nodetypes="csssccccc" />
      <path
         style="fill:#ffffff;fill-opacity:1;stroke:none;stroke-width:0.052651px;stroke-linecap:butt;stroke-linejoin:miter;stroke-opacity:1"
         d="m 189.24311,192.3893 c 0,0 -1.89785,-0.14021 -2.04502,0.31462 -0.12196,0.37691 -0.31462,9.43856 -0.31462,9.43856 l 2.35964,0.31462 z"
         id="path12"
         sodipodi:nodetypes="csccc" />
      <path
         style="fill:#ffffff;fill-opacity:1;stroke:none;stroke-width:0.052651px;stroke-linecap:butt;stroke-linejoin:miter;stroke-opacity:1"
         d="m 188.31999,201.89059 -2.22469,-0.22246 v 1.00111 l -1.11235,0.77864 h 3.78197 z"
         id="path13" />
      <path
         style="fill:#ffffff;fill-opacity:1;stroke:none;stroke-width:0.052651px;stroke-linecap:butt;stroke-linejoin:miter;stroke-opacity:1"
         d="m 188.65369,211.568 -2.11345,-0.11124 -0.11124,1.55728 0.77864,0.11124 -0.44493,6.56283 -0.66741,0.11124 v 0.77864 l 2.33592,0.11123 z"
         id="path14" />
      <path
         style="fill:#ffffff;fill-opacity:1;stroke:none;stroke-width:0.052651px;stroke-linecap:butt;stroke-linejoin:miter;stroke-opacity:1"
         d="m 199.1536,158.7251 v -3.61811 l -1.25847,-0.15731 0.31461,-1.57309 5.82045,-0.15731 0.15731,1.7304 h -1.88771 v 5.34852 z"
         id="path15" />
    </g>
    <g
       id="g34"
       transform="matrix(5.0252474,0,0,5.0252474,-71.488862,-158.59689)"
       style="fill:#ffffff;fill-opacity:1;stroke:none;stroke-width:0.198996">
      <path
         style="fill:#ffffff;fill-opacity:1;stroke:none;stroke-width:0.052651px;stroke-linecap:butt;stroke-linejoin:miter;stroke-opacity:1"
         d="m 242.93612,218.0196 h 158.3979 l -2.44716,-2.44716 c 0,0 0,-1.82195 0,-2.73293 0,-0.34968 0.24726,-0.80179 0,-1.04905 -0.21078,-0.21078 -0.59618,0 -0.89427,0 -0.36932,0 -1.10794,0 -1.10794,0 l -4.09004,-53.17008 H 252.21275 l -4.71928,53.61502 c 0,0 -1.18421,0 -1.77631,0 -0.24161,0 -0.55399,-0.17085 -0.72484,0 -0.25363,0.25363 0,0.71736 0,1.07604 0,0.75367 0,2.261 0,2.261 z"
         id="path16"
         sodipodi:nodetypes="cccsssccccssscc" />
      <path
         style="fill:#ffffff;fill-opacity:1;stroke:none;stroke-width:0.052651px;stroke-linecap:butt;stroke-linejoin:miter;stroke-opacity:1"
         d="m 249.11926,160.6226 c 0.28281,0.40911 0.9947,0 1.49204,0 h 144.4936 c 0.61439,0 1.53056,0.52891 1.84317,0 0.26553,-0.44926 -0.50329,-0.91437 -0.75494,-1.37155 -0.56085,-1.01894 -1.1217,-2.03788 -1.68255,-3.05683 -0.21795,-0.39596 -0.26475,-0.95791 -0.65385,-1.18789 -0.43982,-0.25995 -1.02227,0.0222 -1.53269,0 -47.05387,-2.04855 -93.8272,-2.55413 -140.04422,0 -0.34601,0.0191 -0.75457,-0.19706 -1.03963,0 -0.27464,0.18986 -0.23591,0.6247 -0.35387,0.93705 -0.3894,1.03115 -0.77881,2.06231 -1.16821,3.09346 -0.19962,0.52859 -0.92015,1.12098 -0.59885,1.58576 z"
         id="path17"
         sodipodi:nodetypes="sssssssssssss" />
      <path
         style="fill:#ffffff;fill-opacity:1;stroke:none;stroke-width:0.052651px;stroke-linecap:butt;stroke-linejoin:miter;stroke-opacity:1"
         d="m 292.79616,147.30066 c -0.10996,-0.40567 0.728,-0.42031 1.092,-0.63047 8.39545,-4.84711 16.7909,-9.69423 25.18634,-14.54134 0.49607,-0.2864 0.91539,-0.85921 1.4882,-0.85921 0.56795,0 0.98372,0.56795 1.47558,0.85193 7.97717,4.60561 15.95433,9.21123 23.9315,13.81684 0.60227,0.34772 1.98484,0.3709 1.8068,1.04316 -0.16643,0.62841 -1.30038,-0.007 -1.95019,0.0113 -16.94166,0.47514 -34.02837,0.66023 -51.3886,0.29824 -0.5471,-0.0114 -1.49847,0.53769 -1.64163,0.01 z"
         id="path18"
         sodipodi:nodetypes="sssssssssss" />
      <path
         style="fill:#ffffff;fill-opacity:1;stroke:none;stroke-width:0.052651px;stroke-linecap:butt;stroke-linejoin:miter;stroke-opacity:1"
         d="m 296.77362,145.93965 v 11.12345 h 3.78196 v -12.01333 z"
         id="path20" />
      <path
         style="fill:#ffffff;fill-opacity:1;stroke:none;stroke-width:0.052651px;stroke-linecap:butt;stroke-linejoin:miter;stroke-opacity:1"
         d="m 303.64317,146.09696 v 11.12345 h 3.78196 v -12.01333 z"
         id="path21" />
      <path
         style="fill:#ffffff;fill-opacity:1;stroke:none;stroke-width:0.052651px;stroke-linecap:butt;stroke-linejoin:miter;stroke-opacity:1"
         d="m 310.8925,146.09696 v 11.12345 h 3.78196 v -12.01333 z"
         id="path22" />
      <path
         style="fill:#ffffff;fill-opacity:1;stroke:none;stroke-width:0.052651px;stroke-linecap:butt;stroke-linejoin:miter;stroke-opacity:1"
         d="m 317.94635,145.78234 v 11.12345 h 3.78196 v -12.01333 z"
         id="path23" />
      <path
         style="fill:#ffffff;fill-opacity:1;stroke:none;stroke-width:0.052651px;stroke-linecap:butt;stroke-linejoin:miter;stroke-opacity:1"
         d="m 325.28783,145.78234 v 11.12345 h 3.78196 v -12.01333 z"
         id="path24" />
      <path
         style="fill:#ffffff;fill-opacity:1;stroke:none;stroke-width:0.052651px;stroke-linecap:butt;stroke-linejoin:miter;stroke-opacity:1"
         d="m 332.6563,145.93965 v 11.12345 h 3.78196 v -12.01333 z"
         id="path25" />
      <path
         style="fill:#ffffff;fill-opacity:1;stroke:none;stroke-width:0.052651px;stroke-linecap:butt;stroke-linejoin:miter;stroke-opacity:1"
         d="m 339.9866,146.56889 v 11.12345 h 3.78196 v -12.01333 z"
         id="path26" />
      <path
         style="fill:#ffffff;fill-opacity:1;stroke:none;stroke-width:0.052651px;stroke-linecap:butt;stroke-linejoin:miter;stroke-opacity:1"
         d="m 252.16858,170.85617 -1.89098,-0.3337 -0.22247,2.55839 0.6674,0.22247 -1.00111,8.45382 -0.88987,0.22247 -0.11124,1.44605 1.89099,0.11123 z"
         id="path27" />
      <path
         style="fill:#ffffff;fill-opacity:1;stroke:none;stroke-width:0.052651px;stroke-linecap:butt;stroke-linejoin:miter;stroke-opacity:1"
         d="m 251.27871,183.2032 -2.44716,-0.22247 -1.33482,0.66741 3.55951,0.3337 z"
         id="path28" />
      <path
         style="fill:#ffffff;fill-opacity:1;stroke:none;stroke-width:0.052651px;stroke-linecap:butt;stroke-linejoin:miter;stroke-opacity:1"
         d="m 251.50118,187.20764 -5.11679,-0.55617 3.67074,7.56394 z"
         id="path29" />
      <path
         style="fill:#ffffff;fill-opacity:1;stroke:none;stroke-width:0.052651px;stroke-linecap:butt;stroke-linejoin:miter;stroke-opacity:1"
         d="m 249.83266,196.99628 -1.89099,-0.22247 -0.3337,2.89209 0.66741,0.22247 -1.00112,8.56506 h -0.6674 l -0.3337,2.00222 2.33592,0.11123 z"
         id="path30" />
      <path
         style="fill:#ffffff;fill-opacity:1;stroke:none;stroke-width:0.052651px;stroke-linecap:butt;stroke-linejoin:miter;stroke-opacity:1"
         d="m 392.50615,168.74272 1.76897,-0.3337 0.20811,2.55839 -0.62433,0.22247 0.93651,8.45382 0.83246,0.22247 0.10406,1.44605 -1.76898,0.11123 z"
         id="path31" />
      <path
         style="fill:#ffffff;fill-opacity:1;stroke:none;stroke-width:0.052651px;stroke-linecap:butt;stroke-linejoin:miter;stroke-opacity:1"
         d="m 393.3386,181.08975 2.28927,-0.22247 1.24869,0.66741 -3.32984,0.3337 z"
         id="path32" />
      <path
         style="fill:#ffffff;fill-opacity:1;stroke:none;stroke-width:0.052651px;stroke-linecap:butt;stroke-linejoin:miter;stroke-opacity:1"
         d="m 393.13049,185.09419 4.78664,-0.55617 -3.4339,7.56394 z"
         id="path33" />
      <path
         style="fill:#ffffff;fill-opacity:1;stroke:none;stroke-width:0.052651px;stroke-linecap:butt;stroke-linejoin:miter;stroke-opacity:1"
         d="m 394.69135,194.88283 1.76898,-0.22247 0.31217,2.89209 -0.62435,0.22247 0.93653,8.56506 h 0.62433 l 0.31217,2.00222 -2.1852,0.11123 z"
         id="path34" />
    </g>
    <path
       style="fill:#ffffff;fill-opacity:1;stroke:none;stroke-width:0.264583px;stroke-linecap:butt;stroke-linejoin:miter;stroke-opacity:1"
       d="m 1594.274,544.60096 v -20.12329 h -17.8873 l -2.2361,-19.00532 h 65.9597 v 17.88736 l -26.831,-2.23594 -2.2359,26.83109 z"
       id="path35" />
  </g>
</svg>
