<?xml version="1.0" encoding="UTF-8" standalone="no"?>
<!-- Created with Inkscape (http://www.inkscape.org/) -->

<svg
   width="210mm"
   height="297mm"
   viewBox="0 0 210 297"
   version="1.1"
   id="svg1"
   inkscape:version="1.3.2 (091e20e, 2023-11-25)"
   sodipodi:docname="tree3.svg"
   xmlns:inkscape="http://www.inkscape.org/namespaces/inkscape"
   xmlns:sodipodi="http://sodipodi.sourceforge.net/DTD/sodipodi-0.dtd"
   xmlns="http://www.w3.org/2000/svg"
   xmlns:svg="http://www.w3.org/2000/svg">
  <sodipodi:namedview
     id="namedview1"
     pagecolor="#ffffff"
     bordercolor="#666666"
     borderopacity="1.0"
     inkscape:showpageshadow="2"
     inkscape:pageopacity="0.0"
     inkscape:pagecheckerboard="0"
     inkscape:deskcolor="#d1d1d1"
     inkscape:document-units="mm"
     inkscape:zoom="0.5946522"
     inkscape:cx="611.28169"
     inkscape:cy="516.26816"
     inkscape:window-width="1920"
     inkscape:window-height="977"
     inkscape:window-x="1512"
     inkscape:window-y="25"
     inkscape:window-maximized="1"
     inkscape:current-layer="layer1" />
  <defs
     id="defs1" />
  <g
     inkscape:label="Layer 1"
     inkscape:groupmode="layer"
     id="layer1">
    <path
       style="fill:#ffffff;fill-opacity:1;stroke:none;stroke-width:0.264583px;stroke-linecap:butt;stroke-linejoin:miter;stroke-opacity:1"
       d="m 52.502677,285.65017 12.013324,-8.00889 14.238015,-3.11457 5.339255,-44.49379 24.026649,-41.37922 -22.691833,-53.8375 52.057733,-25.36146 -43.158976,30.25578 29.365906,50.27798 -25.806402,59.17675 2.224692,26.25133 17.35258,6.22914 9.3437,6.67406 -16.46271,-3.55949 4.89432,4.89432 -5.78419,-0.88988 -7.56395,4.00445 -1.77975,-6.22914 -3.559506,4.44939 -12.013324,-4.44939 1.334815,3.11457 -6.229133,-4.89432 -4.449379,4.44937 -1.779751,-6.67406 -10.678512,5.78418 0.444939,-6.22911 z"
       id="path1"
       sodipodi:nodetypes="ccccccccccccccccccccccccccc" />
    <path
       style="fill:#ffffff;fill-opacity:1;stroke:none;stroke-width:0.264583px;stroke-linecap:butt;stroke-linejoin:miter;stroke-opacity:1"
       d="m 122.0069,190.00173 8.47743,-7.74475 3.6565,-12.86836 -1.82308,12.80472 5.78406,4.87422 -6.5907,-3.22655 -3.69608,2.39584 1.71131,2.64006 -2.8602,-1.5204 -5.15285,7.08947 z"
       id="path2" />
    <path
       style="fill:#ffffff;fill-opacity:1;stroke:none;stroke-width:0.264583px;stroke-linecap:butt;stroke-linejoin:miter;stroke-opacity:1"
       d="m 88.542653,232.70256 -8.898761,-4.89432 -0.444936,-6.22913 -0.889876,6.22913 h -6.229133 l 6.67407,0.88988 8.008884,5.78419 z"
       id="path3" />
    <path
       style="fill:#ffffff;fill-opacity:1;stroke:none;stroke-width:0.264583px;stroke-linecap:butt;stroke-linejoin:miter;stroke-opacity:1"
       d="m 101.2085,237.62493 11.4562,7.29818 4.20866,-2.5376 7.15821,0.48193 -6.97557,0.91319 -4.81491,3.32647 6.94058,2.07134 -2.9962,0.95985 -4.95088,-2.04801 -2.60759,1.7604 3.03119,-3.94438 -4.34466,-2.83689 -2.25397,5.54546 0.87053,-6.35767 -7.134882,-2.4716 z"
       id="path4" />
    <path
       style="fill:#ffffff;stroke:none;stroke-width:0.264583px;stroke-linecap:butt;stroke-linejoin:miter;stroke-opacity:1;fill-opacity:1"
       d="m 89.432528,141.93521 -11.568387,-10.67852 0.444939,-9.78863 1.334812,8.45382 4.894318,4.00444 2.224691,-4.89432 -0.889878,5.33926 4.004442,4.44938 z"
       id="path5" />
    <path
       style="fill:#ffffff;fill-opacity:1;stroke:none;stroke-width:0.264583px;stroke-linecap:butt;stroke-linejoin:miter;stroke-opacity:1"
       d="m 110.20583,129.34505 20.01959,5.75899 -14.86205,-2.09979 2.90757,3.36794 4.43889,-0.30528 -4.82173,1.22359 -2.5107,2.40261 1.11798,-3.19881 -2.46368,-3.39847 -8.67812,-2.97109 z"
       id="path6" />
    <path
       style="fill:#ffffff;fill-opacity:1;stroke:none;stroke-width:0.264583px;stroke-linecap:butt;stroke-linejoin:miter;stroke-opacity:1"
       d="M 100.12079,203.76771 90.664545,193.25444 104.1426,204.57542 Z"
       id="path7" />
    <path
       style="fill:#ffffff;fill-opacity:1;stroke:none;stroke-width:0.264583px;stroke-linecap:butt;stroke-linejoin:miter;stroke-opacity:1"
       d="m 96.848183,147.03711 23.372007,6.61052 4.11947,8.19556 -5.12956,-6.60083 -8.59398,-1.7192 1.02744,6.6095 -2.95887,-7.08803 -11.535507,-0.60299 z"
       id="path8" />
    <path
       style="fill:#ffffff;fill-opacity:1;stroke:none;stroke-width:0.264583px;stroke-linecap:butt;stroke-linejoin:miter;stroke-opacity:1"
       d="m 102.50984,130.119 -2.918214,-17.91667 -5.139676,-4.04279 3.178737,1.29252 1.955348,-2.8504 -1.326477,3.62689 2.069622,0.58114 4.2423,-6.60751 -1.25217,4.04769 6.31752,-0.42571 -7.05506,1.81834 -1.06916,2.29937 1.09473,4.80667 3.04448,-3.64438 -1.80671,3.692 4.34218,0.91932 -5.07973,0.47332 1.68925,8.17309 z"
       id="path9" />
  </g>
</svg>
