<?xml version="1.0" encoding="UTF-8" standalone="no"?>
<!-- Created with Inkscape (http://www.inkscape.org/) -->

<svg
   width="210mm"
   height="297mm"
   viewBox="0 0 210 297"
   version="1.1"
   id="svg1"
   inkscape:version="1.3.2 (091e20e, 2023-11-25)"
   sodipodi:docname="tree6.svg"
   xmlns:inkscape="http://www.inkscape.org/namespaces/inkscape"
   xmlns:sodipodi="http://sodipodi.sourceforge.net/DTD/sodipodi-0.dtd"
   xmlns="http://www.w3.org/2000/svg"
   xmlns:svg="http://www.w3.org/2000/svg">
  <sodipodi:namedview
     id="namedview1"
     pagecolor="#ffffff"
     bordercolor="#666666"
     borderopacity="1.0"
     inkscape:showpageshadow="2"
     inkscape:pageopacity="0.0"
     inkscape:pagecheckerboard="0"
     inkscape:deskcolor="#d1d1d1"
     inkscape:document-units="mm"
     inkscape:zoom="0.42048261"
     inkscape:cx="904.91258"
     inkscape:cy="1025.0127"
     inkscape:window-width="1920"
     inkscape:window-height="977"
     inkscape:window-x="1512"
     inkscape:window-y="25"
     inkscape:window-maximized="1"
     inkscape:current-layer="layer1" />
  <defs
     id="defs1" />
  <g
     inkscape:label="Layer 1"
     inkscape:groupmode="layer"
     id="layer1">
    <path
       style="fill:#ffffff;fill-opacity:1;stroke:none;stroke-width:0.264583px;stroke-linecap:butt;stroke-linejoin:miter;stroke-opacity:1"
       d="m 54.282429,287.42992 12.013324,-8.00889 14.238015,-3.11457 5.339255,-38.7096 -2.669628,-47.60835 5.339258,-57.397 0.889875,-75.639453 8.008882,79.643893 -3.114566,58.28687 5.339256,36.48491 2.22469,45.8286 17.35258,6.22914 9.3437,6.67406 -16.46271,-3.55949 4.89432,4.89432 -5.78419,-0.88988 -7.56395,4.00445 -1.77975,-6.22914 -3.559504,4.44939 -12.013324,-4.44939 1.334815,3.11457 -6.229133,-4.89432 -4.449379,4.44937 -1.779751,-6.67406 -10.678512,5.78418 0.444939,-6.22911 z"
       id="path1"
       sodipodi:nodetypes="ccccccccccccccccccccccccccc" />
    <path
       style="fill:#ffffff;fill-opacity:1;stroke:none;stroke-width:0.264583px;stroke-linecap:butt;stroke-linejoin:miter;stroke-opacity:1"
       d="m 93.567288,121.74405 6.674072,-9.3437 0.88987,-13.34814 0.88988,12.9032 6.67407,3.55951 -7.11901,-1.77976 -3.114565,3.11457 2.224685,2.22469 -3.114555,-0.88988 -3.55951,8.00889 z"
       id="path2" />
    <path
       style="fill:#ffffff;fill-opacity:1;stroke:none;stroke-width:0.264583px;stroke-linecap:butt;stroke-linejoin:miter;stroke-opacity:1"
       d="m 91.657219,246.05069 -8.898761,-4.89432 -0.444936,-6.22913 -0.889876,6.22913 h -6.229133 l 6.67407,0.88988 8.008884,5.78419 z"
       id="path3" />
    <path
       style="fill:#ffffff;stroke:none;stroke-width:0.264583px;stroke-linecap:butt;stroke-linejoin:miter;stroke-opacity:1;fill-opacity:1"
       d="m 96.551534,222.91391 11.568386,-7.11901 -0.44494,-4.89431 3.55951,-6.22913 -2.22469,6.67407 0.88987,5.78419 4.89432,-5.33926 -0.44494,3.11457 -4.00444,3.5595 0.44494,3.11457 -2.22469,-4.44938 -4.44938,2.66963 4.00444,4.44938 -5.33926,-3.55951 -5.33925,5.33926 z"
       id="path4" />
    <path
       style="fill:#ffffff;fill-opacity:1;stroke:none;stroke-width:0.264583px;stroke-linecap:butt;stroke-linejoin:miter;stroke-opacity:1"
       d="M 89.747147,109.52949 78.17876,98.85097 l 0.444939,-9.78863 1.334812,8.45382 4.894318,4.00444 2.224691,-4.89432 -0.889878,5.33926 4.004442,4.44938 z"
       id="path5" />
    <path
       style="fill:#ffffff;fill-opacity:1;stroke:none;stroke-width:0.264583px;stroke-linecap:butt;stroke-linejoin:miter;stroke-opacity:1"
       d="m 90.843681,86.852337 7.119006,-19.57727 -3.114564,14.682952 3.559503,-2.669628 v -4.449378 l 0.889879,4.894318 2.224685,2.669627 -3.114564,-1.334815 -3.559503,2.224691 -3.559506,8.453824 z"
       id="path6" />
    <path
       style="fill:#ffffff;fill-opacity:1;stroke:none;stroke-width:0.264583px;stroke-linecap:butt;stroke-linejoin:miter;stroke-opacity:1"
       d="m 94.097828,168.06099 5.784194,-12.9032 -4.894318,16.90765 z"
       id="path7" />
    <path
       style="fill:#ffffff;fill-opacity:1;stroke:none;stroke-width:0.264583px;stroke-linecap:butt;stroke-linejoin:miter;stroke-opacity:1"
       d="m 92.992031,223.57571 -21.357021,-11.56839 -2.224691,-8.89877 3.559506,7.56396 8.008882,3.5595 0.444939,-6.67408 1.334812,7.56396 11.123449,3.11456 z"
       id="path8" />
    <path
       style="fill:#ffffff;fill-opacity:1;stroke:none;stroke-width:0.264583px;stroke-linecap:butt;stroke-linejoin:miter;stroke-opacity:1"
       d="m 89.518126,183.72232 -18.687393,-19.13233 -8.898758,-0.88987 4.449379,-0.88988 -0.444939,-4.89432 1.779754,5.33926 2.669627,-0.88988 -1.334815,-11.12345 2.224691,5.7842 6.22913,-5.33926 -5.784193,7.56394 0.889875,3.55951 5.339258,4.89432 v -6.67407 l 1.334812,5.78419 5.339257,-2.22469 -4.894318,4.44938 8.898758,8.45382 z"
       id="path9" />
  </g>
</svg>
