<?xml version="1.0" encoding="UTF-8" standalone="no"?>
<!-- Created with Inkscape (http://www.inkscape.org/) -->

<svg
   width="210mm"
   height="297mm"
   viewBox="0 0 210 297"
   version="1.1"
   id="svg1"
   inkscape:version="1.3.2 (091e20e, 2023-11-25)"
   sodipodi:docname="tree2.svg"
   xmlns:inkscape="http://www.inkscape.org/namespaces/inkscape"
   xmlns:sodipodi="http://sodipodi.sourceforge.net/DTD/sodipodi-0.dtd"
   xmlns="http://www.w3.org/2000/svg"
   xmlns:svg="http://www.w3.org/2000/svg">
  <sodipodi:namedview
     id="namedview1"
     pagecolor="#ffffff"
     bordercolor="#666666"
     borderopacity="1.0"
     inkscape:showpageshadow="2"
     inkscape:pageopacity="0.0"
     inkscape:pagecheckerboard="0"
     inkscape:deskcolor="#d1d1d1"
     inkscape:document-units="mm"
     inkscape:zoom="0.5946522"
     inkscape:cx="611.28169"
     inkscape:cy="650.80059"
     inkscape:window-width="1920"
     inkscape:window-height="977"
     inkscape:window-x="1512"
     inkscape:window-y="25"
     inkscape:window-maximized="1"
     inkscape:current-layer="layer1" />
  <defs
     id="defs1" />
  <g
     inkscape:label="Layer 1"
     inkscape:groupmode="layer"
     id="layer1">
    <path
       style="fill:#ffffff;fill-opacity:1;stroke:none;stroke-width:0.264583px;stroke-linecap:butt;stroke-linejoin:miter;stroke-opacity:1"
       d="m 54.282429,287.42992 12.013324,-8.00889 14.238015,-3.11457 5.339255,-38.7096 3.559503,-43.60391 -8.898756,-60.51156 8.898758,-76.529333 -1.334815,76.529323 10.678511,60.51156 0.889876,37.37479 2.22469,45.8286 17.35258,6.22914 9.3437,6.67406 -16.46271,-3.55949 4.89432,4.89432 -5.78419,-0.88988 -7.56395,4.00445 -1.77975,-6.22914 -3.559504,4.44939 -12.013324,-4.44939 1.334815,3.11457 -6.229133,-4.89432 -4.449379,4.44937 -1.779751,-6.67406 -10.678512,5.78418 0.444939,-6.22911 z"
       id="path1"
       sodipodi:nodetypes="ccccccccccccccccccccccccccc" />
    <path
       style="fill:#ffffff;fill-opacity:1;stroke:none;stroke-width:0.264583px;stroke-linecap:butt;stroke-linejoin:miter;stroke-opacity:1"
       d="m 92.087171,197.97411 10.829939,-8.59437 1.44398,-12.27767 1.44401,11.86842 10.82993,3.27404 -11.55193,-1.63703 -5.05397,2.86479 3.60996,2.04628 -5.053961,-0.81852 -5.775965,7.36661 z"
       id="path2" />
    <path
       style="fill:#ffffff;fill-opacity:1;stroke:none;stroke-width:0.264583px;stroke-linecap:butt;stroke-linejoin:miter;stroke-opacity:1"
       d="m 88.542653,244.71588 -8.898761,-4.89432 -0.444936,-6.22913 -0.889876,6.22913 h -6.229133 l 6.67407,0.88988 8.008884,5.78419 z"
       id="path3" />
    <path
       style="fill:#ffffff;fill-opacity:1;stroke:none;stroke-width:0.264583px;stroke-linecap:butt;stroke-linejoin:miter;stroke-opacity:1"
       d="m 86.762903,97.88634 11.56838,-7.11901 -0.44494,-4.89431 3.559517,-6.22913 -2.224697,6.67407 0.889867,5.78419 4.89433,-5.33926 -0.44494,3.11457 -4.00445,3.5595 0.44495,3.11457 -2.224697,-4.44938 -4.44938,2.66963 4.00444,4.44938 -5.33926,-3.55951 -5.33925,5.33926 z"
       id="path4" />
    <path
       style="fill:#ffffff;fill-opacity:1;stroke:none;stroke-width:0.264583px;stroke-linecap:butt;stroke-linejoin:miter;stroke-opacity:1"
       d="m 87.207838,179.31 -11.568387,-10.67852 0.444939,-9.78863 1.334812,8.45382 4.894318,4.00444 2.224691,-4.89432 -0.889878,5.33926 4.004442,4.44938 z"
       id="path5" />
    <path
       style="fill:#ffffff;fill-opacity:1;stroke:none;stroke-width:0.264583px;stroke-linecap:butt;stroke-linejoin:miter;stroke-opacity:1"
       d="m 98.331287,258.06402 7.119003,-19.57727 -3.11456,14.68295 3.5595,-2.66963 v -4.44938 l 0.88988,4.89432 2.22468,2.66963 -3.11456,-1.33482 -3.5595,2.22469 -3.559507,8.45383 z"
       id="path6" />
    <path
       style="fill:#ffffff;fill-opacity:1;stroke:none;stroke-width:0.264583px;stroke-linecap:butt;stroke-linejoin:miter;stroke-opacity:1"
       d="m 89.432528,149.05422 5.784194,-12.9032 -4.894318,16.90764 z"
       id="path7" />
    <path
       style="fill:#ffffff;fill-opacity:1;stroke:none;stroke-width:0.264583px;stroke-linecap:butt;stroke-linejoin:miter;stroke-opacity:1"
       d="m 92.992031,195.7727 -21.357021,-11.56839 -2.224691,-8.89876 3.559506,7.56395 8.008882,3.5595 0.444939,-6.67407 1.334812,7.56395 11.123449,3.11456 z"
       id="path8" />
    <path
       style="fill:#ffffff;fill-opacity:1;stroke:none;stroke-width:0.264583px;stroke-linecap:butt;stroke-linejoin:miter;stroke-opacity:1"
       d="m 82.313518,132.5915 -18.687393,-19.13233 -8.898758,-0.88987 4.449379,-0.88988 -0.444939,-4.89432 1.779754,5.33926 2.669627,-0.88988 -1.334815,-11.12345 2.224691,5.7842 6.22913,-5.33926 -5.784193,7.56394 0.889875,3.55951 5.339258,4.89432 v -6.67407 l 1.334812,5.78419 5.339257,-2.22469 -4.894318,4.44938 8.898758,8.45382 z"
       id="path9" />
  </g>
</svg>
