<?xml version="1.0" encoding="UTF-8" standalone="no"?>
<!-- Created with Inkscape (http://www.inkscape.org/) -->

<svg
   width="210mm"
   height="297mm"
   viewBox="0 0 210 297"
   version="1.1"
   id="svg1"
   inkscape:version="1.3.2 (091e20e, 2023-11-25)"
   sodipodi:docname="tree5.svg"
   xmlns:inkscape="http://www.inkscape.org/namespaces/inkscape"
   xmlns:sodipodi="http://sodipodi.sourceforge.net/DTD/sodipodi-0.dtd"
   xmlns="http://www.w3.org/2000/svg"
   xmlns:svg="http://www.w3.org/2000/svg">
  <sodipodi:namedview
     id="namedview1"
     pagecolor="#ffffff"
     bordercolor="#666666"
     borderopacity="1.0"
     inkscape:showpageshadow="2"
     inkscape:pageopacity="0.0"
     inkscape:pagecheckerboard="0"
     inkscape:deskcolor="#d1d1d1"
     inkscape:document-units="mm"
     inkscape:zoom="0.84096521"
     inkscape:cx="478.61671"
     inkscape:cy="730.11344"
     inkscape:window-width="1920"
     inkscape:window-height="977"
     inkscape:window-x="1512"
     inkscape:window-y="25"
     inkscape:window-maximized="1"
     inkscape:current-layer="layer1" />
  <defs
     id="defs1" />
  <g
     inkscape:label="Layer 1"
     inkscape:groupmode="layer"
     id="layer1">
    <path
       style="fill:#ffffff;fill-opacity:1;stroke:none;stroke-width:0.264583px;stroke-linecap:butt;stroke-linejoin:miter;stroke-opacity:1"
       d="m 54.282429,287.42992 12.013324,-8.00889 14.238015,-3.11457 5.339255,-38.7096 -2.669628,-47.60835 1.561907,-2.20486 1.252905,4.53364 2.908442,-0.1292 5.400195,2.69473 5.339256,36.48491 2.22469,45.8286 17.35258,6.22914 9.3437,6.67406 -16.46271,-3.55949 4.89432,4.89432 -5.78419,-0.88988 -7.56395,4.00445 -1.77975,-6.22914 -3.559504,4.44939 -12.013324,-4.44939 1.334815,3.11457 -6.229133,-4.89432 -4.449379,4.44937 -1.779751,-6.67406 -10.678512,5.78418 0.444939,-6.22911 z"
       id="path1"
       sodipodi:nodetypes="ccccccccccccccccccccccccccc" />
    <path
       style="fill:#ffffff;fill-opacity:1;stroke:none;stroke-width:0.264583px;stroke-linecap:butt;stroke-linejoin:miter;stroke-opacity:1"
       d="m 105.20818,203.54489 6.67407,-9.3437 0.88987,-13.34814 0.88988,12.9032 6.67407,3.55951 -7.11901,-1.77976 -3.11456,3.11457 2.22468,2.22469 -3.11456,-0.88988 -3.5595,8.00889 z"
       id="path2" />
    <path
       style="fill:#ffffff;fill-opacity:1;stroke:none;stroke-width:0.264583px;stroke-linecap:butt;stroke-linejoin:miter;stroke-opacity:1"
       d="m 91.657219,246.05069 -8.898761,-4.89432 -0.444936,-6.22913 -0.889876,6.22913 h -6.229133 l 6.67407,0.88988 8.008884,5.78419 z"
       id="path3" />
    <path
       style="fill:#ffffff;stroke:none;stroke-width:0.264583px;stroke-linecap:butt;stroke-linejoin:miter;stroke-opacity:1;fill-opacity:1"
       d="m 96.551534,222.91391 11.568386,-7.11901 -0.44494,-4.89431 3.55951,-6.22913 -2.22469,6.67407 0.88987,5.78419 4.89432,-5.33926 -0.44494,3.11457 -4.00444,3.5595 0.44494,3.11457 -2.22469,-4.44938 -4.44938,2.66963 4.00444,4.44938 -5.33926,-3.55951 -5.33925,5.33926 z"
       id="path4" />
    <path
       style="fill:#ffffff;fill-opacity:1;stroke:none;stroke-width:0.264583px;stroke-linecap:butt;stroke-linejoin:miter;stroke-opacity:1"
       d="m 115.68993,229.12833 -11.3478,10.91264 -9.744819,-1.02647 8.518249,-0.82953 4.28851,-4.64744 -4.75331,-2.5119 5.27687,1.20593 4.67972,-3.73266 z"
       id="path5" />
    <path
       style="fill:#ffffff;fill-opacity:1;stroke:none;stroke-width:0.264583px;stroke-linecap:butt;stroke-linejoin:miter;stroke-opacity:1"
       d="m 126.38597,241.53958 20.82009,-0.6881 -14.78614,2.58057 3.80366,2.30848 4.12899,-1.65783 -4.21032,2.64942 -1.64849,3.05919 0.0782,-3.38764 -3.39076,-2.47427 -9.17136,-0.15331 z"
       id="path6" />
    <path
       style="fill:#ffffff;fill-opacity:1;stroke:none;stroke-width:0.264583px;stroke-linecap:butt;stroke-linejoin:miter;stroke-opacity:1"
       d="m 98.88467,190.65725 4.74092,0.92741 -5.168078,-2.2466 z"
       id="path7"
       sodipodi:nodetypes="cccc" />
    <path
       style="fill:#ffffff;fill-opacity:1;stroke:none;stroke-width:0.264583px;stroke-linecap:butt;stroke-linejoin:miter;stroke-opacity:1"
       d="m 150.62326,273.6446 -24.09325,3.07661 -7.0015,-5.92591 7.30592,4.0629 8.58037,-1.78589 -3.53525,-5.67832 5.49973,5.36173 10.84926,-3.96549 z"
       id="path8" />
    <path
       style="fill:#ffffff;fill-opacity:1;stroke:none;stroke-width:0.264583px;stroke-linecap:butt;stroke-linejoin:miter;stroke-opacity:1"
       d="m 85.428084,205.11639 -18.687393,-19.13233 -8.898758,-0.88987 4.449379,-0.88988 -0.444939,-4.89432 1.779754,5.33926 2.669627,-0.88988 -1.334815,-11.12345 2.224691,5.7842 6.22913,-5.33926 -5.784193,7.56394 0.889875,3.55951 5.339258,4.89432 v -6.67407 l 1.334812,5.78419 5.339257,-2.22469 -4.894318,4.44938 8.898758,8.45382 z"
       id="path9" />
    <path
       style="fill:#ffffff;fill-opacity:1;stroke:none;stroke-width:0.264583px;stroke-linecap:butt;stroke-linejoin:miter;stroke-opacity:1"
       d="m 92.731391,195.95699 30.255789,52.94762 43.60392,40.04441 -38.26466,-45.8286 -29.365916,-55.17231 -1.338345,4.68727 -4.028296,-0.12323 z"
       id="path10"
       sodipodi:nodetypes="cccccccc" />
  </g>
</svg>
