<?xml version="1.0" encoding="UTF-8" standalone="no"?>
<!-- Created with Inkscape (http://www.inkscape.org/) -->

<svg
   width="300mm"
   height="210mm"
   viewBox="0 0 300 210"
   version="1.1"
   id="svg1"
   inkscape:version="1.3.2 (091e20e, 2023-11-25)"
   sodipodi:docname="widegrass.svg"
   xmlns:inkscape="http://www.inkscape.org/namespaces/inkscape"
   xmlns:sodipodi="http://sodipodi.sourceforge.net/DTD/sodipodi-0.dtd"
   xmlns="http://www.w3.org/2000/svg"
   xmlns:svg="http://www.w3.org/2000/svg">
  <sodipodi:namedview
     id="namedview1"
     pagecolor="#ffffff"
     bordercolor="#666666"
     borderopacity="1.0"
     inkscape:showpageshadow="2"
     inkscape:pageopacity="0.0"
     inkscape:pagecheckerboard="0"
     inkscape:deskcolor="#d1d1d1"
     inkscape:document-units="mm"
     inkscape:zoom="0.84096521"
     inkscape:cx="483.37315"
     inkscape:cy="759.84119"
     inkscape:window-width="1920"
     inkscape:window-height="977"
     inkscape:window-x="1512"
     inkscape:window-y="25"
     inkscape:window-maximized="1"
     inkscape:current-layer="layer1" />
  <defs
     id="defs1" />
  <g
     inkscape:label="Layer 1"
     inkscape:groupmode="layer"
     id="layer1">
    <path
       style="fill:#000000;fill-opacity:1;stroke:#000000;stroke-width:0.264583px;stroke-linecap:butt;stroke-linejoin:miter;stroke-opacity:1"
       d="m 6.5270067,198.90303 293.8039833,0.70192 c -3.28325,-4.25884 -7.70031,-7.81504 -9.77839,-12.82076 1.30798,2.82236 -0.84058,4.11003 -2.34355,5.68435 0,0 -4.4124,-6.7186 -4.1325,-10.46021 0.23437,-3.13278 4.72387,-8.13614 4.72387,-8.13614 0,0 -5.24688,3.1527 -6.63582,7.65271 -1.20938,3.91829 -0.37647,11.01662 -0.37647,11.01662 -3.31536,-2.75784 -6.63375,-5.51344 -8.13642,-9.60646 0.90411,3.80506 2.96655,6.92601 5.72854,9.63382 l -8.85633,-2.32408 1.47663,-11.33221 c -1.8166,4.60279 -3.24004,9.3979 -8.69103,12.22246 -2.20331,-4.2856 -3.01608,-8.58701 -3.35742,-12.89375 -0.75782,4.04983 -1.71356,8.10191 -0.66483,12.13121 -2.20143,-7.45767 -4.48615,-14.53302 -6.66895,-21.74678 0.9826,7.23721 3.78006,14.05737 2.65587,21.79239 l -12.06683,-2.28758 c 4.49373,-4.24574 4.7396,-10.80467 7.03986,-16.2449 -3.00653,5.47043 -4.09245,12.39379 -10.25952,15.47325 -0.74239,-3.42008 0.17675,-6.52519 0.69239,-9.70678 -1.3786,3.41491 -2.50054,6.86988 -2.28845,10.53317 -3.86752,-1.91039 -6.91111,-5.52849 -9.74163,-9.58821 1.52026,4.27841 2.73379,8.80268 6.54954,11.24097 l -23.28511,-0.54358 c -5.3394,-5.28086 -5.38473,-10.77115 -6.60463,-16.08981 0.87272,4.9549 0.50624,9.86633 2.58237,15.32727 l -3.28395,-6.42863 c 0.61982,2.30066 -0.27988,4.16111 -2.34356,5.68435 -3.49978,-5.77065 -1.92611,-10.57951 -0.17451,-15.35466 -3.12111,5.38117 -5.24072,10.60665 -4.64121,15.4094 l -29.67847,1.95381 c 0,0 -0.0866,-8.23189 -2.95153,-12.49423 -2.04024,-3.03451 -6.08853,-5.99264 -6.08853,-5.99264 0,0 3.63602,5.62451 4.11413,8.84391 0.52045,3.50448 -1.48584,10.52407 -1.48584,10.52407 0.42271,-3.73682 -1.10286,-7.84297 -3.34824,-12.08559 1.1181,3.75909 2.15207,7.51914 0.12859,11.31395 l -7.28785,-5.57489 4.07738,5.61138 -24.08771,-0.53448 c -0.8056,-3.83759 2.31588,-4.58485 3.93961,-6.51074 l -5.59077,2.48829 c -2.13392,-2.93931 -0.15235,-5.9254 0.70158,-8.89865 -1.95989,2.8598 -4.50322,5.37618 -3.90286,9.74328 l -5.63671,-1.55243 5.66427,3.97684 -48.166236,-0.2608 c 1.992286,-3.67859 1.603258,-9.02911 -0.174517,-15.35464 0.03517,5.30154 1.697027,12.33655 -3.893689,10.55141 -4.260058,-2.86132 -4.248035,-7.624 -4.953481,-12.06736 -0.690561,5.0008 -2.146738,10.09608 1.770565,14.52828 -4.641056,-0.52579 -9.450451,-0.97667 -10.470769,-3.11397 2.578954,4.4386 7.297223,5.19253 11.319311,7.14554 l -35.333548,-1.2149 c 6.960559,-4.06036 7.467623,-10.81894 11.052949,-16.2905 -4.201207,5.24511 -6.844625,12.32946 -13.479168,14.7016 -2.668996,-2.93323 -1.222536,-5.91323 -0.903656,-8.88041 -1.887179,3.2544 -3.071761,6.50086 -2.297629,9.72503 l -16.043171,0.99058 c 0.81948,-7.83235 -3.892017,-12.2369 -8.2190625,-16.87971 1.7932263,4.96525 6.4010405,8.18618 3.3941728,16.12631 -2.9637391,0.15702 -6.7627113,1.08033 -7.2694857,-3.9586 -0.1356888,2.69205 -0.187845,5.35779 4.8891876,6.41039 l -6.36583009,4.92182 z"
       id="path1"
       sodipodi:nodetypes="ccccscscccccccccccccccccccccccccscsccccccccccccccccccccccccccccccc" />
    <path
       style="fill:#000000;fill-opacity:1;stroke:#000000;stroke-width:0.264583px;stroke-linecap:butt;stroke-linejoin:miter;stroke-opacity:1"
       d="m 14.331502,191.42436 1.449655,-8.98741 0.123289,8.96578 1.505893,-4.89776 0.220021,4.55938 0.673998,-8.19012 1.377318,8.63389 0.5578,-5.19938 1.010819,4.86316 1.346434,-5.0529 1.176766,5.49017 0.962631,-10.08199 0.931391,10.52792 2.733967,-7.11718 0.872992,6.28096 4.149616,-7.13665 -0.234559,5.82422 0.684811,-7.40365 1.713538,10.20251 0.824803,-8.66418 0.875156,6.43826 4.339353,-4.7794 -1.180489,5.67991 3.236134,-4.92155 -0.09024,4.87829 0.839944,-7.56312 1.049752,7.69446 0.699955,-6.30259 1.189742,6.43393 1.613438,-8.5177 0.898948,8.1685 1.206444,-3.79237 0.05407,3.93236 2.419378,-7.11286 0.105986,7.70743 1.510218,-4.58316 0.70272,5.33935 0.195624,-8.65552 1.368668,8.00472 1.674001,-4.11346 1.170275,5.01829 0.180484,-9.75659 1.390297,9.57766 1.951822,-6.79178 1.038938,6.90798 1.311826,-7.5696 1.639997,4.8545 0.577266,-3.78372 0.840546,3.92154 5.024771,-0.69838 0.643718,-10.39226 1.754634,13.19111 2.117763,-6.16477 0.220023,4.55938 1.348597,-4.8956 0.69623,4.86748 2.07667,-9.15336 -0.803174,10.23711 2.667519,-0.50864 -1.189745,-6.43393 3.387541,6.08906 2.419376,-7.11286 -0.05347,7.5523 1.962634,-6.00532 0.868667,5.96638 0.846433,-7.09123 1.028122,6.12151 1.809667,-5.68855 1.036775,6.75068 1.15453,-7.56744 1.995682,7.83877 1.80102,-6.31774 0.0714,5.19072 2.07667,-9.15336 0.30438,10.69385 1.30317,-8.19877 0.74815,8.64254 2.8891,-7.27664 -1.15021,7.88203 4.41878,-10.44417 -1.76641,8.83446 3.30319,-0.0454 -1.01731,-5.33503 3.3724,4.988 -2.93512,-7.5112 4.67401,8.11658 -1.04327,-7.22257 3.40485,7.34742 -0.55192,-5.8134 2.14,6.89283 0.65886,-9.29118 1.04543,7.37986 1.13939,-8.66851 0.90328,8.4831 4.57391,-10.60363 -1.10479,11.18521 3.34801,-8.22689 -0.98427,8.50904 2.66103,-0.98053 -1.18542,-6.11935 3.55782,7.03066 0.0405,-8.49606 2.4892,9.40522 0.48642,-10.39009 2.02596,10.0409 -0.86866,-5.96637 3.06646,5.6215 -0.233,-5.50315 2.76485,6.5696 2.89342,-6.96205 -0.53616,6.77231 3.02475,-8.85174 -0.51237,8.50255 1.62858,-7.41664 3.89186,8.44199 -1.20488,-7.53499 3.3724,4.988 1.47561,-7.09988 1.79513,4.69503 6.83011,-6.70153 -3.81123,8.86256 2.85076,1.37672 1.95398,-6.63448 1.03678,6.75068 0.55996,-5.04207 5.40425,4.01611 -1.18758,-6.27664 1.9654,5.63664 1.03185,-5.04855 0.39245,5.65827 2.43668,-5.8545 -0.69129,6.93177 4.23769,-12.17224 -2.05937,10.41171 2.83131,-0.0389 0.0816,-5.50747 1.79946,5.00964 1.36806,-3.47995 0.22218,4.71667 2.081,-8.83877 -0.68048,7.71824 2.5745,-7.27231 -0.37238,7.24203 2.56369,-8.05879 1.20705,7.69229 3.62209,0.26484 0.84428,-7.24852 0.88813,7.38203 0.4005,-5.19721 2.55781,2.95399 1.17184,-6.30909 0.90327,8.48309 1.12425,-9.76956 1.70489,9.57333 4.89343,1.1913 -1.48486,-5.01396 4.46048,4.02909 2.74693,-6.17341 -1.77505,8.20527 2.61128,-4.59832 0.53028,4.24047 -0.0114,-12.27113 1.4249,12.09437 1.04483,-4.1048 0.85351,4.86532 2.21019,-10.88577 -0.46696,11.80574 3.49448,-9.01553 0.0995,7.23554 0.72808,-4.25776 1.78864,4.22316 0.20427,-8.02635 2.95243,8.76956 0.82047,-8.97877 0.73517,7.69878 2.57884,-6.95772 1.51947,7.53067 -0.58868,-8.48742 2.62485,7.83012 2.62426,-3.65455 0.36001,3.29886 1.50373,-5.05505 0.40327,6.44475 1.6394,-6.63017 0.56272,6.59989 1.19996,-4.26426 2.27999,5.63232 -1.51947,-7.53067 3.06646,5.62151 1.42154,-11.03225 -0.0102,10.69819 4.94473,-6.51829 -1.78155,7.73338 2.12642,-5.53558 0.54975,5.65611 0.56862,-4.4129 1.93511,3.43453 0.0795,-5.66477 2.10538,4.37613 -1.01514,-5.17775 3.88105,7.65552 1.62857,-7.41663 0.57788,7.70094 1.6567,-5.3718 -0.8551,6.46205 3.85666,-5.55938 -0.8594,6.14746 2.58099,-6.80043 -0.51886,8.03067 5.17989,-0.85785 3.64745,-9.33229 -0.95614,10.55388 1.14373,-8.35392 1.65729,6.11285 2.45183,-4.75344 -0.37889,6.77015 3.07452,-5.23397 -0.54914,5.82854 -3.43453,1.93512 -283.8240752,-0.81682 -2.3686714,-12.08139 2.7799915,7.67066 -0.4119228,-7.07393 2.2648486,4.53126 -0.8924578,-7.69662 3.0989061,7.98092 1.165348,-6.78097 z"
       id="path2" />
  </g>
</svg>
